ply
format ascii 1.0
element vertex 485
property double x
property double y
property double z
property uchar blue
property uchar green
property uchar red
element edge 16
property int vertex1
property int vertex2
property uchar blue
property uchar green
property uchar red
end_header
0 0 206.69 255 255 255
2.89684 2.73852 199.317 255 255 255
-0.0194833 2.45114 198.675 255 255 255
0.4195 -1.51877 198.458 255 255 255
3.33583 -1.2314 199.1 255 255 255
-4.55332 30.7487 204.344 255 0 0
-1.76385 32.6252 196.667 255 0 0
-4.6256 31.9672 196.052 255 0 0
-3.81219 28.0698 196.437 255 0 0
-0.950439 28.7277 197.052 255 0 0
11.6961 -47.5713 220.978 173 238 229
11.1071 -50.2826 218.48 168 210 223
11.4329 -48.5671 220.066 134 196 184
11.1536 -49.473 219.108 144 129 113
10.9541 -50.8169 218.088 67 122 113
11.5971 -45.0463 223.094 217 240 226
9.42731 -47.468 222.073 188 242 237
8.72434 -43.3181 223.245 197 201 229
8.44833 -50.1629 220.286 58 123 102
7.99654 -51.1131 219.66 167 219 242
7.88333 -51.3857 219.533 163 214 230
7.60519 -51.3232 219.755 164 217 238
7.22167 -43.1266 224.099 200 225 241
7.1847 -43.3042 224.036 190 209 236
7.46592 -51.616 219.526 82 138 157
6.71264 -44.8287 223.107 212 227 255
6.66295 -44.8568 223.217 91 121 200
6.86159 -48.7697 222.068 207 240 233
6.38699 -44.0646 223.347 166 221 255
6.7761 -48.0154 222.803 109 184 168
6.35426 -44.0823 223.341 178 225 255
6.53164 -47.2343 223.462 249 255 251
6.41833 -46.0988 224.228 128 123 144
6.19713 -46.8307 223.872 151 228 207
6.36233 -52.3753 219.302 67 156 137
6.14603 -48.2193 222.855 83 163 132
6.00419 -46.1199 224.467 130 172 217
6.00206 -46.2504 224.387 64 136 144
6.0111 -46.4827 224.179 127 209 174
6.08931 -48.3152 222.831 140 227 193
6.0024 -46.6392 224.039 68 170 128
5.95332 -46.9964 223.841 74 162 122
6.15769 -52.5917 219.176 69 148 121
5.94051 -47.4365 223.552 140 218 187
6.05468 -52.1341 219.697 74 140 129
5.76084 -46.3093 224.38 54 149 115
5.74987 -48.3811 222.859 80 151 131
5.42698 -45.1575 223.417 191 220 255
5.93309 -52.5849 219.315 61 136 108
5.70855 -48.3232 222.933 73 135 121
5.67395 -47.9141 223.294 214 255 247
5.7833 -52.1682 219.871 142 213 193
5.57889 -50.8188 221.04 102 178 166
5.62027 -51.6918 220.328 70 135 113
5.57123 -50.8497 220.944 165 207 206
5.47203 -51.2055 220.774 71 150 131
5.52875 -52.4126 219.741 194 241 245
5.50319 -52.2481 219.846 70 147 133
5.1473 -51.4013 220.777 57 134 120
5.19816 -52.6281 219.671 72 147 126
5.20852 -52.667 219.583 76 147 130
5.17643 -53.2227 218.905 133 198 177
4.97187 -52.338 219.725 68 79 69
4.87061 -51.052 221.151 106 178 172
4.87538 -51.1813 221.017 75 150 134
4.83041 -51.3494 220.891 74 153 140
4.92122 -52.8832 219.24 141 199 175
4.72658 -52.1176 220.006 76 150 126
4.73431 -52.1254 219.981 156 230 204
4.25988 -46.8637 224.577 77 162 117
4.65866 -51.3548 220.693 75 149 115
4.6904 -52.4143 219.766 136 211 183
4.51224 -50.6723 221.296 177 242 226
4.65935 -52.4815 219.718 63 125 107
4.3418 -49.58 222.383 191 247 242
4.42562 -50.576 221.444 83 157 133
4.32213 -49.4953 222.4 176 244 233
4.38176 -50.3458 221.635 168 235 220
4.3677 -50.896 221.192 63 148 116
4.18738 -49.5446 222.379 170 230 212
3.95479 -47.4252 224.198 86 163 149
4.12592 -49.1656 222.7 159 224 208
4.06343 -49.1492 222.721 76 150 132
4.27381 -51.8241 220.465 87 150 140
4.09425 -51.0715 221.149 193 236 225
3.59121 -47.0021 224.622 184 233 235
3.92904 -50.5988 221.524 89 153 141
3.42864 -46.5805 225.104 181 223 236
4.17091 -53.2265 219.498 130 224 183
3.93299 -51.3468 221.299 189 228 226
3.21786 -44.9481 224.252 202 241 255
3.84839 -51.003 221.48 66 115 107
3.94569 -51.9158 220.812 71 150 123
3.68587 -50.0133 222.234 96 120 112
3.70247 -50.0559 222.143 108 128 123
3.80075 -51.0084 221.505 157 228 212
3.78606 -50.9733 221.583 94 158 139
3.75693 -50.7585 221.672 181 235 222
3.80883 -51.2942 221.338 77 156 135
3.74315 -51.002 221.553 170 227 212
3.75353 -51.8433 220.929 132 223 200
3.37458 -48.9139 223.263 96 128 117
3.53246 -50.8673 221.693 58 136 99
3.14526 -48.0663 223.982 97 163 138
3.36182 -50.8629 221.758 168 240 220
2.89751 -47.335 224.673 154 236 224
2.73369 -46.7259 225.254 141 231 208
3.43068 -52.3674 220.692 158 217 203
3.18168 -52.2743 220.802 167 229 205
2.93046 -52.3119 220.892 76 145 134
1.60652 -45.5295 224.62 205 232 255
1.0245 -44.3766 227.2 74 89 168
1.30788 -46.5293 225.984 98 138 167
1.54072 -47.8659 224.715 128 165 163
1.54312 -47.8585 224.692 128 165 163
0.870448 -44.2838 225.775 119 140 185
0.799471 -46.5903 226.085 92 171 182
2.19997 -54.2167 219.354 67 116 114
-0.0101055 -42.0958 229.417 79 154 108
-0.0728416 -42.2772 229.358 114 165 128
-0.184809 -42.3013 229.35 95 152 114
0.223596 -43.7875 226.602 83 77 72
0.838182 -48.3963 224.468 133 162 146
0.813494 -48.3874 224.516 128 155 139
0.502181 -48.9648 224.142 126 158 139
0.452095 -48.9338 224.201 134 169 149
0.379842 -49.1352 224.076 163 233 226
-0.842049 -42.9627 228.951 184 244 233
-0.406696 -47.3587 225.936 167 242 221
-0.922853 -43.9552 226.85 145 182 234
-1.25473 -47.7609 225.773 133 203 166
-1.70287 -47.8179 225.962 131 198 177
-1.74904 -47.8528 225.937 112 177 151
10.9534 -50.7784 218.049 83 136 126
11.7438 -46.2314 222.167 167 231 231
11.3174 -47.4871 221.215 98 159 169
11.5953 -45.0017 223.145 174 197 182
11.5845 -45.0324 223.094 239 255 245
11.476 -45.4401 222.825 106 167 181
10.9822 -47.7472 221.17 166 229 233
10.9184 -47.0968 221.725 88 148 148
10.3012 -51.3043 218.071 163 212 250
10.5657 -49.3444 219.776 94 144 202
10.5698 -47.642 221.494 99 150 166
10.3085 -49.189 220.067 104 148 202
10.479 -47.2539 221.829 93 165 159
9.14714 -43.6063 222.802 177 209 244
9.36382 -47.5619 222.046 226 255 250
9.07094 -48.743 221.156 205 240 236
8.67142 -43.1926 223.365 184 219 245
8.56533 -43.951 222.889 147 177 212
8.77845 -49.5487 220.661 172 232 221
8.47644 -43.9978 222.855 183 223 241
8.32071 -43.8956 223.033 184 214 243
8.44836 -50.163 220.286 58 123 102
8.0423 -43.735 222.903 187 220 246
8.31316 -47.9601 222.185 188 216 223
7.91643 -42.3849 224.421 151 171 202
7.86487 -42.3896 224.457 151 169 198
7.44797 -44.9527 222.962 157 215 255
7.35243 -44.97 222.949 196 197 218
7.55832 -49.1328 221.562 162 202 221
7.5494 -49.2775 221.434 213 245 240
7.18631 -43.3052 224.046 196 217 244
7.01852 -46.6145 221.619 64 87 167
7.15483 -48.9262 221.874 245 255 251
7.11829 -48.8112 221.975 187 218 227
7.08849 -48.4674 222.303 214 249 245
6.70063 -44.8241 223.084 244 252 255
6.5637 -44.459 223.111 193 234 255
6.87526 -48.1399 222.621 203 247 248
6.86159 -48.7697 222.068 207 240 233
6.42136 -42.871 224.888 121 149 214
6.34293 -44.0837 223.328 185 232 255
6.73971 -52.3027 219.215 56 135 114
6.22346 -44.1311 223.357 138 176 234
6.55796 -46.6978 223.851 160 218 224
6.63043 -52.2423 219.347 81 143 125
6.0783 -44.1429 223.386 139 170 231
6.35407 -45.8176 224.495 112 98 110
6.36884 -47.6169 223.27 182 238 227
6.19727 -46.829 223.868 151 228 207
5.84358 -44.9046 223.302 206 250 255
6.00554 -46.2552 224.411 49 113 118
5.61207 -41.6747 225.973 205 245 255
5.9732 -46.252 224.306 165 227 227
5.98517 -46.3745 224.229 149 235 193
5.94978 -46.2538 224.445 101 171 170
5.76408 -46.2557 224.407 91 172 157
5.60671 -48.3726 222.961 82 143 133
5.64166 -52.353 219.753 66 129 113
5.50465 -52.2514 219.853 70 147 133
4.77028 -45.2048 223.639 190 226 255
4.80008 -48.255 223.329 79 166 152
5.00048 -51.7335 220.535 65 137 124
5.04032 -52.8834 219.254 100 159 139
4.96947 -52.3352 219.738 78 86 79
4.68994 -51.3597 220.592 75 146 106
4.64478 -51.1156 220.91 74 135 99
4.41774 -49.1606 222.714 198 254 249
4.50985 -50.6847 221.32 176 240 221
3.95552 -47.427 224.206 88 164 152
4.28059 -51.8239 220.472 86 156 139
3.45236 -43.7165 225.268 158 184 231
3.70984 -46.6833 224.921 227 248 245
3.36812 -43.5705 225.486 162 204 255
3.45358 -44.9966 224.141 193 233 255
3.68707 -47.9457 223.837 183 230 234
3.34059 -44.7003 224.249 211 243 255
4.05401 -52.5965 220.189 82 161 134
3.94488 -51.914 220.807 59 140 113
3.9959 -52.4721 220.343 78 150 120
3.8002 -51.015 221.516 152 225 209
3.38854 -48.0773 223.885 181 242 228
3.52306 -49.2619 222.878 184 236 242
3.81591 -52.0415 220.75 75 154 127
3.71565 -52.1309 220.71 132 216 191
3.51822 -51.0513 221.576 203 246 237
2.74724 -44.2369 224.874 165 208 255
3.21511 -51.3503 221.5 95 170 154
2.22135 -43.8727 225.551 171 215 255
3.18254 -52.28 220.814 167 229 205
2.8074 -52.9135 220.417 188 237 255
1.70494 -46.9927 225.451 148 213 191
1.26887 -43.0552 226.318 245 237 248
1.30756 -46.5303 225.989 98 138 167
0.354761 -41.525 229.821 217 247 252
2.25408 -54.2691 219.276 164 219 228
-0.0968659 -42.1759 229.352 134 206 163
-0.182046 -42.2523 229.421 56 107 73
0.329495 -43.9374 226.482 129 120 163
0.89179 -48.4342 224.415 118 158 146
0.227425 -43.7843 226.576 82 64 63
0.829791 -48.3805 224.459 110 140 121
0.127086 -43.8319 226.605 204 238 254
0.0435056 -43.9119 226.539 183 210 255
0.154733 -44.7273 225.355 160 200 255
0.518339 -48.9599 224.094 126 158 139
-0.848448 -42.9654 228.993 182 244 232
0.383988 -49.1241 224.046 170 239 229
-0.104022 -45.7679 225.052 208 242 255
-1.12436 -44.5374 226.178 167 207 255
11.7416 -46.2319 222.164 167 231 231
11.4976 -46.1469 222.254 198 252 239
11.4724 -46.0539 222.306 82 149 134
11.3566 -47.2316 221.47 90 146 157
11.2299 -48.0975 220.752 98 163 154
10.7952 -50.3958 218.641 52 86 80
10.9984 -48.9602 219.952 127 162 165
10.7409 -49.9269 219.065 141 203 219
11.0584 -47.4817 221.344 80 149 139
10.9728 -47.3243 221.532 105 157 180
10.5751 -47.6441 221.496 99 150 166
10.4164 -48.504 220.762 175 225 243
10.6611 -45.2009 223.193 106 169 149
10.3362 -44.3174 223.911 52 134 169
9.55408 -43.5573 222.656 135 155 190
9.39907 -43.636 222.705 199 220 248
9.3723 -45.8117 222.969 184 233 255
8.98635 -43.3687 223.146 119 134 160
8.90639 -43.5987 222.937 135 157 199
8.8171 -43.3969 223.16 139 148 181
9.08085 -48.7532 221.185 212 243 242
8.65263 -42.9246 223.608 151 171 206
8.63123 -43.3003 223.36 178 209 242
8.3369 -43.561 223.278 138 157 202
8.32534 -43.8966 223.049 187 219 248
8.56846 -48.6741 221.541 237 252 255
8.17039 -41.7825 224.826 180 191 223
8.04157 -43.7359 222.903 187 220 246
8.04279 -43.5351 223.451 160 165 196
8.03051 -42.6761 224.142 136 144 173
8.32713 -47.9697 222.21 168 206 211
8.11886 -47.4973 222.653 124 180 175
7.7218 -43.0755 223.935 156 168 208
7.95704 -51.0602 219.757 167 216 230
7.45455 -45.7954 221.837 162 195 241
7.46002 -44.9631 223.021 154 221 255
7.32211 -45.9685 221.805 167 199 240
7.23134 -43.2615 223.977 131 138 171
7.55673 -49.1325 221.559 162 202 221
7.54872 -49.2783 221.434 213 245 240
7.44314 -49.178 221.532 165 201 217
7.01781 -46.6162 221.62 64 87 167
6.90704 -43.7223 223.84 204 225 252
7.13592 -48.7435 222.033 157 206 208
7.12801 -48.9759 221.848 227 255 254
7.08862 -48.4658 222.301 214 249 245
7.01048 -48.163 222.633 175 212 210
6.55153 -44.3553 223.117 192 229 255
6.56837 -44.4627 223.139 191 233 255
6.51052 -44.104 223.253 116 155 223
6.88849 -48.8185 222.188 248 255 254
6.44191 -44.1132 223.292 119 144 218
6.47662 -43.3756 224.255 158 192 246
6.84662 -48.287 222.543 85 169 144
6.44014 -43.4485 224.147 53 66 142
6.41928 -42.8706 224.875 121 149 214
6.41054 -43.1982 224.606 173 201 248
6.33284 -44.0343 223.376 68 89 171
6.37265 -43.1833 224.67 80 93 139
6.29787 -44.1341 223.34 109 140 219
6.28767 -43.5742 224.074 155 190 246
6.28264 -42.7587 225.015 222 244 255
6.65936 -48.0558 222.801 92 173 146
6.22172 -43.2112 224.683 165 203 255
6.4861 -48.14 222.855 86 160 142
6.01075 -44.1593 223.405 139 176 234
6.36182 -47.4805 223.365 185 245 239
6.22506 -46.859 223.838 85 152 131
5.87331 -44.8153 223.337 93 120 206
6.23706 -49.7518 221.593 88 160 154
5.66425 -41.1508 226.115 96 114 197
6.23367 -50.3681 221.118 189 235 236
6.05724 -46.1969 224.39 70 77 94
5.62136 -41.2631 226.133 175 219 255
6.15495 -49.5077 221.802 74 131 132
5.97196 -46.2518 224.302 165 227 227
5.80236 -47.3046 223.711 67 115 97
5.38551 -44.8795 223.483 86 110 192
5.70288 -49.6174 221.864 200 231 255
5.57204 -50.8586 220.959 144 186 185
5.50541 -52.3892 219.731 222 251 255
4.77884 -45.1308 223.603 203 247 255
5.22578 -51.8037 220.371 56 134 110
4.99712 -51.6557 220.588 100 168 157
4.13731 -43.3932 225.423 189 238 246
4.60499 -51.05 220.899 147 234 184
4.61837 -51.1759 220.847 76 147 130
3.98422 -44.828 224.025 211 249 255
4.45919 -50.4035 221.599 118 169 155
4.43897 -50.6728 221.331 87 174 141
4.54522 -51.8538 220.283 51 93 68
4.59955 -53.3263 219.081 54 73 52
4.57327 -53.0798 219.254 242 255 252
4.37705 -52.0808 220.224 163 230 209
4.48564 -53.4137 219.098 70 153 115
4.37061 -52.3835 219.995 205 236 233
4.27851 -51.821 220.463 81 147 135
3.70623 -46.6476 224.915 234 255 254
3.58482 -46.0923 225.457 223 252 255
3.43965 -44.7825 224.183 219 250 255
3.99622 -52.0493 220.67 46 133 100
4.05608 -53.1217 219.662 65 142 104
3.81523 -52.0425 220.751 75 154 127
3.37483 -48.9052 223.234 64 107 92
3.71577 -52.1318 220.712 132 216 191
3.49707 -50.8297 221.767 198 238 227
3.4983 -50.9513 221.732 86 166 149
3.38771 -50.8778 221.718 94 170 146
3.36034 -50.8606 221.752 168 240 220
2.54698 -43.9287 225.373 167 204 255
2.43728 -43.6525 225.771 177 215 255
3.18402 -51.9321 221.071 74 146 126
1.57014 -44.786 224.819 113 158 231
1.58964 -46.7844 225.726 178 213 253
1.36502 -46.7277 225.785 143 209 198
0.356951 -41.524 229.808 217 247 252
1.06735 -45.3511 224.819 108 156 234
0.672003 -43.5719 226.402 165 210 255
2.25624 -54.264 219.275 164 219 228
-0.0944334 -42.17 229.397 121 191 151
-0.0704293 -42.2766 229.336 129 188 150
0.886463 -48.4501 224.464 118 158 147
1.89222 -53.7659 219.955 180 222 251
1.75455 -53.2317 220.481 87 154 147
0.826086 -48.3877 224.475 135 163 143
1.87993 -54.1504 219.514 97 144 158
1.04882 -51.0181 222.336 131 177 201
-0.0604858 -44.2317 226.154 150 204 255
-0.198885 -43.9226 226.689 71 71 117
0.508752 -48.9846 224.16 127 166 150
-0.310193 -44.2481 226.229 156 211 255
-0.103164 -45.7671 225.053 204 242 255
-0.956906 -45.4934 225.381 120 163 236
-1.37786 -44.0716 226.902 83 97 156
-1.02334 -45.6286 225.361 110 159 233
10.943 -50.3572 218.59 112 177 162
10.6002 -51.2554 217.944 107 152 186
10.7049 -50.3403 218.713 74 91 118
10.5414 -49.4129 219.787 156 210 251
10.5225 -47.2896 221.663 93 150 147
9.2986 -43.087 223.204 140 155 194
8.69769 -43.2078 223.389 175 220 253
8.62602 -43.3667 223.264 137 151 187
8.62531 -43.2982 223.337 174 205 238
8.51131 -43.2751 223.378 144 153 196
8.33955 -43.5614 223.287 135 150 196
7.88623 -43.1401 223.822 130 152 194
8.12286 -47.524 222.679 132 197 188
7.12504 -48.9728 221.838 227 255 254
6.99936 -48.153 222.656 146 196 192
6.90811 -48.808 222.146 252 254 254
6.47485 -42.3092 225.062 90 126 204
6.26418 -46.7596 223.9 110 183 145
5.98156 -46.1637 224.526 236 250 255
4.92857 -41.2376 226.615 113 145 221
5.5589 -53.386 218.546 65 122 113
5.43034 -52.5508 219.65 52 108 85
5.31117 -53.0967 219.044 63 121 110
5.18765 -51.6848 220.536 68 143 115
4.68273 -53.4329 218.829 214 235 237
4.56972 -52.5013 219.771 255 255 254
4.57121 -53.0724 219.241 242 253 250
4.6011 -53.3519 219.114 55 73 56
4.36972 -52.3795 219.988 205 236 233
3.70574 -46.6413 224.889 226 255 253
4.21271 -51.5784 220.647 69 139 109
3.51607 -49.3643 222.754 69 103 97
3.69563 -50.9579 221.615 95 169 157
3.96469 -53.8879 219.089 85 129 130
3.46262 -50.7985 221.795 209 252 249
3.03045 -52.7045 220.55 150 222 240
1.02763 -42.1462 229.118 150 223 231
1.61658 -46.7882 225.691 173 218 255
1.59962 -46.8568 225.614 48 89 81
1.48579 -46.7118 225.896 124 220 196
2.37351 -54.1894 219.313 175 213 247
-0.0679044 -42.1075 229.413 49 69 46
-0.164586 -42.2715 229.421 54 85 58
2.08526 -54.2093 219.419 158 206 242
0.777323 -48.325 224.563 47 75 56
0.676863 -49.061 223.884 133 173 162
0.679915 -49.0517 223.858 108 148 137
-0.811961 -42.7689 229.192 48 69 61
-1.49643 -42.3119 229.454 226 253 249
-0.838639 -47.6535 225.778 53 111 86
-1.33392 -47.7397 225.897 35 86 59
10.7268 -51.2239 217.782 178 221 254
11.0903 -48.8943 219.958 65 84 87
11.0319 -48.9417 219.989 130 177 185
11.3553 -46.1823 222.293 98 170 157
10.7087 -50.3238 218.727 56 77 99
10.7386 -50.3796 218.784 73 84 116
10.9452 -48.9888 220.038 58 64 69
10.1259 -51.8151 217.757 128 169 202
10.1489 -51.2539 218.188 170 214 238
10.1671 -50.2202 219.265 218 246 247
8.80514 -43.0341 223.434 146 163 189
8.61629 -47.7754 222.156 149 188 203
7.50435 -49.1596 221.495 231 244 252
7.03219 -43.5405 223.917 158 170 198
6.67583 -43.556 223.94 86 77 87
6.60277 -42.7906 224.754 198 230 255
6.46401 -43.1593 224.533 152 185 201
6.48029 -42.9003 225.045 132 152 199
6.73465 -48.5453 222.29 87 149 125
6.28343 -43.1821 224.671 171 208 236
6.06419 -46.7251 223.911 44 66 47
6.14449 -49.5746 221.736 86 152 147
5.97792 -46.1598 224.503 235 254 255
5.50445 -52.393 219.725 216 239 235
5.38522 -50.8182 221.21 117 177 167
5.18634 -51.6867 220.536 57 134 106
4.52905 -51.8595 220.281 60 89 73
4.32936 -50.2431 221.859 60 132 109
4.64066 -53.4415 218.856 57 81 69
4.16102 -50.9736 221.095 85 142 121
-1.2451 -22.2756 749.413 218 232 230
3.41942 -50.8577 221.726 88 160 130
1.5677 -44.7729 224.795 99 149 231
1.64501 -46.876 225.503 32 87 68
0.365142 -41.2456 230.114 166 182 198
2.23394 -54.0869 219.587 132 193 207
2.02959 -54.0509 219.739 123 167 184
11.0168 -48.9365 219.999 130 180 186
10.9493 -48.9888 220.044 58 64 69
10.7169 -50.3279 218.74 69 77 94
8.50534 -48.6641 221.305 253 255 254
7.47256 -43.6464 223.747 149 165 202
7.51329 -49.1547 221.612 255 254 255
7.11468 -48.2367 222.487 155 210 201
7.03245 -47.8623 222.88 255 255 255
6.48289 -45.0902 223.057 216 248 255
6.23954 -42.695 225.161 215 249 255
5.65388 -41.1706 226.261 137 169 234
6.06165 -46.7277 224.176 43 62 43
4.12171 -51.3903 220.721 197 224 221
3.92395 -51.1754 221.331 28 52 40
3.55999 -49.4901 222.853 202 232 233
3.79648 -53.7342 219.294 63 92 83
0.354954 -41.468 229.783 234 253 255
-0.145174 -42.0394 229.604 51 73 49
0.180238 -43.7285 226.664 40 37 39
-0.794341 -42.7466 229.191 58 75 64
0 1 255 0 0
0 2 255 0 0
0 3 255 0 0
0 4 255 0 0
1 2 255 0 0
2 3 255 0 0
3 4 255 0 0
4 1 255 0 0
5 6 255 0 0
5 7 255 0 0
5 8 255 0 0
5 9 255 0 0
6 7 255 0 0
7 8 255 0 0
8 9 255 0 0
9 6 255 0 0
