ply
format ascii 1.0
element vertex 412
property float x
property float y
property float z
property uchar blue
property uchar green
property uchar red
end_header
0 0 0 178 211 207
0 0 0 89 159 142
0 0 0 171 185 179
0 0 0 49 89 77
0 0 0 165 183 176
-19.3601 8.51313 36.9744 136 198 168
0 0 0 61 100 85
0 0 0 133 176 161
-14.5567 -16.0087 38.1833 122 175 161
0 0 0 101 138 160
0 0 0 92 135 122
0 0 0 64 84 79
0 0 0 137 200 180
0 0 0 64 117 104
0 0 0 178 227 219
0 0 0 92 156 144
0 0 0 67 121 108
0 0 0 95 151 162
0 0 0 77 120 109
-15.0665 -6.88341 34.1003 83 139 126
-15.9418 -6.71349 35.6532 100 154 137
0 0 0 126 132 131
0 0 0 71 116 97
-15.9705 -4.75677 36.1266 80 137 128
0 0 0 96 130 124
0 0 0 113 163 215
0 0 0 97 143 144
0 0 0 94 151 143
0 0 0 88 111 103
0 0 0 93 110 107
0 0 0 94 148 143
0 0 0 82 136 143
0 0 0 88 138 128
-16.5602 -0.878256 36.8938 83 126 129
0 0 0 129 167 169
0 0 0 78 114 108
-17.6254 0.776942 30.6414 116 169 159
0 0 0 146 186 181
0 0 0 147 189 182
0 0 0 129 171 164
0 0 0 122 171 157
0 0 0 103 124 122
0 0 0 90 143 130
0 0 0 94 135 130
0 0 0 85 90 89
0 0 0 174 227 214
0 0 0 157 188 185
0 0 0 66 71 69
0 0 0 86 129 126
0 0 0 164 213 235
0 0 0 105 135 130
-18.5627 8.71373 38.904 127 134 137
-19.4095 7.84892 35.1999 104 168 156
-19.1549 9.22615 38.378 80 107 98
0 0 0 70 111 106
0 0 0 101 166 141
0 0 0 83 127 110
-16.064 -13.4359 31.2251 110 172 150
0 0 0 114 168 155
0 0 0 80 129 127
0 0 0 117 169 159
-14.3193 -15.7505 37.4826 141 193 183
-13.9546 -15.5159 36.9477 66 98 87
0 0 0 148 189 198
0 0 0 112 177 151
0 0 0 91 148 149
0 0 0 79 138 130
0 0 0 83 124 139
-14.3431 -14.2761 37.5092 96 152 139
0 0 0 86 120 136
0 0 0 92 135 122
0 0 0 108 158 181
-14.482 -11.5693 40.6269 197 231 231
0 0 0 63 116 102
0 0 0 197 232 228
0 0 0 150 212 196
0 0 0 60 111 91
0 0 0 94 152 158
0 0 0 151 188 186
-18.091 -5.67127 24.8585 94 147 138
-13.9214 -8.93216 40.307 85 121 121
0 0 0 101 113 117
0 0 0 90 139 123
0 0 0 120 128 127
0 0 0 77 120 107
0 0 0 69 114 97
0 0 0 102 156 143
0 0 0 80 137 122
-15.009 -5.79975 40.8531 96 156 146
0 0 0 102 156 151
0 0 0 96 143 127
0 0 0 95 102 111
0 0 0 77 109 104
0 0 0 85 148 139
-16.127 -4.02579 33.9381 92 151 131
0 0 0 79 125 113
0 0 0 107 156 134
0 0 0 150 206 183
0 0 0 141 195 172
0 0 0 125 164 156
0 0 0 124 165 157
0 0 0 101 122 114
0 0 0 143 199 188
0 0 0 113 123 130
0 0 0 104 158 153
0 0 0 65 77 77
0 0 0 115 176 166
0 0 0 171 195 201
0 0 0 94 112 111
0 0 0 125 164 156
0 0 0 132 172 161
0 0 0 95 124 115
-16.885 -1.25593 31.025 112 148 142
0 0 0 74 125 117
-16.6722 -1.06186 35.7542 83 120 116
0 0 0 84 131 123
0 0 0 98 158 148
0 0 0 127 168 163
0 0 0 50 72 53
0 0 0 76 104 98
0 0 0 88 137 109
-17.7321 0.782996 30.8377 116 169 159
0 0 0 74 130 125
0 0 0 83 140 131
0 0 0 146 186 181
0 0 0 207 226 223
0 0 0 95 148 138
0 0 0 61 71 71
0 0 0 108 130 128
0 0 0 92 146 133
-18.6689 2.76068 30.3136 207 234 238
0 0 0 97 143 131
-18.3404 3.02327 31.0005 207 240 243
0 0 0 98 152 145
0 0 0 108 129 126
0 0 0 111 161 157
0 0 0 77 108 107
0 0 0 114 136 134
0 0 0 114 135 133
0 0 0 75 66 56
-18.8194 7.6186 36.0605 123 163 162
0 0 0 163 217 210
-19.4157 8.06667 36.4223 111 164 155
-19.5574 7.8408 34.7 94 139 122
-19.0474 8.91657 37.847 114 144 145
-19.2629 8.61857 36.2926 147 225 194
0 0 0 75 101 85
0 0 0 122 178 143
0 0 0 83 131 125
0 0 0 149 199 195
0 0 0 125 179 149
0 0 0 104 162 138
0 0 0 119 172 169
-16.5753 -11.891 27.5589 67 96 81
-15.9576 -13.343 31.0051 110 169 148
0 0 0 69 119 117
0 0 0 104 153 185
0 0 0 111 176 167
0 0 0 84 123 121
0 0 0 108 149 164
-14.347 -15.7835 37.5605 141 193 183
0 0 0 130 198 175
0 0 0 69 110 102
0 0 0 46 108 96
0 0 0 96 125 139
0 0 0 91 139 143
-13.9004 -15.3459 38.0616 87 138 124
0 0 0 115 150 190
0 0 0 85 141 142
0 0 0 90 116 140
0 0 0 97 131 130
0 0 0 114 166 173
0 0 0 84 122 127
0 0 0 84 158 152
0 0 0 128 144 156
0 0 0 126 164 206
0 0 0 85 118 121
0 0 0 81 127 115
0 0 0 97 159 159
0 0 0 61 84 99
0 0 0 113 159 153
0 0 0 97 100 98
0 0 0 89 142 132
0 0 0 74 139 124
0 0 0 76 126 126
0 0 0 74 122 110
0 0 0 99 152 143
0 0 0 82 132 155
0 0 0 118 174 153
0 0 0 111 139 150
0 0 0 170 194 192
0 0 0 58 108 96
0 0 0 60 113 99
0 0 0 73 125 108
0 0 0 77 132 123
-14.17 -9.7513 39.9416 83 133 121
-14.4093 -9.75464 41.0049 65 129 110
0 0 0 174 209 205
0 0 0 83 132 116
0 0 0 90 141 133
-15.0011 -6.93455 36.1412 116 168 161
0 0 0 90 127 117
0 0 0 113 166 199
0 0 0 115 148 141
0 0 0 85 151 139
0 0 0 82 136 123
0 0 0 122 174 157
0 0 0 143 170 166
0 0 0 80 114 90
0 0 0 69 114 97
0 0 0 90 121 114
0 0 0 68 98 85
0 0 0 144 178 177
0 0 0 65 110 84
0 0 0 64 112 94
0 0 0 114 142 136
0 0 0 63 101 89
0 0 0 170 199 203
0 0 0 132 186 169
0 0 0 84 88 93
0 0 0 95 149 132
0 0 0 91 143 119
0 0 0 130 153 155
0 0 0 90 133 120
0 0 0 106 148 141
0 0 0 114 163 141
0 0 0 68 97 81
0 0 0 117 155 143
0 0 0 129 168 160
0 0 0 103 136 132
0 0 0 123 204 185
0 0 0 101 141 139
0 0 0 126 189 173
0 0 0 164 200 194
0 0 0 65 98 84
0 0 0 115 173 168
0 0 0 174 200 206
0 0 0 75 112 96
0 0 0 90 131 126
0 0 0 87 129 122
0 0 0 124 196 166
0 0 0 135 186 178
0 0 0 129 169 157
0 0 0 92 141 127
0 0 0 77 129 122
0 0 0 101 124 120
0 0 0 94 146 139
0 0 0 58 63 64
0 0 0 124 167 152
0 0 0 70 114 107
0 0 0 84 131 123
0 0 0 181 215 215
0 0 0 97 143 130
0 0 0 50 72 53
0 0 0 99 136 120
0 0 0 109 149 147
0 0 0 75 129 112
0 0 0 159 197 199
0 0 0 64 123 109
0 0 0 104 157 147
0 0 0 164 201 199
0 0 0 113 147 146
0 0 0 100 159 151
0 0 0 90 127 125
0 0 0 83 136 126
0 0 0 78 115 107
0 0 0 188 223 226
0 0 0 95 156 142
0 0 0 83 125 114
0 0 0 68 82 78
0 0 0 158 197 195
0 0 0 174 229 214
0 0 0 91 136 127
-17.7708 4.67057 38.5139 199 242 233
0 0 0 78 115 105
0 0 0 82 113 138
0 0 0 95 151 140
0 0 0 189 225 225
0 0 0 155 197 250
0 0 0 131 214 189
0 0 0 95 151 140
0 0 0 98 141 138
0 0 0 140 167 163
0 0 0 89 160 144
0 0 0 120 147 181
0 0 0 68 75 68
0 0 0 86 145 137
-19.3518 8.45839 37.9129 110 167 158
-19.6344 7.87531 34.8437 96 140 123
-16.4254 -12.6958 28.9004 81 106 92
0 0 0 139 172 168
0 0 0 72 119 111
0 0 0 41 60 51
0 0 0 107 165 140
0 0 0 40 64 52
-16.225 -12.5255 28.8754 71 106 92
0 0 0 136 190 197
0 0 0 115 170 167
-15.6573 -13.417 31.2588 88 131 118
0 0 0 114 182 165
0 0 0 77 139 125
0 0 0 73 116 107
0 0 0 63 113 111
0 0 0 83 128 125
0 0 0 64 106 99
0 0 0 151 193 198
-14.2192 -15.3894 36.9135 95 135 124
0 0 0 89 115 122
0 0 0 125 178 198
0 0 0 118 158 183
0 0 0 88 145 137
-16.6773 -11.0467 26.9336 93 127 120
0 0 0 151 205 222
0 0 0 97 141 134
0 0 0 98 132 131
0 0 0 77 120 117
0 0 0 83 122 131
0 0 0 116 149 145
0 0 0 159 187 188
0 0 0 111 129 140
0 0 0 86 120 136
0 0 0 79 125 132
0 0 0 114 151 143
0 0 0 73 116 105
0 0 0 69 89 76
0 0 0 81 112 111
0 0 0 68 81 73
0 0 0 79 129 117
-14.1712 -11.3081 39.5945 188 220 225
0 0 0 67 78 75
0 0 0 91 105 101
0 0 0 67 132 111
0 0 0 67 126 105
0 0 0 83 122 114
0 0 0 81 137 116
0 0 0 83 125 118
0 0 0 134 171 167
0 0 0 66 104 92
0 0 0 73 111 89
0 0 0 113 165 141
0 0 0 151 182 181
0 0 0 78 124 105
0 0 0 78 85 88
0 0 0 111 128 124
0 0 0 112 143 136
0 0 0 111 166 147
0 0 0 150 175 177
0 0 0 77 121 98
0 0 0 138 173 176
0 0 0 134 197 181
0 0 0 85 96 100
0 0 0 155 183 183
0 0 0 97 144 122
0 0 0 41 48 33
0 0 0 152 177 179
0 0 0 90 138 120
0 0 0 49 61 43
0 0 0 84 102 101
-16.1168 -4.02415 33.9307 94 157 137
0 0 0 120 185 164
0 0 0 107 157 133
0 0 0 121 162 147
0 0 0 88 124 112
0 0 0 76 102 89
0 0 0 143 197 184
0 0 0 91 121 116
0 0 0 132 171 163
0 0 0 150 188 182
0 0 0 108 179 159
0 0 0 79 113 103
0 0 0 74 100 100
0 0 0 61 110 94
0 0 0 77 104 100
0 0 0 79 98 95
0 0 0 97 115 116
0 0 0 87 121 110
0 0 0 59 67 50
0 0 0 135 169 169
0 0 0 149 178 182
0 0 0 59 66 69
0 0 0 89 110 102
0 0 0 166 191 195
0 0 0 105 154 146
0 0 0 169 199 204
0 0 0 190 215 219
0 0 0 158 199 194
0 0 0 188 217 214
0 0 0 95 151 140
0 0 0 127 140 154
0 0 0 179 211 210
0 0 0 76 137 123
0 0 0 98 135 131
0 0 0 170 199 204
0 0 0 181 206 208
0 0 0 103 147 140
0 0 0 140 181 176
0 0 0 117 167 155
0 0 0 82 119 111
0 0 0 160 199 197
0 0 0 130 156 156
0 0 0 96 129 122
0 0 0 83 131 119
0 0 0 151 207 232
0 0 0 83 118 108
0 0 0 174 200 212
0 0 0 89 114 110
0 0 0 180 216 255
0 0 0 86 129 120
0 0 0 110 161 154
0 0 0 151 176 172
0 0 0 139 177 212
0 0 0 155 180 182
