ply
format ascii 1.0
element vertex 1284
property float x
property float y
property float z
property uchar blue
property uchar green
property uchar red
end_header
-0.679931 -1.42562 3.27024 167 199 194
-0.768048 -1.40557 3.26522 61 87 71
-0.510486 -1.40784 3.29943 105 146 155
-0.707056 -1.39013 3.27254 149 202 189
-0.596017 -1.38983 3.29525 150 213 197
-0.800062 -1.35696 3.27133 120 148 135
-0.596732 -1.35661 3.29734 166 233 218
0.208865 -1.37429 3.38417 129 173 172
-0.172494 -1.33693 3.34863 101 153 135
-0.826934 -1.30207 3.2753 159 215 204
-0.789829 -1.30067 3.27865 160 204 197
-0.161573 -1.31733 3.36316 110 160 160
0.18769 -1.3275 3.39641 147 198 190
0.272841 -1.3307 3.4117 133 158 168
-1.56784 -1.20444 3.19419 106 147 156
0.201493 -1.21664 3.41673 123 146 148
0.16787 -1.1865 3.41143 200 230 225
0.164532 -1.18031 3.40559 115 129 125
0.16154 -1.13258 3.41471 215 233 226
-0.249654 -1.10664 3.36893 107 174 159
0.162712 -1.12021 3.41163 179 214 217
-1.55403 -1.04255 3.21844 144 212 195
0.173693 -1.10259 3.41824 197 221 221
-1.57921 -1.00636 3.22292 139 175 159
-1.56208 -0.997615 3.22779 101 142 137
0.181446 -1.05772 3.42705 129 191 185
-1.62259 -0.984269 3.22235 162 196 190
0.0245993 -1.03738 3.40563 86 154 129
-0.0353577 -1.02125 3.39972 86 129 120
-0.038762 -1.01445 3.399 164 216 206
-0.0308743 -1.0086 3.40448 93 132 117
0.146339 -0.985436 3.4245 136 165 162
0.16542 -0.959554 3.43342 212 226 225
0.02522 -0.954458 3.4217 155 204 190
0.176093 -0.948968 3.43133 125 133 133
0.142241 -0.938535 3.4306 82 83 81
0.147853 -0.938076 3.43203 177 191 187
0.161159 -0.938808 3.43258 214 229 225
-1.61373 -0.883356 3.23595 155 214 199
0.142332 -0.938513 3.43182 82 83 81
0.220306 -0.937226 3.43728 117 127 137
0.0162475 -0.927399 3.42064 160 207 181
0.0424753 -0.913809 3.41061 163 206 179
0.150265 -0.901931 3.43584 221 232 222
0.0503884 -0.526716 2.0168 117 118 122
-0.346344 -0.809793 3.11074 130 159 134
0.385827 -0.89717 3.47002 117 172 163
-1.85767 -0.768233 2.99294 181 213 194
0.142093 -0.875996 3.4352 102 128 140
0.043211 -0.843008 3.41974 146 186 174
0.145463 -0.846473 3.44447 112 133 131
-0.371279 -0.752097 3.10594 153 195 170
0.0451947 -0.813265 3.41166 82 109 99
0.197601 -0.781107 3.45378 167 201 191
0.130827 -0.777893 3.44556 87 127 126
0.00305021 -0.698814 3.44113 110 177 162
0.0767213 -0.573205 2.95033 158 165 160
-0.142649 -0.647573 3.41602 163 206 195
-0.897915 -0.579662 3.14653 26 55 16
-1.69029 -0.573256 3.27183 88 144 133
0.160475 -0.600292 3.46764 189 224 220
0.130915 -0.584484 3.46405 160 176 188
-0.0110916 -0.570595 3.45052 90 147 144
0.140316 -0.537106 3.47108 119 158 166
0.15877 -0.479984 3.48434 126 152 164
0.0991354 -0.47752 3.47309 149 169 170
-0.105416 -0.446615 3.45737 165 233 208
-0.0917769 -0.445833 3.46109 98 161 145
0.0821434 -0.362423 3.48046 131 153 148
0.417775 -0.336843 3.53636 168 238 215
0.182723 -0.306027 3.50694 142 169 173
-0.461905 -0.286975 3.44118 157 227 214
-0.224654 -0.28617 3.46246 78 153 125
0.110434 -0.283545 3.49583 180 226 220
0.176826 -0.242586 3.50443 122 147 149
-0.481356 -0.235199 3.44485 176 231 236
0.176464 -0.239561 3.5071 182 204 210
0.069476 -0.213588 3.50638 129 142 144
-1.73834 -0.177179 3.32246 155 210 195
0.0653014 -0.185347 3.50452 70 97 88
-0.0766754 -0.168515 3.49027 70 137 106
-0.678466 -0.158057 3.4272 131 196 170
0.0705506 -0.159067 3.51239 217 242 232
-0.0912833 -0.151975 3.48434 106 143 127
-0.343807 -0.125524 3.47319 88 149 139
0.0829187 -0.106095 3.51339 184 206 212
0.0937683 -0.063458 3.53011 185 234 226
-0.37022 -0.0535369 3.48268 73 139 128
0.770923 -0.0240067 3.6144 73 145 132
0.464466 -0.0222263 3.57822 158 204 192
-0.0055666 -0.00593974 2.04955 60 96 102
-0.458732 -0.0073661 3.4803 202 239 243
0.0626441 0.000421204 3.52719 103 142 140
0 0 0 137 141 142
-0.227619 0.0258296 3.50561 63 137 113
-0.169341 0.0598271 3.50534 87 128 121
-0.605878 0.0999611 3.47481 105 131 138
-0.60544 0.100272 3.47578 100 126 133
0.217721 0.107398 3.56352 112 167 142
-0.391655 0.109123 3.50292 78 130 123
-0.222459 0.110075 3.50478 100 150 140
-0.104673 0.111464 3.52122 76 97 95
-0.154773 0.114632 3.51495 47 93 81
0.413458 0.122317 3.59166 126 162 138
-0.0750216 0.133364 3.53076 188 229 222
0.0491698 0.135798 3.54814 173 215 214
-0.0751172 0.166173 3.53661 158 203 184
-0.646929 0.195081 3.47615 210 235 245
0.401494 0.210271 3.60234 135 201 176
-0.351306 0.212205 3.51826 106 135 142
-0.571672 0.218374 3.49622 194 230 224
-0.588661 0.232667 3.49395 244 255 255
-0.602338 0.234873 3.49328 237 246 255
-0.247181 0.255322 3.5315 154 220 208
0.499959 0.260984 3.62356 91 165 153
-0.190236 0.264557 3.52634 55 101 82
-0.612991 0.263978 3.49461 205 218 220
-0.316694 0.275469 3.52637 189 228 236
-0.344756 0.322994 3.53868 250 255 255
-0.252108 0.325452 3.53543 71 111 164
-0.259245 0.328342 3.53419 83 104 142
-0.231117 0.354561 3.54799 176 212 250
0.161473 0.399066 3.60593 101 154 140
0.163165 0.552869 3.62202 85 140 121
0.118083 0.609196 3.62394 102 156 143
0.126725 0.631445 3.62802 132 187 160
0.280177 0.697857 3.65975 105 141 135
-0.0558631 0.741022 3.50995 108 169 149
0.0343549 0.881337 3.64452 101 123 129
-0.0323211 0.890475 3.64436 169 213 214
-0.306947 -1.43946 3.27965 171 208 200
0.474592 -1.49702 3.4086 149 221 208
-0.109704 -1.45372 3.34124 206 237 230
0.233913 -1.47072 3.38319 137 188 180
-0.135468 -1.42281 3.31569 148 180 185
-0.613788 -1.40892 3.28533 99 124 120
-0.833778 -1.39628 3.26104 173 230 222
-0.706871 -1.39034 3.27432 155 212 197
-0.639635 -1.32366 3.2972 148 205 190
-0.100236 -1.34103 3.34485 88 144 121
0.189493 -1.34863 3.39589 170 207 203
0.199853 -1.34801 3.39329 86 120 120
0.272767 -1.33063 3.41101 132 154 165
0.223876 -1.25091 3.41347 99 110 114
0.17641 -1.21344 3.41473 152 156 151
-1.75909 -1.12672 3.18521 156 197 190
-1.61807 -1.12852 3.19957 97 139 151
0.168975 -1.19636 3.41303 162 188 194
-1.58768 -1.11721 3.20135 106 133 129
-1.33747 -1.10614 3.23291 92 108 114
-0.763904 -1.12892 3.3063 100 144 138
-1.61242 -1.09204 3.20979 131 150 135
0.158944 -1.14571 3.41234 193 220 211
0.00627343 -1.11732 3.39144 102 141 126
0.162939 -1.12031 3.4146 187 226 228
-1.55823 -1.05204 3.22171 81 112 103
0.175108 -1.11167 3.4134 205 217 217
0.00896407 -1.09695 3.39129 125 168 155
0.176912 -1.09967 3.41206 200 222 220
-1.5798 -1.00636 3.22664 158 202 189
0.156602 -1.06495 3.41687 163 221 210
0.0240371 -1.03739 3.40573 91 158 137
-1.64467 -0.975153 3.2181 103 150 128
-0.0354187 -1.02126 3.40038 94 139 130
0.0916911 -0.983638 3.40333 127 156 153
-1.57793 -0.915321 3.23334 143 198 181
0.165421 -0.959558 3.43311 212 226 225
0.150215 -0.901907 3.43668 215 231 224
-1.71289 -0.825611 3.23293 100 133 119
-1.71397 -0.82003 3.23255 67 91 79
-0.809613 -0.814805 3.35375 62 84 65
0.0156298 -0.758368 3.42899 83 111 98
0.0186431 -0.730871 3.43714 110 152 145
0.00270631 -0.698914 3.44002 103 171 154
-0.966558 -0.574667 3.09865 62 104 69
-0.885233 -0.585757 3.14802 119 158 126
-0.948926 -0.533692 3.11281 115 177 137
0.337701 -0.585856 3.49685 104 171 162
0.114317 -0.574298 3.4658 173 215 222
-0.0958162 -0.481203 3.45352 157 224 209
0.0990774 -0.477352 3.47421 149 169 170
0.109767 -0.47296 3.4737 102 140 144
0.23769 -0.425057 3.50034 139 209 196
-0.519305 -0.396604 3.40841 97 116 99
0.95601 -0.322835 3.59507 114 174 166
-0.22479 -0.285882 3.46385 78 153 125
-0.0215506 -0.261072 3.47684 47 92 73
-0.481436 -0.235299 3.4444 176 231 236
0.0805665 -0.210904 3.50983 221 247 253
-0.390403 -0.198832 3.45967 83 140 125
0.064734 -0.19463 3.50654 70 93 85
-1.73409 -0.17849 3.31715 138 191 178
0.0710046 -0.179515 3.4945 157 189 194
0.0707602 -0.15881 3.51346 236 255 244
-0.0907166 -0.15186 3.48479 86 122 105
0.0587951 -0.151615 3.51416 185 222 220
0.124624 -0.149025 3.52268 147 203 184
-0.066571 -0.145267 3.48134 145 220 176
0.0560033 -0.137166 3.508 122 160 154
0.349685 -0.116495 3.55143 77 140 130
-0.672125 -0.070652 3.44571 116 137 135
-0.410417 -0.0683857 3.47932 99 169 163
0.465039 -0.022063 3.57881 158 204 192
-0.00566113 -0.0056848 2.05008 60 96 102
0.173422 0.0524888 3.54907 86 141 126
0.038386 0.0753363 3.5413 59 73 69
0.038256 0.0867309 3.53905 90 123 126
0.0349974 0.0906246 3.53086 123 149 149
-0.453254 0.0909039 3.48819 87 126 128
-0.242077 0.095442 3.50153 69 134 109
0.142541 0.109118 3.55386 90 130 118
-1.17497 0.0978692 3.10432 70 94 86
0.116442 0.118235 3.55078 193 231 225
-0.743385 0.126638 3.46473 134 138 139
-0.0749488 0.13496 3.53572 189 227 221
0.402315 0.199262 3.59972 166 211 195
0.130716 0.199835 3.56496 89 102 104
-0.662456 0.197779 3.47062 186 208 233
-0.624317 0.203473 3.4825 213 232 245
0.414376 0.20871 3.59666 148 205 180
-0.605965 0.211357 3.48719 71 93 105
-0.523366 0.213461 3.50442 227 243 242
-0.588734 0.233328 3.49582 248 253 254
-0.247091 0.256373 3.53445 167 233 221
0.412888 0.28199 3.61107 57 119 95
-0.23913 0.310319 3.53076 105 132 152
-0.254073 0.313397 3.53539 241 255 255
-0.305111 0.336315 3.53313 205 226 255
-0.282965 0.378778 3.54576 86 123 161
-0.136712 0.416405 3.57479 251 255 255
-0.132082 0.447769 3.56997 91 157 132
0.454146 0.503468 3.65029 87 148 138
0.454293 0.610172 3.66334 84 150 138
-0.235337 0.605402 3.5957 255 255 255
-0.00873178 0.628084 3.60876 89 140 132
0.0722285 0.662301 3.61991 94 104 98
-0.251492 0.777546 3.61811 245 254 255
0.149208 0.808468 3.66062 55 102 86
0.279935 0.810609 3.67491 95 144 136
-0.00890848 0.806884 3.60805 177 211 210
0.422616 0.926031 3.70442 85 138 128
0.900853 0.962768 3.77091 113 137 173
-1.97133 -1.36962 3.11071 101 133 116
-0.210149 -1.44596 3.30875 183 218 214
-0.665312 -1.42607 3.27254 94 108 104
0.450287 -1.48636 3.41742 136 183 174
-0.133539 -1.44006 3.3305 157 191 185
-0.556455 -1.41251 3.28488 128 168 167
0.216726 -1.45975 3.38853 106 139 132
0.234679 -1.46588 3.4017 142 167 163
-0.613818 -1.40902 3.28621 99 124 120
-0.804897 -1.39547 3.26955 151 195 164
-0.588327 -1.39246 3.2891 98 163 154
-0.593175 -1.38713 3.29008 163 225 211
-0.811773 -1.37201 3.26728 149 203 190
-0.594198 -1.38005 3.29543 113 146 139
-0.176282 -1.38841 3.31416 104 138 131
-0.742478 -1.35921 3.26967 126 170 157
-0.622842 -1.36692 3.29371 147 191 168
-0.600908 -1.36811 3.294 87 116 107
-0.238958 -1.37255 3.33195 123 156 142
-0.771723 -1.34294 3.27608 124 170 158
-0.707077 -1.34513 3.27744 149 210 190
-0.786695 -1.33613 3.27877 159 213 196
-0.6211 -1.34013 3.28707 137 183 184
0.19272 -1.36124 3.39456 182 220 232
-1.11494 -1.24518 3.25299 250 255 254
0.223658 -1.28803 3.40523 81 87 82
-1.55672 -1.20566 3.20172 83 130 151
-1.69864 -1.1803 3.17856 92 130 195
-1.65848 -1.14466 3.1891 189 218 223
0.0879907 -1.20537 3.35177 90 150 149
0.202276 -1.21638 3.41936 124 159 162
-1.67205 -1.13063 3.19071 190 210 211
0.106102 -1.17628 3.32461 119 162 135
-1.6395 -1.12991 3.19576 167 192 194
-1.61266 -1.1242 3.18787 92 137 148
-1.77254 -1.1165 3.17052 106 160 137
-1.61977 -1.12498 3.1969 161 206 209
-1.77801 -1.11687 3.18063 136 189 162
-1.79288 -1.11059 3.1833 105 147 122
-1.57141 -1.1179 3.21121 87 126 118
-1.85477 -1.10119 3.16894 123 163 145
-1.57052 -1.11793 3.21223 95 135 133
-0.763366 -1.12968 3.30992 97 136 134
0.111337 -1.14157 3.37403 89 139 127
0.187435 -1.15594 3.41915 123 125 136
-1.94425 -1.0615 3.17383 123 155 136
-1.20952 -1.08271 3.26981 103 172 157
-0.166936 -1.11312 3.37899 110 160 156
0.16344 -1.11708 3.41493 188 223 227
0.20921 -1.11866 3.42117 117 128 126
-1.55784 -1.05202 3.22099 81 112 103
-1.55246 -1.04233 3.21773 143 212 192
0.180526 -1.10497 3.40749 121 126 127
0.177324 -1.09976 3.41496 205 228 224
-1.58471 -1.03659 3.22006 133 165 148
0.162943 -1.09223 3.42129 81 111 106
0.135247 -1.07489 3.38699 93 110 101
0.0268733 -1.07839 3.40087 112 165 152
0.230843 -1.08202 3.42688 198 237 229
-1.60333 -1.01375 3.21852 136 156 137
-1.13796 -1.01856 3.27521 74 144 114
0.210894 -1.06356 3.42668 196 237 230
-0.119798 -1.04513 3.37941 146 187 172
-1.59927 -0.995551 3.22373 140 177 169
0.165525 -1.04423 3.42724 176 217 212
-1.63965 -0.976159 3.21269 101 163 141
0.164293 -1.04432 3.43329 170 207 199
-1.64223 -0.976121 3.21777 115 180 155
-1.88347 -0.884844 2.95971 150 183 149
-0.0403755 -1.0155 3.40702 153 206 192
-0.302301 -1.00209 3.372 78 123 106
0.57202 -1.03554 3.48359 92 153 143
-0.12493 -1.00468 3.39535 131 176 150
0.0143593 -1.00358 3.4013 108 163 154
-0.0512869 -0.999453 3.40068 118 168 158
-0.0922015 -0.995291 3.40025 130 171 173
-0.0807239 -0.998623 3.40281 133 170 166
0.150143 -1.00327 3.43176 192 220 221
-0.0680452 -0.988984 3.39221 128 183 166
-0.0361566 -0.993446 3.40299 161 222 212
-0.00173274 -0.995717 3.41753 101 135 111
-1.60123 -0.933825 3.22396 120 167 141
-1.57245 -0.934121 3.23428 103 144 137
-0.0582365 -0.9832 3.40431 130 169 154
0.156109 -0.986361 3.42157 227 245 244
-0.428628 -0.963769 3.35734 69 108 93
-0.00215523 -0.975219 3.41534 155 226 200
-0.425413 -0.955162 3.354 120 170 140
-1.58335 -0.912464 3.23536 92 150 132
0.449448 -0.977071 3.46886 84 145 135
-1.60967 -0.904309 3.2282 154 216 204
0.0959509 -0.949972 3.40319 86 130 147
0.0169683 -0.949894 3.40871 71 90 65
0.294879 -0.957021 3.44841 117 170 160
-0.304875 -0.935778 3.37638 137 189 165
0.597625 -0.963691 3.484 91 151 143
0.0936282 -0.931563 3.40894 80 131 134
0.148146 -0.937989 3.43086 188 208 203
-0.310082 -0.917348 3.37726 138 175 159
0.0152026 -0.930549 3.42833 123 171 147
0.147381 -0.929336 3.42883 93 89 88
0.05546 -0.908719 3.41272 132 190 172
0.0260509 -0.905192 3.40804 165 210 193
-1.29343 -0.863803 3.26788 105 158 144
-1.69296 -0.846469 3.22548 94 110 99
-1.65637 -0.848324 3.22807 106 127 118
-1.73332 -0.8355 3.22892 121 140 125
-1.2936 -0.848803 3.27848 73 133 122
0.0363219 -0.882785 3.4214 135 148 132
0.0333642 -0.85647 3.42052 118 130 118
-0.415774 -0.772738 3.09849 51 79 59
-1.77317 -0.801002 3.22696 133 192 171
0.0207328 -0.851908 3.42024 158 179 157
-1.75913 -0.799215 3.22987 171 228 213
-1.79306 -0.792455 3.22896 143 191 185
-1.65663 -0.797714 3.24358 89 151 139
-0.795328 -0.819519 3.3411 97 131 114
0.144292 -0.845302 3.43911 109 130 128
0.0451967 -0.831879 3.41563 81 105 95
0.0664146 -0.831962 3.41126 107 144 136
0.0434474 -0.82528 3.4241 163 215 198
0.0749683 -0.815858 3.40443 85 114 118
0.138625 -0.815979 3.44052 189 218 223
0.164696 -0.818146 3.4449 64 110 97
-0.801447 -0.790911 3.33922 123 177 154
0.0606263 -0.804752 3.4165 117 159 152
-0.312637 -0.724334 3.10569 159 197 179
-0.733559 -0.777016 3.35514 137 163 147
0.404536 -0.799006 3.47528 78 130 106
0.916969 -0.804295 3.5461 113 182 169
0.517429 -0.790427 3.49042 100 162 150
0.01666 -0.757942 3.43494 114 135 136
0.0132216 -0.746909 3.43935 119 168 160
0.353142 -0.737091 3.47691 112 153 148
0.126585 -0.728505 3.45408 177 214 212
0.654225 -0.730602 3.51591 90 157 142
0.129976 -0.71662 3.45205 184 223 221
0.00818778 -0.700053 3.44023 201 239 233
0.18056 -0.70624 3.45764 158 200 199
0.558261 -0.71594 3.50641 112 173 163
0.225544 -0.689596 3.46989 107 155 143
-1.44975 -0.648621 3.28657 90 161 144
1.02251 -0.68903 3.56552 79 132 122
1.22031 -0.689998 3.60211 146 189 208
-0.0702767 -0.654316 3.43038 162 234 214
-0.940909 -0.591189 3.10894 33 69 27
0.965759 -0.676759 3.5552 88 147 143
-0.13847 -0.641287 3.4106 63 82 67
-0.885531 -0.585536 3.14969 119 158 126
0.114155 -0.629642 3.45995 172 208 208
-1.01506 -0.562234 3.09218 124 188 146
-0.817768 -0.573287 3.16203 109 162 105
-0.940222 -0.537825 3.10479 35 83 54
-0.945526 -0.530796 3.11319 140 214 162
-0.160839 -0.584269 3.42872 210 255 249
0.205924 -0.581923 3.48512 91 107 113
0.337734 -0.585677 3.49836 104 171 162
0.132481 -0.579137 3.45784 189 226 230
0.221554 -0.575695 3.47426 99 151 144
0.134198 -0.564998 3.46279 194 226 231
0.104311 -0.546987 3.47061 89 128 120
-0.992243 -0.473515 3.08304 104 154 106
-1.01147 -0.450521 3.06899 45 78 34
-0.910304 -0.432756 3.08124 104 183 142
-1.0038 -0.401966 3.07825 98 167 116
-0.75799 -0.410779 3.1541 132 189 138
-0.305619 -0.431861 3.43529 77 144 129
-0.77891 -0.380743 3.16511 34 44 14
0.160716 -0.420067 3.48997 77 141 129
0.263053 -0.408606 3.50443 86 139 130
0.0913239 -0.390203 3.47688 105 145 143
0.08554 -0.383766 3.48205 150 213 203
-0.00235502 -0.362006 3.46744 95 137 130
0.115772 -0.362928 3.48227 250 251 249
0.0872201 -0.356118 3.48581 70 117 108
0.429821 -0.342082 3.52804 92 150 132
0.681217 -0.347328 3.56866 117 169 159
-1.0534 -0.291198 3.08068 17 79 43
0.0765175 -0.325437 3.48391 74 93 84
-0.032747 -0.32167 3.47578 69 142 120
-1.58274 -0.287357 3.31873 187 238 231
0.0786713 -0.30221 3.49476 160 213 199
0.0949584 -0.298912 3.50373 80 118 122
-1.002 -0.259696 3.1025 46 68 39
0.072731 -0.28325 3.48509 132 169 161
0.100917 -0.276589 3.49746 174 218 217
0.0903738 -0.276197 3.49328 99 126 122
-0.0212154 -0.26069 3.47863 41 86 67
-0.213696 -0.253366 3.46885 91 156 147
0.1794 -0.255144 3.51498 80 139 131
-1.6814 -0.231184 3.30802 115 166 159
0.0715434 -0.239289 3.49864 161 202 205
0.124397 -0.203395 3.51268 69 114 98
-1.72875 -0.18258 3.32319 55 80 66
-0.524206 -0.183047 3.42507 131 177 164
-0.559913 -0.175037 3.44059 119 179 145
-0.296879 -0.176033 3.47782 92 161 150
0.150381 -0.174904 3.5136 171 229 218
-0.0782415 -0.168984 3.48665 92 155 123
-1.70488 -0.156186 3.32644 47 84 64
-0.296208 -0.163479 3.46963 80 144 138
0.286913 -0.167696 3.53847 96 156 145
-0.0816042 -0.159899 3.48546 148 209 175
-1.81368 -0.151287 3.31671 142 198 179
-0.0900793 -0.142607 3.48255 67 102 88
0.111607 -0.143466 3.51238 185 205 206
0.152163 -0.142223 3.52095 74 138 126
0.678474 -0.139547 3.593 97 158 148
-0.0520151 -0.127255 3.48284 91 137 125
0.0911655 -0.128531 3.50733 89 98 95
0.162454 -0.123808 3.52551 97 139 122
0.0642235 -0.118127 3.51782 139 143 144
0.349326 -0.11685 3.55002 77 140 130
-0.655797 -0.108512 3.44059 162 206 205
-0.688633 -0.105781 3.43647 153 215 179
0.0839071 -0.10463 3.51679 201 218 227
-0.717362 -0.0981641 3.43312 123 156 142
0.186851 -0.102573 3.52888 69 125 114
-0.763212 -0.0952896 3.42926 103 152 130
-0.63634 -0.0950868 3.44169 141 199 175
-0.697883 -0.0873161 3.43485 153 190 174
-0.712499 -0.0856106 3.43509 110 131 123
-0.656897 -0.0799067 3.43936 142 174 179
-0.157002 -0.0823071 3.49452 90 144 131
-0.653499 -0.0740285 3.44885 113 136 132
-0.671666 -0.0709397 3.44463 116 137 139
-0.434585 -0.067782 3.4699 76 145 124
0.420704 -0.0659773 3.56809 116 151 155
-0.370309 -0.054208 3.48065 73 139 128
0.0144299 -0.047715 3.08774 136 146 176
0.0601077 -0.0560701 3.52489 186 227 229
-0.190667 -0.0521048 3.49649 179 228 212
0.0561561 -0.0497011 3.52605 99 143 144
-0.766871 -0.0458166 3.44091 126 150 142
-0.465246 -0.0403758 3.47069 108 162 162
-0.46369 -0.0392891 3.47457 83 130 138
-0.49568 -0.0393386 3.4703 88 121 130
0.786361 -0.0318941 3.6148 84 139 130
0.163295 -0.0161077 3.53344 99 131 137
-0.203337 -0.013277 3.49387 57 132 110
0.0989431 -0.00810757 3.52614 89 123 117
-0.0567165 -0.00530478 3.51327 58 90 79
-0.112374 0.000798779 3.50451 96 145 123
0.24535 0.0196644 3.55455 72 112 100
-0.602677 0.0234386 3.47071 84 88 89
0.0622194 0.0276666 3.53219 180 238 237
0.226031 0.0243286 3.54779 49 95 73
-0.180015 0.0281759 3.504 160 247 209
0.0876111 0.0320286 3.53376 78 89 86
0.101036 0.0325166 3.53227 165 193 200
0.296053 0.0318061 3.56275 84 147 127
0.103191 0.0339534 3.53713 172 203 206
-0.237193 0.0408385 3.49999 93 152 132
-0.634948 0.0482917 3.46563 110 110 110
0.173304 0.0524893 3.54908 86 141 126
0.313777 0.0526151 3.56127 90 136 123
1.21087 0.0628949 3.67306 112 182 165
-0.108784 0.0650207 3.50924 85 138 129
0.247708 0.066486 3.55812 72 110 88
-0.107874 0.0680409 3.51916 87 138 134
0.0411915 0.0683947 3.54347 158 187 194
0.245555 0.0769074 3.5539 50 86 69
0.253074 0.0830112 3.56321 68 133 108
-0.453318 0.0920215 3.49176 83 124 126
-0.344573 0.113921 3.50947 96 158 152
-0.154106 0.11595 3.5215 73 116 107
0.116325 0.11913 3.55362 184 228 221
-0.645934 0.119826 3.47679 68 67 69
0.32299 0.120748 3.57764 159 212 198
0.2104 0.124031 3.56105 174 226 209
0.447802 0.123578 3.59649 98 150 133
-0.65053 0.124609 3.47428 176 174 174
-0.140128 0.128378 3.51924 90 128 128
0.563508 0.132304 3.61132 73 133 122
-0.0889324 0.134454 3.52093 169 227 209
-0.0877553 0.135407 3.52385 175 226 212
0.0782579 0.138529 3.55448 68 80 86
0.191791 0.13586 3.56543 163 220 199
0.282649 0.137929 3.57019 57 93 76
-0.341728 0.137543 3.51068 101 146 149
-0.144734 0.151773 3.51821 76 126 114
0.141412 0.15621 3.56094 75 116 108
0.693923 0.159387 3.62852 120 182 222
0.549007 0.161745 3.61269 95 150 131
0.422983 0.164072 3.60393 156 218 204
-0.241057 0.166004 3.50901 108 173 151
-0.118495 0.168771 3.51148 106 157 149
0.423223 0.173581 3.59553 84 139 124
0.408725 0.176759 3.5883 167 239 216
-0.536517 0.175547 3.49374 250 255 255
0.307885 0.182388 3.58246 144 213 186
0.10248 0.185442 3.55142 192 218 224
-0.067224 0.185876 3.52593 56 77 74
-0.635323 0.186827 3.48348 193 229 235
-0.258005 0.191253 3.51218 100 151 144
-0.717789 0.194067 3.46931 150 152 162
0.0782714 0.199241 3.55696 176 214 216
-0.0270752 0.200655 3.52094 117 152 155
0.419261 0.20432 3.59747 92 124 113
-0.491677 0.20292 3.50382 139 164 174
-0.624226 0.204905 3.48662 236 249 255
0.0585856 0.216243 3.55372 149 180 183
-0.534231 0.219623 3.49708 156 181 183
-0.549454 0.220904 3.49203 108 125 134
-1.44284 0.202815 3.14189 24 107 69
-0.691159 0.22752 3.48644 234 253 255
-0.607178 0.227831 3.48418 135 149 177
-0.576852 0.233818 3.50755 152 168 185
-0.625143 0.238348 3.48437 122 145 147
-0.745138 0.247824 3.49471 173 213 238
0.293498 0.254809 3.58727 67 126 98
-0.614246 0.256026 3.49698 238 254 255
-0.74762 0.256017 3.49255 99 107 130
-0.346955 0.277773 3.52278 93 144 146
-0.235472 0.289047 3.53249 101 146 159
-0.279046 0.294952 3.52928 98 140 145
-0.185598 0.296124 3.52116 63 135 105
-0.238537 0.311357 3.53152 114 138 162
-0.239103 0.320143 3.52539 79 116 154
0.190456 0.331562 3.59458 90 140 128
-0.304709 0.337321 3.53577 203 224 255
-0.788441 0.347588 3.50597 87 103 126
-0.381094 0.355308 3.53293 93 105 111
-0.135098 0.365214 3.55741 68 129 93
-0.420887 0.373849 3.53864 251 255 255
-0.831073 0.379545 3.50908 93 94 108
0.336361 0.392175 3.61893 77 138 124
-0.892325 0.383335 3.49166 136 145 149
-0.882882 0.402983 3.50219 80 82 93
-0.891925 0.409064 3.50891 167 183 200
-0.187869 0.416893 3.56471 57 101 124
-0.899888 0.413794 3.50501 109 116 136
-0.908611 0.415731 3.50576 179 195 211
0.337214 0.481461 3.63069 84 143 129
0.664812 0.523385 3.67353 76 145 125
0.177882 0.574487 3.62552 75 122 113
0.0157599 0.580866 3.6152 108 139 140
-0.126137 0.594452 3.58745 59 135 94
0.118896 0.6128 3.63204 97 152 137
0.130684 0.610544 3.62222 91 125 124
-0.216666 0.615143 3.59131 220 230 237
0.0802146 0.625338 3.62469 76 117 109
0.676189 0.640107 3.69007 65 136 139
0.330826 0.635304 3.65371 44 99 84
-0.214379 0.630212 3.59628 160 177 186
0.0679371 0.650039 3.6239 178 215 211
-0.260172 0.649565 3.59595 228 240 242
0.51885 0.663693 3.68314 108 165 156
0.0782548 0.657407 3.61782 179 225 219
0.0714754 0.662757 3.62785 101 111 105
0.331417 0.684886 3.6564 92 148 135
-0.0279817 0.69802 3.61316 184 223 215
-0.0296476 0.723516 3.61688 160 205 218
0.361779 0.738496 3.66957 70 116 103
0.113833 0.781384 3.64544 97 108 106
-0.251043 0.777365 3.61774 246 255 255
0.583098 0.822272 3.70921 106 155 153
0.300964 0.837691 3.67254 75 137 119
0.445305 0.861847 3.69591 69 132 122
0.0879457 0.849973 3.63749 202 226 238
0.0888253 0.857737 3.65274 211 233 239
0.940846 0.896169 3.75741 92 157 155
0.75382 0.89085 3.73303 95 161 149
0.174828 0.884837 3.66917 100 137 135
-0.0255201 0.88319 3.63661 147 178 169
0.899782 0.961442 3.76837 117 145 176
0.451504 -1.48577 3.41334 157 211 206
-0.635449 -1.42613 3.28301 112 149 139
-0.724319 -1.40356 3.27329 135 186 172
-0.769212 -1.40138 3.27474 145 194 174
-0.51184 -1.40881 3.29546 132 159 169
-0.504477 -1.41048 3.29576 251 255 254
-0.787764 -1.38804 3.26529 132 180 162
-0.811792 -1.36751 3.26689 143 197 180
-0.622686 -1.36624 3.28759 147 190 169
-0.600827 -1.36795 3.29261 82 104 92
-0.83087 -1.34974 3.26585 132 182 164
-0.638536 -1.35923 3.28521 137 187 177
-0.771396 -1.34302 3.27683 119 165 153
-0.0985825 -1.33896 3.3422 84 123 108
-0.831196 -1.30529 3.27345 80 94 90
0.254574 -1.25751 3.41432 78 106 100
-1.71174 -1.13536 3.18669 81 89 96
-1.68688 -1.13312 3.18176 102 134 139
-1.77393 -1.11666 3.17493 126 183 158
-1.67389 -1.1214 3.18443 94 101 96
-1.67761 -1.12168 3.19174 81 93 87
-1.61833 -1.12494 3.19595 155 201 208
-1.63414 -1.12021 3.19733 71 73 73
-1.78907 -1.10946 3.17961 112 154 129
-1.62326 -1.1161 3.1963 134 172 166
-1.8542 -1.10118 3.16883 122 165 144
-1.32075 -1.12175 3.24124 92 111 102
-1.58265 -1.10324 3.20942 136 194 183
-1.32611 -1.1069 3.23791 163 230 209
-1.94344 -1.06145 3.17124 133 181 155
0.163304 -1.1319 3.41167 221 236 232
0.160909 -1.11574 3.423 158 192 191
0.182025 -1.11271 3.41903 93 104 102
0.206103 -1.11209 3.42077 230 243 241
0.236911 -1.09895 3.41976 78 109 100
-1.57607 -1.00328 3.2242 170 230 212
-1.58652 -0.998584 3.22282 70 90 85
-1.59951 -0.99555 3.22422 140 177 169
-1.60967 -0.991386 3.22173 80 114 103
-0.140455 -1.03301 3.38325 131 174 147
-1.64259 -0.976128 3.21708 107 166 145
-1.66914 -0.965479 3.21193 95 121 107
-0.0411086 -1.01668 3.40375 160 214 209
0.570981 -1.03541 3.48012 103 152 144
-0.0685014 -0.988946 3.40443 131 186 161
0.147937 -0.992472 3.42436 95 106 104
-0.0387339 -0.977135 3.40605 116 157 149
0.163322 -0.973049 3.42775 230 247 244
0.00470488 -0.958762 3.41162 143 182 161
0.216528 -0.925538 3.4404 197 225 226
0.039028 -0.910178 3.41315 103 134 107
-1.68569 -0.842939 3.24099 78 89 87
-1.6509 -0.841325 3.23312 81 115 108
0.24073 -0.894739 3.45269 94 157 147
-1.70208 -0.828382 3.23245 160 222 206
0.309727 -0.88394 3.45636 151 237 213
-1.72699 -0.810924 3.22804 51 83 72
-1.74935 -0.807809 3.22871 69 106 98
0.0445577 -0.855167 3.42622 86 99 77
-1.75471 -0.807054 3.24135 79 132 123
-1.78346 -0.795992 3.22599 78 91 83
0.141446 -0.84686 3.439 120 137 134
0.0435714 -0.825298 3.42374 163 215 198
0.0415132 -0.815178 3.41958 81 101 89
-0.795871 -0.790699 3.33523 122 182 158
0.164868 -0.818107 3.44562 64 110 97
-0.910428 -0.789115 3.33961 117 156 130
0.0212071 -0.787919 3.4341 255 255 255
0.192112 -0.727925 3.45556 103 147 130
0.00818053 -0.700199 3.43856 201 239 233
0.163187 -0.689052 3.45488 89 120 113
1.19366 -0.694116 3.58764 124 148 166
0.18385 -0.669757 3.47473 72 115 112
-0.993228 -0.579955 3.09806 122 179 128
0.0422925 -0.639726 3.42818 108 154 142
-1.01167 -0.559774 3.08871 136 208 156
-1.00672 -0.544766 3.09911 33 62 29
-1.1089 -0.516406 3.08168 30 76 47
-1.18299 -0.504986 3.09191 101 205 144
1.23807 -0.586761 3.60601 132 175 172
0.163468 -0.534546 3.46901 217 241 247
-0.86225 -0.466818 3.10629 128 174 131
-0.732707 -0.484147 3.38683 129 152 144
-1.85164 -0.454309 3.26831 96 147 143
-0.828984 -0.428339 3.13202 97 152 113
0.133719 -0.462577 3.47405 97 143 144
0.0935627 -0.45116 3.47535 77 94 90
0.065848 -0.439501 3.42949 184 203 210
0.103901 -0.438392 3.47521 174 208 207
0.284867 -0.438073 3.50034 92 142 132
-1.03859 -0.381486 3.05821 102 178 130
-0.77855 -0.381186 3.16285 28 37 10
0.0986992 -0.410996 3.47611 162 209 207
1.28443 -0.427944 3.63189 92 141 133
0.157018 -0.392554 3.49631 93 145 128
0.100934 -0.388391 3.48179 217 252 255
0.127482 -0.388062 3.4895 104 145 148
-0.993593 -0.323042 3.08228 110 178 125
-0.523869 -0.324094 3.40318 102 128 104
0.513712 -0.335636 3.54675 89 158 145
-0.949632 -0.285849 3.09302 130 215 165
-0.978888 -0.283465 3.09947 62 112 72
-1.70699 -0.295131 3.283 83 117 106
-0.928819 -0.275047 3.10852 32 55 27
-0.382917 -0.301429 3.44279 71 121 117
-0.038585 -0.30052 3.47252 98 163 137
0.5077 -0.297828 3.56072 84 155 135
0.07244 -0.282902 3.4868 119 153 146
-1.71775 -0.261275 3.30275 49 82 61
-0.461448 -0.251159 3.44703 177 227 227
0.0718301 -0.238349 3.50295 171 208 212
0.172683 -0.236558 3.51344 121 139 146
-0.87238 -0.208631 3.12606 123 179 128
-1.73216 -0.211918 3.31705 63 79 61
-0.251975 -0.220962 3.4646 105 169 150
-0.521579 -0.188455 3.4316 97 138 123
0.450375 -0.198118 3.55474 97 156 142
-0.686661 -0.182064 3.41816 114 169 142
-0.697006 -0.174601 3.42726 132 199 168
-0.603393 -0.173102 3.44582 106 147 116
-0.283629 -0.166812 3.47976 57 123 112
0.286513 -0.168103 3.53675 98 162 150
-0.295874 -0.162885 3.47207 88 157 144
-1.30824 -0.14038 3.11046 95 155 115
-0.701709 -0.154763 3.42837 111 145 134
0.0582598 -0.15189 3.51097 167 207 205
-0.0919883 -0.14584 3.4823 102 141 125
0.0229408 -0.148155 3.45732 126 145 150
-0.687678 -0.145894 3.42037 51 65 47
-0.0482865 -0.135184 3.481 183 233 223
0.0585496 -0.123448 3.51178 162 184 182
-0.764216 -0.0943917 3.43267 106 158 135
-0.739256 -0.0868125 3.44121 38 46 35
0.0561764 -0.0868685 3.52465 150 188 188
-0.670923 -0.0718769 3.44116 101 121 126
-0.273617 -0.0643509 3.49452 107 164 149
-0.378219 -0.0575945 3.47153 101 149 155
0.0490072 -0.0564701 3.51978 95 105 105
0.521103 -0.0499704 3.57664 81 128 106
0.493258 -0.0282599 3.58326 82 99 88
-0.60378 0.0136639 3.46544 127 136 133
0.137427 0.0120783 3.53834 198 224 231
0.0898629 0.0184238 3.52796 194 216 227
-0.603013 0.0235267 3.47101 84 88 89
-0.290124 0.0259934 3.50297 71 138 107
0.225712 0.0262444 3.55444 95 136 121
0.0889561 0.0278216 3.5193 86 93 90
0.116179 0.0277452 3.53098 170 201 204
-1.021 0.0353161 3.08794 211 236 240
-0.346279 0.0423657 3.49606 85 135 131
0.0543784 0.0662257 3.54368 175 216 208
1.21639 0.0662264 3.68444 87 158 142
1.90219 0.0702484 3.74517 226 249 244
1.98997 0.0823484 3.76252 161 202 187
0.216279 0.0879806 3.55255 122 185 165
0.455847 0.102075 3.60162 118 165 156
0.24496 0.102964 3.55833 164 220 209
0.219997 0.105205 3.56063 81 121 109
-0.368858 0.109304 3.50508 79 118 116
0.141231 0.109975 3.54896 92 134 123
-0.34441 0.11207 3.50365 107 158 154
0.0350091 0.114304 3.54562 142 166 172
0.057527 0.11685 3.54347 109 146 150
0.0616709 0.118161 3.55299 112 148 154
-0.0880853 0.133504 3.51796 170 227 212
0.112061 0.140058 3.55626 180 218 212
0.178003 0.140683 3.56777 162 222 212
0.0416159 0.160021 3.55243 172 207 217
0.422767 0.162895 3.60028 151 212 198
-0.770827 0.161564 3.47111 150 159 156
0.316706 0.170365 3.57639 70 87 66
0.0854127 0.17256 3.55372 173 207 213
0.307943 0.182653 3.58327 144 213 186
-0.0671607 0.185644 3.52524 56 77 74
0.101977 0.187174 3.55663 181 208 212
0.155113 0.19328 3.57109 140 197 189
-0.62471 0.205239 3.4876 236 249 255
-0.731534 0.207702 3.48389 111 112 116
0.0221225 0.209872 3.53744 135 179 178
0.386665 0.217118 3.60431 159 219 208
-0.634847 0.215891 3.49612 91 117 134
-0.0303683 0.216239 3.52211 137 180 165
0.0934989 0.223958 3.55633 170 195 191
0.373265 0.226726 3.59942 83 109 91
-1.44404 0.203256 3.14305 35 114 75
-0.713432 0.2297 3.49591 84 101 104
-0.607314 0.230084 3.49055 141 150 177
0.10976 0.234479 3.56439 75 79 80
0.419334 0.248178 3.61065 79 147 130
0.111265 0.247387 3.57509 197 227 238
0.099039 0.249656 3.5633 103 113 113
-0.452917 0.250324 3.50547 248 250 250
-0.748296 0.256229 3.49315 93 100 119
-0.231829 0.255421 3.51436 46 128 109
-0.229637 0.260162 3.52315 81 163 145
-0.173058 0.263476 3.51916 161 225 196
-0.753048 0.266043 3.4948 170 198 215
-0.763394 0.287312 3.4877 92 96 107
-0.185574 0.296125 3.52117 63 135 105
-0.238684 0.310926 3.53037 114 138 162
-0.252065 0.313277 3.53561 253 255 255
-0.158123 0.321036 3.52563 78 133 118
0.227931 0.327105 3.59929 124 178 165
0.291763 0.327885 3.59967 83 139 120
-0.772204 0.337277 3.50239 109 111 122
-0.443857 0.351577 3.53202 217 238 235
-0.420752 0.373375 3.53742 251 255 255
0.234393 0.398786 3.60188 86 129 114
-0.904712 0.398123 3.50152 118 129 127
0.399907 0.420966 3.63214 159 193 192
0.887711 0.448753 3.69189 69 144 128
-0.905505 0.429682 3.49906 110 117 134
-0.189219 0.579374 3.58834 86 143 122
0.0763654 0.609011 3.61963 97 132 128
0.252444 0.622948 3.64376 98 150 140
-0.21655 0.617615 3.5968 237 249 251
0.0461191 0.625455 3.61997 179 225 219
-0.219116 0.63111 3.59975 169 184 193
0.357586 0.645131 3.66054 56 122 93
0.506508 0.656 3.68446 71 129 111
-0.224571 0.645026 3.60006 230 242 248
0.0585145 0.651194 3.62899 76 84 77
-0.0200553 0.649976 3.60688 198 228 233
0.0675004 0.652286 3.62669 156 189 185
0.044712 0.655751 3.6246 161 191 186
0.0703044 0.663755 3.62355 89 96 91
0.0536852 0.667727 3.61459 70 92 73
0.0667492 0.67515 3.62514 178 233 194
0.00389915 0.694594 3.63002 130 123 128
-0.0285624 0.72077 3.6111 168 208 226
-0.0472704 0.777084 3.60206 76 103 77
0.127709 0.796032 3.65321 85 116 107
0.165975 0.7962 3.65462 71 129 104
0.150238 0.806819 3.65386 55 102 86
-0.199392 0.814084 3.61907 117 188 145
-0.0275991 0.831421 3.60612 138 174 174
-0.0288986 0.8452 3.63327 81 93 93
1.38779 0.890424 3.80901 70 130 119
0.0681196 0.860084 3.64344 184 208 214
0.939682 0.893809 3.75273 96 160 155
1.18802 0.940365 3.7967 80 135 126
-0.333855 -1.41944 3.28969 86 121 135
-0.255254 -1.41351 3.30593 83 116 136
-0.286325 -1.41104 3.31539 140 187 171
-0.6152 -1.397 3.28944 155 196 191
-0.734662 -1.37975 3.26754 78 97 80
-0.173469 -1.39935 3.32373 130 168 162
1.51204 -1.49614 3.55092 160 187 201
-0.603677 -1.36166 3.28104 85 104 89
-0.639579 -1.35967 3.28921 139 184 175
-0.78204 -1.34552 3.27084 82 95 79
-0.682589 -1.34787 3.28656 152 193 196
-0.613967 -1.34258 3.29014 177 231 224
-0.706653 -1.33781 3.29651 82 109 89
-0.171181 -1.33804 3.35105 102 148 135
0.169241 -1.34525 3.3936 60 62 62
-0.117503 -1.31849 3.35371 121 170 142
0.268107 -1.33205 3.40903 117 131 137
0.199043 -1.28743 3.39332 56 66 50
0.221917 -1.28524 3.40514 71 74 65
1.80147 -1.35573 3.57889 137 180 171
-1.53306 -1.19192 3.2051 68 112 141
1.86746 -1.32148 3.58301 135 165 152
0.254979 -1.25772 3.41712 75 98 93
-0.0893555 -1.24131 3.37363 254 254 254
0.232542 -1.25384 3.41825 189 223 223
0.226982 -1.22749 3.41931 194 231 223
-1.83837 -1.13239 3.16847 117 167 157
-1.72235 -1.13592 3.17603 178 219 228
-1.72097 -1.13388 3.1791 170 206 212
-1.71343 -1.13546 3.18906 81 89 96
-1.67773 -1.13495 3.1974 185 220 216
0.117773 -1.18517 3.32177 255 255 255
0.213773 -1.22131 3.4244 104 113 110
-1.64627 -1.12998 3.19309 145 179 178
-1.62666 -1.13061 3.19368 94 101 110
-1.67354 -1.12239 3.19044 92 98 93
0.015811 -1.18995 3.3774 85 144 123
-1.6202 -1.12366 3.20172 147 194 191
-1.68474 -1.12025 3.19211 121 161 150
-1.61379 -1.10262 3.20107 62 66 77
-1.58077 -1.1032 3.20807 135 195 184
0.029863 -1.16566 3.39336 101 128 119
-1.32844 -1.10712 3.24457 183 241 223
-1.5735 -1.07735 3.21808 146 188 181
-1.82883 -1.0408 3.18302 84 98 80
-1.56035 -1.05293 3.22129 95 116 107
0.237761 -1.09923 3.42943 67 101 94
-1.60381 -1.01318 3.22281 120 140 121
0.130155 -1.06341 3.41506 86 85 95
-0.206829 -1.03385 3.37808 73 97 79
-0.191977 -1.029 3.37397 132 177 160
-1.75943 -0.964371 3.20472 92 122 109
-1.75739 -0.964371 3.20447 92 118 105
-1.67128 -0.965446 3.21511 124 151 135
-1.61663 -0.971783 3.22817 64 80 62
-0.031304 -1.01747 3.39601 78 123 114
-1.64583 -0.961748 3.22056 142 192 180
-1.60938 -0.958604 3.22349 126 184 173
-0.0988737 -1.00408 3.39672 79 90 87
-1.60027 -0.950742 3.23561 92 110 103
-0.299865 -0.99361 3.37066 139 198 177
-0.132572 -0.991556 3.38167 125 144 135
-0.0892305 -0.997351 3.40146 136 183 187
-0.847822 -0.969162 3.31906 111 161 151
0.00080016 -0.989737 3.41153 81 114 99
-0.0350523 -0.979264 3.40794 103 141 135
-0.0682366 -0.971328 3.4109 89 119 106
0.00454537 -0.975245 3.42256 142 203 183
-0.0150266 -0.961068 3.40857 134 166 149
-0.289087 -0.940248 3.36717 95 144 128
-0.00491888 -0.933737 3.41532 140 186 164
0.241338 -0.93855 3.4379 134 153 156
0.0929505 -0.916345 3.40769 119 168 182
0.198384 -0.924557 3.43389 74 101 91
-1.79879 -0.852561 3.2089 103 122 105
-1.62922 -0.863761 3.2425 84 118 108
0.168621 -0.906088 3.43095 100 94 99
-1.81762 -0.844718 3.21802 138 188 164
-1.64936 -0.841453 3.23051 83 114 105
-1.68179 -0.84311 3.23739 72 77 75
1.72643 -0.940195 3.61189 123 165 158
-0.363821 -0.796205 3.10615 126 169 142
0.0300821 -0.874896 3.41771 75 75 59
0.0451602 -0.876093 3.42202 178 219 211
-1.80445 -0.805392 3.21877 174 224 212
0.0224665 -0.859217 3.42267 146 174 168
0.0462943 -0.855704 3.41321 86 102 85
0.04548 -0.855333 3.42213 91 107 89
0.172584 -0.863276 3.44196 87 115 109
0.490081 -0.839925 3.49172 98 147 139
-0.85446 -0.793062 3.33934 129 185 164
-0.123296 -0.791331 3.41331 119 153 129
-0.0160505 -0.786709 3.41379 127 197 167
-0.940444 -0.768215 3.3451 116 165 145
0.205942 -0.785953 3.45566 74 103 88
0.187236 -0.770946 3.454 92 100 93
0.420565 -0.775885 3.48473 94 157 141
0.0128205 -0.754384 3.42118 83 109 103
0.133527 -0.75245 3.45086 173 195 201
-1.89057 -0.696231 3.23034 82 138 127
-1.5331 -0.710695 3.28319 65 118 98
0.137126 -0.740302 3.44151 86 89 93
-0.0394042 -0.713415 3.42528 123 182 162
0.143932 -0.66145 3.46356 199 226 236
-0.920168 -0.590458 3.12822 82 157 101
-1.86753 -0.583944 3.25585 101 158 149
-1.18574 -0.503694 3.09998 101 193 140
0.129696 -0.54734 3.45899 102 140 134
0.319517 -0.552642 3.50176 137 188 180
0.163848 -0.53428 3.47098 213 235 241
-0.986751 -0.467474 3.08577 39 79 37
0.663819 -0.532721 3.54614 100 156 143
-1.25071 -0.454936 3.07963 101 207 154
-0.936538 -0.448979 3.0654 127 221 167
-1.25852 -0.4287 3.08116 117 218 173
0.18014 -0.466033 3.47109 194 227 223
-1.06798 -0.408053 3.06527 94 184 131
0.122758 -0.442799 3.4698 76 110 104
0.132801 -0.443073 3.48526 71 100 97
0.153268 -0.439171 3.48793 188 235 226
-1.02965 -0.366922 3.06135 118 168 128
-0.2289 -0.41002 3.44766 216 247 248
-0.970281 -0.330498 3.07976 33 51 20
0.0874279 -0.338427 3.48032 143 191 193
0.150655 -0.30928 3.50732 117 127 127
-1.08099 -0.267365 3.08739 118 174 131
-1.7172 -0.261938 3.29916 52 77 57
-0.979711 -0.234589 3.11962 37 50 28
-0.0201563 -0.257375 3.47303 64 103 87
-0.965461 -0.227564 3.11673 56 89 52
-0.0404422 -0.25006 3.472 202 238 222
-1.96181 -0.213105 3.30487 81 115 98
0.0750808 -0.225564 3.50403 83 117 111
0.120349 -0.202045 3.50664 90 136 117
0.216454 -0.200856 3.52411 67 126 105
-0.0688645 -0.189213 3.48822 89 152 132
0.45157 -0.197985 3.55529 87 148 134
-0.523177 -0.184448 3.43504 131 174 163
-0.446352 -0.182154 3.46362 74 130 119
-0.687444 -0.181124 3.42209 118 174 145
-0.598231 -0.178485 3.42647 101 155 120
-0.555678 -0.178405 3.4261 123 175 145
-1.8555 -0.164295 3.30935 99 160 132
-0.635631 -0.164111 3.40712 57 63 44
-0.283528 -0.166889 3.47944 57 123 112
-0.544695 -0.161245 3.43964 163 200 190
-0.674833 -0.155014 3.42957 141 201 171
-0.637673 -0.160741 3.42084 61 78 57
-0.526967 -0.148587 3.42692 68 69 60
-0.124615 -0.154396 3.48346 85 126 121
-0.499896 -0.138732 3.43257 120 163 160
0.103012 -0.147086 3.50465 197 216 221
0.122807 -0.142911 3.51908 61 88 84
0.0753072 -0.138593 3.52749 205 223 230
-0.627132 -0.13058 3.44033 96 127 112
-0.587711 -0.131254 3.42605 104 143 121
0.094552 -0.125609 3.51706 95 102 99
0.184209 -0.105505 3.53337 89 139 129
-0.79453 -0.0993424 3.4269 48 64 46
-0.0965794 -0.0860899 3.47297 118 166 148
0.0583071 -0.087191 3.52333 170 211 204
2.28815 -0.093514 3.7853 99 113 109
-0.775691 -0.074819 3.43668 134 189 170
-0.697165 -0.0700009 3.43555 114 136 118
0.195368 -0.0650324 3.53476 100 134 127
-0.378059 -0.0570158 3.47365 101 149 155
0.217093 -0.0616254 3.53372 113 178 153
1.75681 -0.0503566 3.72328 101 161 153
0.128421 -0.0423666 3.52507 196 228 234
0.787636 -0.0310026 3.61737 93 147 140
0.472087 -0.0258695 3.58861 150 203 189
0.494428 -0.0278813 3.58462 87 108 99
-0.125197 -0.021861 3.49272 94 145 125
-0.0335366 -0.0206585 3.50924 87 138 124
0.239991 0.0209515 3.54685 98 143 127
0.0476932 0.0342617 3.52286 144 187 184
0.139826 0.0343969 3.54281 206 234 235
-0.238045 0.0377053 3.49421 119 182 156
0.049827 0.0392727 3.53988 144 178 184
0.249687 0.0376813 3.55807 164 227 217
0.396229 0.0435693 3.57361 139 207 212
0.0568256 0.0498282 3.53698 58 81 73
0.245258 0.0673758 3.52994 91 137 114
1.21722 0.0666385 3.68585 87 158 142
0.0796905 0.0736817 3.55077 104 143 145
-0.681628 0.0867046 3.46098 131 130 126
0.356185 0.0851109 3.57302 152 208 195
-0.240509 0.0885039 3.48712 78 132 102
-0.626959 0.0945445 3.47285 129 134 135
0.455788 0.100351 3.59597 121 163 156
-0.101574 0.10746 3.50297 121 143 138
0.241935 0.10796 3.57456 142 179 169
-0.368588 0.110081 3.5066 80 120 119
0.220439 0.11091 3.55879 93 119 96
0.433899 0.110555 3.59629 88 126 108
-0.828545 0.115342 3.45514 155 170 173
-0.782718 0.118404 3.45125 135 165 166
0.194264 0.12842 3.55855 77 137 119
0.341514 0.134338 3.58721 67 95 75
-0.404659 0.137484 3.50777 77 140 131
0.190459 0.13834 3.56664 154 208 185
-0.832534 0.136943 3.45442 96 108 112
0.0797739 0.139476 3.54574 78 89 93
0.334205 0.143566 3.58217 149 191 173
-0.245944 0.146062 3.5154 63 112 98
0.0834621 0.167268 3.55403 169 204 214
0.248504 0.167812 3.581 70 86 68
-1.44216 0.150071 3.14082 43 98 89
-0.662411 0.167187 3.46846 164 167 171
0.0865428 0.175775 3.56344 186 211 215
0.101564 0.175734 3.56408 87 91 92
-0.621234 0.177451 3.48452 104 122 139
-0.260318 0.191455 3.5157 85 134 126
0.00556554 0.189735 3.54441 120 131 129
0.099281 0.189587 3.55756 187 212 216
0.455222 0.200929 3.59553 99 156 141
-0.0277477 0.197807 3.51896 140 177 173
-0.730389 0.205929 3.47877 103 107 108
-0.631878 0.212658 3.47783 87 101 113
-0.8124 0.213232 3.46913 130 165 155
-0.549754 0.22412 3.4986 99 115 128
-0.575836 0.230517 3.50413 130 144 166
-0.528754 0.232354 3.50219 223 228 229
-0.88942 0.22922 3.46531 110 133 141
-0.151308 0.244646 3.51914 107 141 130
0.322243 0.248862 3.59969 69 105 88
0.141063 0.252933 3.57574 83 112 96
-0.231964 0.256512 3.51741 46 128 109
-0.622941 0.263998 3.50639 120 129 132
-0.498864 0.265136 3.51003 117 151 151
0.341997 0.276243 3.60732 139 176 156
-0.152347 0.278514 3.50783 107 135 122
-0.278879 0.286768 3.53314 246 255 254
-0.236914 0.291405 3.54073 151 192 207
-0.167308 0.296793 3.51803 60 91 84
-0.253543 0.317421 3.5533 244 250 255
-0.24233 0.322366 3.54095 87 122 155
-0.21436 0.319936 3.54153 89 156 153
-0.358841 0.32955 3.53609 128 173 186
-0.262008 0.331458 3.53486 96 108 148
-0.26135 0.334901 3.54397 52 71 114
0.993381 0.353156 3.68666 60 136 125
-0.771457 0.337267 3.50235 109 111 122
-0.159405 0.343618 3.53617 77 116 124
-0.299416 0.347105 3.5439 42 61 99
-0.259971 0.349487 3.54315 31 74 125
-0.135838 0.349616 3.54998 255 255 255
-0.115481 0.347704 3.55291 100 164 134
-0.205052 0.364225 3.5571 83 115 134
0.146597 0.426645 3.61387 109 162 152
0.361941 0.423393 3.61825 84 143 128
0.168526 0.480686 3.58836 69 128 108
0.17036 0.49458 3.62203 82 142 118
0.357111 0.512188 3.63773 95 147 124
-0.170338 0.592336 3.59357 207 255 255
0.047806 0.617868 3.61247 164 209 206
-0.221027 0.630079 3.5965 168 184 196
-0.225928 0.648424 3.60751 227 237 244
0.0445538 0.659436 3.63268 141 158 155
-0.184477 0.6693 3.61475 87 156 119
0.927903 0.71279 3.71248 80 145 136
-0.164606 0.712448 3.60869 74 135 101
0.514436 0.753461 3.68917 91 152 138
-0.205663 0.813519 3.62093 58 119 81
-0.223656 0.817421 3.62169 115 190 162
0.275331 0.867351 3.67453 77 137 113
0.019099 0.863891 3.63647 181 204 199
-0.715626 -1.36259 3.27362 73 78 77
-0.603861 -1.36169 3.28133 85 104 89
-0.734578 -1.35502 3.27653 156 212 201
-0.705146 -1.33408 3.28426 81 105 87
-0.644901 -1.31936 3.27424 75 100 90
-0.722097 -1.31248 3.28144 109 148 132
-0.649378 -1.32148 3.29602 85 119 102
0.189834 -1.3544 3.38626 141 166 176
1.79089 -1.42386 3.57436 140 187 178
0.217342 -1.28265 3.40686 70 74 62
0.217151 -1.25387 3.40745 90 84 71
0.210013 -1.22116 3.41507 92 98 93
-1.65501 -1.13647 3.19309 108 115 124
-1.78499 -1.11794 3.15475 87 94 81
-1.64706 -1.13043 3.19321 134 168 167
-1.71321 -1.12529 3.18542 72 74 74
-1.779 -1.11103 3.17254 86 131 105
-1.68828 -1.11964 3.18792 129 172 161
-1.63692 -1.12629 3.20805 87 90 94
0.174109 -1.19697 3.41101 168 198 209
-1.84742 -1.10408 3.16619 125 179 149
-1.78413 -1.10126 3.16306 106 137 116
-1.60947 -1.11875 3.20275 147 189 188
-1.57803 -1.11633 3.20447 88 121 114
0.165248 -1.18205 3.40979 182 193 190
-1.60262 -1.0501 3.21435 147 191 185
-1.56321 -1.0478 3.21669 97 120 106
0.1286 -1.07959 3.36349 187 200 216
-0.14945 -1.03743 3.38237 139 202 176
-1.61802 -0.98546 3.22885 165 202 192
-1.6737 -0.964989 3.21849 135 161 143
-1.6087 -0.958581 3.22509 123 186 170
-0.0623757 -1.00831 3.39504 68 78 62
-0.132985 -0.991155 3.3772 125 144 135
-0.0271831 -0.993606 3.41201 123 176 162
-0.00255558 -0.986936 3.40888 110 145 125
-1.58259 -0.927089 3.23195 89 108 91
0.0224348 -0.965708 3.40933 70 96 80
-1.6092 -0.902459 3.23115 154 212 201
-0.00312052 -0.950778 3.41883 62 69 48
-1.6291 -0.863974 3.23757 71 99 86
-1.62805 -0.863933 3.23846 74 108 97
0.0195436 -0.906481 3.41962 126 159 155
-1.81913 -0.845203 3.22195 136 187 160
-1.69643 -0.831678 3.23129 134 191 182
0.0441948 -0.876375 3.41439 172 215 206
-0.802937 -0.815044 3.34669 89 119 100
-0.467329 -0.747598 3.09354 90 162 120
-0.893489 -0.806166 3.32645 72 110 88
-0.308581 -0.742258 3.09404 162 225 186
0.0346093 -0.816587 3.42776 96 109 95
0.131968 -0.815507 3.43009 118 153 149
-0.91464 -0.781184 3.32895 95 141 119
-0.793 -0.786268 3.35356 118 177 163
0.0219572 -0.785858 3.41911 253 253 253
0.158949 -0.778994 3.44986 183 213 224
0.00570796 -0.749531 3.42166 75 109 99
0.192905 -0.728871 3.4637 96 139 124
-0.147794 -0.634015 3.41657 147 210 194
0.463604 -0.644168 3.50413 100 161 151
-0.972503 -0.492855 3.07563 113 178 132
-0.863168 -0.477486 3.09946 119 172 132
-0.884913 -0.474784 3.10894 95 129 92
-0.860943 -0.447841 3.11092 44 52 29
-0.866939 -0.44388 3.13323 38 44 25
0.106078 -0.485815 3.46942 114 147 140
0.151569 -0.486443 3.47364 108 133 137
-1.07575 -0.408552 3.0699 106 185 134
0.168004 -0.46431 3.50163 105 104 113
-1.27958 -0.399169 3.0787 50 98 72
-1.03097 -0.390356 3.06884 40 58 29
0.100123 -0.441452 3.47687 175 210 213
0.119771 -0.43804 3.50075 77 100 92
0.0677981 -0.418215 3.44545 59 60 56
-0.916526 -0.357591 3.07408 112 176 124
0.096719 -0.40513 3.48317 150 197 195
-1.68858 -0.355202 3.28761 45 65 46
0.0973721 -0.373443 3.48066 202 231 235
-0.974525 -0.313848 3.08753 54 66 38
-0.932437 -0.318833 3.09634 79 148 91
0.1754 -0.34975 3.4913 212 236 236
-1.05803 -0.307596 3.08281 105 124 109
-0.935695 -0.304123 3.09641 39 54 27
-0.912027 -0.296496 3.11994 123 177 130
-1.71707 -0.29299 3.29413 81 124 111
-0.937893 -0.269375 3.11483 49 71 46
0.0856252 -0.297396 3.50441 128 178 178
-1.00666 -0.244702 3.10857 32 65 28
-0.888329 -0.248212 3.12959 36 58 34
-0.959561 -0.24072 3.11889 101 189 129
-1.722 -0.24582 3.30816 119 190 174
-0.945326 -0.190305 3.11443 108 172 120
-0.62648 -0.208063 3.41525 103 157 122
0.0798596 -0.207673 3.501 175 207 212
0.140935 -0.206048 3.50722 195 220 224
0.164941 -0.208513 3.50715 210 226 233
-0.710196 -0.197456 3.42605 81 146 121
-1.92917 -0.182647 3.30558 70 98 78
-0.679062 -0.17049 3.4282 55 68 46
-0.577334 -0.155755 3.42917 110 176 151
0.0748946 -0.160838 3.5222 179 210 211
-0.526584 -0.147813 3.43001 59 56 48
-0.491582 -0.149345 3.42791 82 104 102
-0.0906307 -0.143301 3.46997 87 126 111
0.0953457 -0.146043 3.50694 211 233 238
-0.642217 -0.133357 3.43171 128 187 167
0.0726252 -0.139684 3.52311 164 190 204
-0.619777 -0.115705 3.43692 58 79 57
-0.71777 -0.107131 3.43111 72 110 88
0.0558047 -0.111819 3.51723 58 55 51
-0.72402 -0.0909205 3.43672 65 66 56
0.0186596 -0.0837034 3.49398 123 142 150
0.407766 -0.0836093 3.55488 122 165 154
2.27768 -0.0911839 3.78092 86 110 102
0.113987 -0.0759101 3.52241 87 132 116
0.0605613 -0.0540421 3.52359 189 233 234
0.523343 -0.0478084 3.57831 67 109 92
0.446781 -0.0294473 3.57561 84 93 80
0.119165 -0.0103821 3.54122 119 122 126
-0.0653955 -0.00786023 3.51994 67 95 89
0.222752 0.0205349 3.55503 104 163 135
0.0880239 0.0327615 3.51381 77 91 89
-0.924142 0.0438135 3.08873 54 93 61
0.217662 0.0502301 3.55105 56 79 65
0.0801945 0.0577094 3.53328 203 234 235
0.15858 0.058462 3.51025 112 146 140
-0.906122 0.0559583 3.09355 137 201 159
-0.030523 0.064355 3.56728 77 128 121
-0.656547 0.0767369 3.46238 126 139 141
0.243898 0.076313 3.57823 70 110 92
0.284023 0.093026 3.55533 70 76 65
0.446492 0.103972 3.59466 130 173 158
0.177861 0.135637 3.57615 139 198 190
0.0333206 0.135176 3.54546 86 106 94
0.0812772 0.141574 3.54575 70 86 92
0.17889 0.140358 3.59101 167 227 217
-1.57059 0.140643 3.15543 88 120 96
0.0771647 0.168781 3.55291 186 214 225
0.124404 0.171274 3.55125 190 219 223
0.323705 0.169443 3.57984 78 90 72
0.450489 0.178282 3.59836 95 147 129
-0.656257 0.178475 3.44419 81 69 65
-0.0863281 0.188665 3.52315 108 131 126
-0.847445 0.206713 3.47159 167 204 208
-0.691448 0.209275 3.4787 189 210 225
-0.658209 0.208843 3.47718 215 238 253
0.380518 0.215044 3.59577 130 198 181
-0.824893 0.219264 3.48879 77 101 99
0.294882 0.22129 3.59392 82 128 109
-0.618127 0.229578 3.48102 255 255 254
0.0959774 0.244051 3.57222 111 117 116
0.148483 0.248969 3.56662 53 70 49
0.365884 0.25374 3.62422 73 109 92
0.320921 0.289171 3.6341 110 155 136
0.336942 0.280661 3.61523 119 172 152
-0.152949 0.277585 3.51388 73 101 88
-0.76536 0.298232 3.48107 181 207 223
-0.781741 0.337272 3.50416 97 93 98
-0.890271 0.361011 3.48922 111 123 129
-0.889862 0.360386 3.48761 116 128 134
0.0647096 0.603973 3.62205 100 135 131
0.0547876 0.655007 3.64238 82 89 76
0.0407617 0.666079 3.61941 105 104 94
0.0503791 0.664646 3.61775 76 88 70
-0.1909 0.710197 3.60106 190 221 220
-0.0306677 0.730551 3.63426 170 219 229
0.083642 0.784054 3.64594 72 83 67
0.0866822 0.817573 3.63999 58 57 43
