ply
format ascii 1.0
element vertex 1313
property float x
property float y
property float z
property uchar blue
property uchar green
property uchar red
end_header
-0.352328 -1.4191 4.52035 116 170 157
-0.0467041 -1.3702 4.57351 76 128 111
-1.62465 -1.29361 4.43664 155 193 175
-1.80848 -1.13026 4.45395 96 167 124
-1.91912 -1.11707 4.4528 89 159 129
-0.24325 -1.08219 4.58553 81 139 111
-0.82553 -0.993844 4.54168 100 169 149
0.511103 -0.961524 4.69707 120 159 157
-0.452331 -0.748759 4.5947 92 154 130
-0.445282 -0.740482 4.59396 84 140 121
0.453398 -0.736343 4.71241 135 173 173
-0.489484 -0.621226 4.60391 100 176 152
0.721414 -0.637255 4.74435 118 165 157
0.0730398 -0.610824 4.68471 97 154 145
-0.607379 -0.575937 4.60735 103 162 147
-0.603594 -0.439928 4.62848 99 152 139
-0.573561 -0.409303 4.63578 95 157 145
-0.614257 -0.351117 4.64497 89 158 137
0.63155 -0.266045 4.82064 108 162 155
0.962767 -0.239535 4.85765 166 207 200
-0.513026 -0.198761 4.6759 103 160 151
-2.70704 -0.126195 4.4734 150 196 177
-0.71818 -0.0622845 4.69334 89 151 133
-0.768577 -0.0278995 4.69315 98 145 136
-1.19134 0.0342889 4.69081 91 171 154
-0.831296 0.20796 4.74834 100 157 148
-0.917234 0.239015 4.74708 82 149 122
-1.10679 0.393651 4.77261 95 155 144
-0.269855 0.471668 4.88116 94 160 148
-0.708915 0.55573 4.84167 86 140 123
-0.351553 0.865216 4.95652 178 232 215
-0.346547 0.86547 4.93924 104 144 133
-0.669824 0.908336 4.94153 139 179 167
-0.669369 0.911839 4.9411 77 114 106
-0.424812 0.917635 4.94319 50 105 80
-0.577355 0.933331 4.95031 84 125 117
-0.569811 0.935039 4.9519 148 203 184
-0.908914 0.964984 4.94107 146 203 195
-0.527149 0.973719 4.95001 97 150 140
-0.0385626 1.13504 5.09041 69 114 98
-0.0824209 1.13801 5.07327 74 144 104
0.535867 1.1762 5.1772 152 206 183
-0.746827 1.15347 5.01495 77 157 114
0.408382 1.1914 5.175 99 155 142
-0.319347 1.53305 5.18503 113 150 140
-0.491451 1.55156 5.17631 132 196 166
-0.144064 -1.69212 4.53688 105 166 152
-0.475817 -1.39976 4.5357 88 121 114
-1.81135 -1.35522 4.41654 122 202 155
-0.652525 -1.31329 4.5156 84 143 115
-1.87547 -1.26473 4.42483 85 141 112
-1.66365 -1.17482 4.44222 98 159 125
0.0359559 -1.21784 4.61701 87 152 130
-1.92589 -1.07221 4.45554 135 212 174
-0.518972 -1.04799 4.55304 124 177 167
-0.289061 -1.01947 4.57622 100 145 128
-0.273119 -1.01783 4.57668 108 157 137
-0.650954 -0.941253 4.54501 100 170 147
0.496965 -0.949903 4.68221 75 114 99
-0.825107 -0.913734 4.55873 96 143 134
0.587295 -0.896681 4.71472 73 150 123
1.37031 -0.840577 4.44404 199 254 229
0.189908 -0.854039 4.66177 110 169 149
-0.171139 -0.835871 4.62696 132 208 184
-0.831848 -0.781107 4.56629 172 225 215
0.177453 -0.751267 4.66378 95 162 131
0.453107 -0.736068 4.71666 133 173 172
0.312838 -0.697582 4.69112 77 136 115
-0.617834 -0.675736 4.5886 69 136 109
-0.650929 -0.670716 4.60264 85 156 130
-1.70444 -0.5901 4.52969 114 164 146
-0.62648 -0.421842 4.63386 113 166 152
-0.6222 -0.392832 4.63955 102 157 138
0.542092 -0.4044 4.76996 117 157 152
-0.48916 -0.301625 4.64164 103 161 143
-0.115053 -0.200336 4.73738 111 170 162
0.0417459 -0.182549 4.7645 101 164 155
-0.0663362 -0.0919966 4.77277 175 234 220
0.0981049 0.115579 4.82487 96 154 143
1.8229 0.467714 5.09904 91 123 118
-0.912191 0.495258 4.80686 79 128 114
-0.483025 0.550551 4.86615 109 168 153
-0.709514 0.55644 4.8439 85 144 124
-0.178617 0.645723 4.93567 95 168 152
-0.713404 0.690885 4.87469 175 228 218
-0.262462 0.715812 4.93423 81 134 101
-0.17025 0.733197 4.94582 91 143 126
-0.54043 0.735189 4.90491 80 152 122
-1.07504 0.735998 4.85474 107 163 152
-0.165724 0.754731 4.95705 82 131 115
-0.270111 0.768472 4.93729 92 160 135
0.06385 0.814788 5.01695 99 151 141
-0.360457 0.825466 4.95335 86 110 108
-0.504673 0.82866 4.92459 89 142 129
0.145764 0.897533 5.03612 153 244 199
0.842032 0.933562 5.14934 91 123 118
-0.332805 0.904691 4.96891 90 164 140
0.101264 0.938225 5.05771 91 154 128
-0.428286 0.918742 4.93298 68 133 107
-0.194735 0.947061 5.00115 85 141 118
-0.0237758 0.974744 5.05243 97 162 140
0.196981 0.992433 5.08644 105 149 136
0.838549 1.07182 5.18346 127 189 165
0.368549 1.12667 5.14021 152 230 213
-0.0831131 1.1423 5.08555 66 133 94
-0.721019 1.15781 5.01341 86 160 126
-0.353977 1.18684 5.04843 167 236 199
-0.73172 1.19221 5.02089 114 159 132
-0.303716 1.2443 5.08869 69 126 95
-0.719258 1.23805 5.03017 145 207 189
-0.758852 1.25357 5.04736 118 183 157
-0.849793 1.28609 5.03569 116 172 153
-0.792099 1.31421 5.07999 84 134 124
-0.734187 1.32 5.07654 97 157 147
-0.469742 1.33391 5.10962 97 151 138
-0.337595 1.3455 5.10485 78 142 107
0.548415 1.40115 5.25416 112 149 129
-0.481829 1.37034 5.102 63 132 89
-0.385754 1.50162 5.16299 63 101 79
-0.0396557 1.52064 5.21672 73 131 120
0.487249 1.56359 5.29836 77 123 101
-1.00118 1.68173 5.17199 93 146 136
2.38253 1.90334 5.65011 123 169 157
-0.0789399 1.96609 5.37444 131 207 196
-0.744287 1.94256 5.2901 116 171 152
-0.290103 2.08214 5.38097 76 131 114
-1.73937 -1.70256 4.4034 123 202 158
-0.22356 -1.74265 4.50637 111 163 156
-1.72153 -1.65939 4.40659 86 147 111
-1.72403 -1.66081 4.41618 78 147 110
-0.26144 -1.68458 4.52285 109 162 149
-1.24276 -1.65906 4.46183 95 151 128
-1.95054 -1.61998 4.40367 107 165 136
-0.121199 -1.66196 4.54555 124 167 154
-2.15762 -1.59706 4.41292 86 134 108
-1.13805 -1.61342 4.46545 105 161 148
-0.971644 -1.6141 4.48899 86 154 129
-0.537184 -1.62368 4.51808 116 187 161
-0.507552 -1.62216 4.51812 102 167 146
-1.65335 -1.56597 4.40706 155 225 188
-1.95193 -1.55287 4.3946 58 122 86
-0.0111333 -1.61095 4.56872 100 154 147
-1.98724 -1.53774 4.38378 86 156 119
-2.45082 -1.53227 4.3903 88 130 112
1.79832 -1.50046 4.31839 99 133 122
0.612215 -1.59301 4.63545 99 142 129
-1.59673 -1.5186 4.42582 140 221 174
-0.0423469 -1.54701 4.5698 104 163 143
-1.57477 -1.47636 4.43475 102 160 132
-1.6729 -1.4577 4.40947 73 134 106
-1.55024 -1.46111 4.43682 102 176 148
-0.650898 -1.48401 4.51593 97 166 153
-1.60153 -1.45183 4.43078 87 145 116
-0.376497 -1.46716 4.51582 123 165 154
-1.47938 -1.43285 4.44518 102 170 139
-0.460633 -1.45203 4.5106 107 160 150
0.00208947 -1.4734 4.58057 101 159 131
-1.02123 -1.43653 4.49205 97 154 139
-0.320365 -1.44238 4.54143 89 118 103
-1.68478 -1.40034 4.42176 66 130 88
0.233033 -1.45786 4.60868 109 165 154
-1.82569 -1.38971 4.40136 142 218 177
-1.77783 -1.3862 4.39782 99 159 128
-1.65156 -1.39693 4.43777 123 183 142
-2.34586 -1.383 4.40144 107 166 151
-0.275481 -1.41851 4.53181 119 171 154
-0.190926 -1.42375 4.55964 164 230 201
-1.42018 -1.37725 4.44201 107 168 132
-2.29508 -1.35816 4.40927 111 174 154
-2.31994 -1.35752 4.41222 115 161 148
-0.524546 -1.39043 4.52448 93 161 138
-1.8104 -1.35525 4.41717 136 215 164
-0.594996 -1.38229 4.53271 102 151 135
1.84833 -1.34232 4.40404 57 79 61
-0.055928 -1.3811 4.56905 161 213 196
-0.651864 -1.35228 4.51578 92 148 135
-1.78438 -1.32269 4.42705 101 145 122
-1.79622 -1.31013 4.42719 133 213 170
-1.8165 -1.30437 4.41992 69 131 85
-0.404686 -1.33882 4.5282 108 159 139
-1.12728 -1.31958 4.47819 90 141 127
-2.20269 -1.29318 4.40411 89 144 117
-1.8718 -1.28684 4.42019 78 141 101
-1.84161 -1.28535 4.41255 47 100 67
-0.0582997 -1.33413 4.59385 100 145 126
-0.648338 -1.30758 4.51859 94 152 127
-1.87721 -1.2649 4.42753 76 132 103
-1.75956 -1.25278 4.42365 137 220 165
-1.67517 -1.26116 4.44257 98 142 111
-1.71832 -1.24929 4.44422 84 144 104
-0.562732 -1.2733 4.53468 104 156 138
-1.68683 -1.23541 4.4355 138 211 171
-1.9558 -1.22118 4.43523 97 148 120
-1.77343 -1.20618 4.44423 158 238 191
1.4529 -1.18185 4.35139 97 143 107
-1.25023 -1.20999 4.48427 101 156 137
-0.729739 -1.21657 4.50943 146 195 179
2.14459 -1.29194 4.80244 126 157 160
-1.92649 -1.18536 4.41873 140 225 181
-1.79068 -1.1839 4.42874 90 153 113
-0.496995 -1.21193 4.54567 107 165 147
-0.625674 -1.19616 4.51187 92 139 113
-1.65163 -1.17229 4.45382 80 147 110
-1.25262 -1.17097 4.47465 94 163 126
-1.666 -1.15056 4.46279 93 147 118
-1.72419 -1.14379 4.4499 91 153 123
-0.682699 -1.1665 4.52961 67 117 85
-1.72686 -1.14393 4.45334 71 129 100
-1.73892 -1.13729 4.44843 132 234 187
-0.808056 -1.15248 4.51927 108 156 138
-0.56073 -1.15358 4.53178 162 239 211
-1.83988 -1.11863 4.44171 83 158 114
-0.724746 -1.13891 4.52959 115 151 134
-0.641392 -1.13175 4.5375 91 123 106
-0.190785 -1.1332 4.58891 93 155 143
-0.646667 -1.11323 4.53008 93 137 120
0.936769 -1.12208 4.60016 72 147 109
-0.840292 -1.08786 4.51986 97 153 140
0.367335 -1.11214 4.64064 105 148 139
0.71298 -1.09542 4.57853 48 89 81
0.505094 -1.11661 4.67289 106 165 151
0.514125 -1.10497 4.66761 105 168 152
-0.0212755 -1.0868 4.60359 96 151 132
-0.215995 -1.07666 4.58046 78 132 115
-0.551981 -1.06148 4.53905 113 182 169
1.10269 -1.05307 4.48687 85 137 120
-2.12336 -1.03538 4.46102 102 161 146
-1.87485 -1.03846 4.47271 70 140 99
0.694956 -1.06685 4.60235 78 125 117
-0.198856 -1.05813 4.59686 89 148 134
-0.47938 -1.03863 4.54912 94 148 135
-0.60104 -1.02767 4.54984 108 164 151
0.939942 -1.02507 4.58606 85 143 114
-2.11943 -0.981334 4.45825 105 181 157
-0.788714 -0.982768 4.53 98 141 130
0.554486 -1.00036 4.6508 91 128 112
-0.523594 -0.973706 4.56066 177 241 229
-0.80111 -0.955778 4.53603 95 146 132
-0.713232 -0.944938 4.57528 100 153 139
-0.651785 -0.941212 4.54867 107 175 152
-0.111437 -0.947944 4.62279 177 232 229
0.552618 -0.945578 4.68095 92 148 113
0.570019 -0.945531 4.68273 147 222 171
-0.824841 -0.908444 4.54442 104 150 138
-0.581213 -0.911538 4.56114 163 209 203
0.535289 -0.939371 4.69367 125 197 161
-0.537882 -0.890265 4.5741 98 144 132
0.586856 -0.912208 4.69567 68 149 110
-0.799002 -0.878793 4.53723 113 175 151
1.10793 -0.869265 4.52881 107 150 135
-1.45642 -0.854974 4.50214 103 164 136
-0.441186 -0.866286 4.58571 88 155 123
1.42281 -0.82789 4.40847 153 225 195
0.30973 -0.872603 4.66289 178 231 222
-0.678302 -0.841862 4.54815 82 146 117
0.190285 -0.853978 4.66356 110 169 149
-0.673952 -0.834931 4.5714 98 170 147
-0.761061 -0.823534 4.55295 35 85 51
-1.64086 -0.7992 4.50541 101 158 133
-0.0563748 -0.81066 4.64722 81 154 138
-0.0231547 -0.804615 4.63607 89 148 127
-0.563319 -0.788826 4.59237 110 174 152
-0.23839 -0.788325 4.62023 87 140 120
-0.574276 -0.771338 4.57463 99 170 144
0.405712 -0.794027 4.70495 111 167 148
-0.769755 -0.768754 4.5649 97 161 132
0.128615 -0.77226 4.67358 163 207 194
-0.516258 -0.753643 4.60178 157 222 206
-1.72308 -0.738199 4.50754 93 155 133
-1.94657 -0.73336 4.50443 95 157 145
-0.265094 -0.750323 4.612 95 150 131
-0.386151 -0.746979 4.60566 81 145 116
0.2831 -0.756862 4.68375 106 175 142
-0.560334 -0.728905 4.58697 92 167 145
0.453476 -0.735964 4.71846 133 173 172
-1.94719 -0.690763 4.50282 89 167 144
-1.17143 -0.69377 4.54253 93 155 133
0.23399 -0.712221 4.67405 75 151 120
-0.381859 -0.694872 4.61677 69 111 100
0.334967 -0.701761 4.67943 96 128 111
-0.711315 -0.676044 4.59604 65 124 93
-1.91378 -0.649115 4.50665 98 165 144
-2.16625 -0.633863 4.49442 86 151 136
-2.13177 -0.636938 4.49865 93 170 149
-0.565606 -0.65037 4.614 85 136 116
0.76554 -0.668214 4.76106 103 155 145
-0.0614392 -0.645198 4.64454 86 155 140
-0.723243 -0.624551 4.59501 102 161 146
-0.490607 -0.6207 4.60379 98 172 148
-0.609572 -0.615829 4.6018 64 121 82
0.433478 -0.627318 4.72598 103 151 139
-0.557616 -0.606813 4.61754 88 152 130
-0.595816 -0.602351 4.61733 152 224 194
-0.0485576 -0.609313 4.66445 89 137 125
-2.08006 -0.581225 4.51476 83 143 113
-2.03575 -0.566475 4.5142 81 145 110
0.0770625 -0.57525 4.68378 89 142 133
-1.94799 -0.541381 4.52466 90 172 154
-2.13273 -0.521131 4.51119 83 137 114
0.464489 -0.530458 4.72756 96 147 127
-1.98153 -0.505518 4.52527 84 150 121
-1.94856 -0.504277 4.52359 102 161 140
-2.00389 -0.494773 4.53883 87 148 122
-0.394573 -0.504371 4.63231 83 152 131
-2.00216 -0.476515 4.52725 74 139 117
-0.041163 -0.476576 4.67524 94 144 134
-0.554845 -0.457236 4.6377 104 153 145
-0.689108 -0.444045 4.62203 95 148 134
-0.475743 -0.440215 4.65098 102 160 142
-2.05321 -0.42498 4.51921 68 124 95
-0.585466 -0.416648 4.62938 89 137 119
-0.572581 -0.410628 4.63601 100 160 149
-1.99389 -0.385407 4.55075 73 151 120
-0.62177 -0.393521 4.63432 102 157 138
0.54282 -0.403747 4.76722 126 166 161
-0.510499 -0.384262 4.64469 85 135 123
-2.18376 -0.355551 4.53699 143 191 179
-0.515162 -0.358263 4.64035 116 171 162
-0.0327231 -0.353115 4.72071 104 171 156
1.11909 -0.342059 4.85003 108 177 167
-0.484228 -0.320125 4.65594 100 156 137
1.06847 -0.332841 4.85445 101 153 143
-0.477129 -0.269242 4.67028 78 133 124
0.912538 -0.27684 4.84847 93 161 150
0.0729888 -0.262932 4.74733 178 234 223
-0.48968 -0.250009 4.67629 167 224 209
-0.658426 -0.243189 4.65712 86 148 132
-0.499036 -0.196508 4.68648 77 121 115
-0.426367 -0.198263 4.69445 92 163 146
0.0520087 -0.198421 4.7542 117 177 167
-0.656057 -0.186216 4.66376 109 182 166
0.0419591 -0.18223 4.76634 101 164 155
-0.465891 -0.163046 4.68481 88 160 138
-0.505186 -0.159218 4.68836 104 165 151
-0.355431 -0.158372 4.70409 96 147 133
1.18061 -0.156095 4.89732 120 160 159
1.55588 -0.137958 4.94557 133 171 165
-0.73817 -0.126604 4.66756 166 222 217
0.240397 -0.127337 4.78743 101 154 141
-0.770397 -0.111685 4.67367 105 158 145
1.6387 -0.112766 4.94462 79 128 114
-0.353781 -0.0933586 4.71826 93 157 138
-0.0668499 -0.0921942 4.77179 175 234 220
-0.396103 -0.0708333 4.72802 80 153 137
-0.718439 -0.0617016 4.69177 91 157 138
-0.808465 -0.0584337 4.68448 84 143 129
-0.508404 -0.0457395 4.70415 103 164 150
1.47182 -0.0494181 4.9813 119 144 140
-0.550438 -0.0437076 4.71637 81 137 116
-0.52814 -0.0357584 4.68721 97 146 126
1.51118 -0.0347592 4.9904 91 109 108
-0.771392 -0.028506 4.69042 117 167 155
-0.542498 0.00391767 4.72229 75 131 112
-1.02352 0.00956758 4.68199 90 150 144
-1.33774 0.0182643 4.65414 65 142 128
-1.13345 0.0179049 4.68358 96 156 145
-0.405609 0.0224373 4.73337 68 121 107
-2.1296 0.0306418 4.61949 91 165 139
-0.676158 0.0477594 4.72676 91 157 138
-0.522308 0.0541683 4.73671 168 216 210
-0.534447 0.0623039 4.73197 94 145 141
-0.436717 0.0635738 4.7483 204 238 237
-0.0411562 0.113141 4.79253 91 146 119
0.0975726 0.11651 4.83021 100 159 145
-2.08047 0.13046 4.62193 250 255 253
2.1747 0.190656 5.10147 91 132 125
-0.983573 0.179969 4.7276 103 164 154
-0.965131 0.205887 4.73457 93 165 145
2.11408 0.283442 5.12232 84 96 90
-0.960186 0.312609 4.76658 87 149 133
0.733621 0.351967 4.97336 111 173 155
-2.42737 0.344037 4.65528 100 155 140
1.78804 0.390896 5.09535 91 135 122
-1.36244 0.367917 4.74596 92 157 141
1.62419 0.394471 5.0863 115 167 157
-1.67444 0.37194 4.72347 144 206 190
0.890638 0.424396 5.02654 104 163 159
1.85817 0.43841 5.09017 140 203 177
1.84223 0.442145 5.10664 64 111 89
-2.41468 0.422338 4.67351 89 148 140
-0.866467 0.484151 4.82304 86 151 130
0.318879 0.531476 4.95965 84 153 138
-0.411461 0.56187 4.88715 90 137 128
-0.5035 0.580016 4.87506 104 160 141
-1.08677 0.600061 4.82208 174 239 214
-0.926304 0.634317 4.84762 96 144 120
-0.1803 0.644735 4.9285 99 172 156
-2.48496 0.645068 4.72809 193 231 231
0.95466 0.714863 5.12274 88 147 133
-0.440508 0.685893 4.9075 116 173 164
1.15986 0.720746 5.13674 95 159 153
0.0695201 0.71835 4.98281 100 162 148
0.244058 0.734774 5.01175 108 158 154
-0.446348 0.726232 4.9061 108 151 140
-0.539119 0.735115 4.91404 75 137 115
-0.0732842 0.743575 4.9775 96 149 139
-0.480773 0.736393 4.91561 134 171 161
-0.759166 0.738134 4.89227 170 222 212
-1.07518 0.736632 4.8565 112 168 157
-0.165642 0.755035 4.9579 82 131 115
-0.39807 0.759315 4.94087 75 112 102
-0.330246 0.779926 4.96058 106 161 152
-0.160106 0.784727 4.96688 63 96 81
-0.167041 0.797955 4.96612 54 118 88
-0.0809418 0.806221 5.00287 97 144 118
-0.504674 0.829256 4.92619 89 142 129
-0.0456522 0.852362 5.01501 90 145 128
0.141058 0.859324 5.03636 97 160 150
-0.114254 0.854284 5.00257 75 137 123
0.166031 0.86492 5.03799 81 133 123
-0.714255 0.849983 4.92204 106 157 143
-0.378271 0.855629 4.95507 155 197 186
-0.16155 0.863059 5.00061 103 156 146
0.285209 0.873392 5.05588 71 108 98
-0.49723 0.856609 4.9378 87 110 96
-0.55898 0.861889 4.92479 144 218 182
-0.492911 0.860376 4.92338 71 98 82
-0.508281 0.866336 4.93066 128 169 141
-0.370014 0.873043 4.95746 86 129 120
-0.464881 0.866907 4.9228 72 111 86
0.188428 0.891551 5.05017 110 175 154
-0.431117 0.884159 4.95688 59 73 55
-0.598263 0.885674 4.93486 105 162 129
-0.645512 0.89014 4.94148 88 145 124
-1.84888 0.891312 4.84634 186 238 231
-0.282462 0.917991 4.98351 69 123 110
-0.47934 0.911357 4.92956 70 157 119
-0.155968 0.927051 5.0161 79 150 134
-0.42881 0.921187 4.93926 82 155 129
-1.40834 0.915247 4.8839 84 139 130
-0.217111 0.95082 5.0024 97 158 132
-0.289235 0.962799 4.98559 84 119 105
0.111769 0.984055 5.05267 87 144 129
-0.623391 0.96593 4.93802 100 165 144
-0.580543 0.98128 4.9601 91 137 124
-1.85826 0.963169 4.86326 105 166 156
-0.762912 0.980707 4.95234 82 133 113
1.23159 1.04191 5.23087 106 168 162
-0.615542 0.988633 4.95361 55 113 85
-0.544686 0.99719 4.94005 115 178 146
-0.694402 1.00895 4.97427 173 225 208
-0.683968 1.01292 4.98224 79 115 103
-1.51183 0.999481 4.90649 93 158 149
-0.121282 1.0266 5.03595 96 155 135
-0.0371749 1.03301 5.07068 82 150 125
-0.602307 1.01308 4.96595 93 147 117
0.923584 1.07353 5.19591 150 220 207
-0.927037 1.02203 4.94202 89 141 124
0.820278 1.07315 5.18873 138 202 180
-0.116725 1.05848 5.04686 89 142 122
-0.623942 1.04376 4.96592 89 138 116
0.180893 1.07275 5.10057 97 149 139
0.827546 1.09115 5.17955 131 189 164
-0.492358 1.05656 4.97376 90 138 109
-0.860393 1.05939 4.97329 81 152 135
1.44446 1.15774 5.29735 105 169 157
-0.487692 1.09685 4.99095 75 125 95
-0.191239 1.14772 5.07489 94 164 123
-0.140792 1.15022 5.06275 78 152 110
-0.805375 1.13375 4.98604 75 132 107
0.554548 1.18908 5.18453 86 123 107
-0.116151 1.16518 5.08395 89 151 121
-0.797695 1.16513 5.00883 84 152 121
-0.263256 1.18065 5.06918 104 167 157
0.571748 1.21359 5.20541 94 154 148
-0.429308 1.18577 5.04629 154 230 189
0.67037 1.24063 5.20488 114 185 169
-0.42358 1.20276 5.0325 77 144 105
-0.862689 1.20167 5.01614 79 141 125
-0.287118 1.21582 5.06559 90 138 110
-0.79733 1.21073 5.0217 89 146 121
-0.453067 1.22856 5.06532 71 121 89
-0.347811 1.22856 5.07782 84 129 113
-0.709327 1.23169 5.03962 81 117 103
-0.802944 1.23081 5.02389 76 109 95
-0.0970668 1.25195 5.10513 95 140 121
0.475671 1.27983 5.18247 123 167 154
-0.667552 1.26407 5.07316 75 94 79
-0.401349 1.28111 5.07213 158 238 185
-0.508438 1.29409 5.08266 105 145 140
-0.111021 1.30559 5.12494 148 208 197
0.593177 1.33445 5.23795 97 139 108
0.00188663 1.31951 5.14982 91 122 107
-0.148063 1.31653 5.11201 91 109 92
-0.299786 1.32037 5.1174 85 121 91
0.137533 1.33202 5.16717 182 234 224
-0.791596 1.31274 5.07675 84 134 124
-0.73292 1.3217 5.08327 97 157 147
0.46573 1.34901 5.19679 95 134 119
-0.153338 1.3371 5.1219 50 91 54
-0.3359 1.3413 5.10129 79 137 102
-0.130475 1.35361 5.13831 83 139 116
0.540078 1.39175 5.25496 156 213 192
-0.563217 1.35254 5.10329 98 158 140
-0.287892 1.36589 5.12361 74 122 98
-0.376716 1.37695 5.13335 89 139 109
0.0124151 1.38482 5.16406 88 142 125
0.563643 1.40359 5.23984 103 155 145
-0.366003 1.37399 5.10924 64 106 81
-0.130464 1.39113 5.18036 73 121 92
-0.0322375 1.38519 5.157 146 224 187
-0.761089 1.37493 5.09139 99 158 150
-0.0270612 1.39422 5.15775 105 173 148
-0.0785285 1.40423 5.16502 154 219 198
0.651237 1.44266 5.27853 122 172 168
-0.392686 1.40336 5.1255 98 150 126
0.457829 1.45514 5.25673 110 166 155
0.0239681 1.45477 5.18743 84 139 124
-0.251195 1.46308 5.16989 98 156 128
0.266219 1.48889 5.23352 100 139 124
-0.668242 1.46302 5.12949 93 146 136
0.260811 1.50393 5.24765 97 152 127
-0.300679 1.48471 5.16332 77 117 92
0.762139 1.53657 5.33088 91 146 129
0.41425 1.51474 5.24092 93 144 130
-0.386143 1.50232 5.16445 65 98 77
0.0374277 1.50813 5.20355 122 178 157
-0.03208 1.53069 5.22807 162 228 216
0.680254 1.56536 5.32261 117 172 155
-0.280564 1.5333 5.19509 108 163 146
-0.307406 1.53645 5.19189 169 211 204
0.652434 1.57795 5.33753 101 157 138
-0.652188 1.53662 5.16838 82 153 133
-0.45959 1.54478 5.18878 80 108 95
-0.393283 1.53332 5.1679 170 226 191
-0.211665 1.54797 5.19576 72 141 114
-0.252194 1.55665 5.20312 95 165 142
0.400449 1.61196 5.30684 125 177 167
0.0580208 1.6007 5.25697 91 155 133
-0.299169 1.60735 5.21605 94 140 118
0.407017 1.65013 5.31552 92 149 124
1.51517 1.70749 5.48864 111 165 158
-1.021 1.60975 5.15556 85 158 136
0.550015 1.6754 5.34221 75 113 107
-0.0355382 1.65303 5.26221 103 166 150
0.405889 1.67697 5.32187 101 171 141
-0.315375 1.65195 5.22984 86 139 125
-0.695959 1.64825 5.20098 96 147 139
-0.368683 1.67188 5.24179 99 158 137
0.0109982 1.68375 5.27774 89 143 120
2.34456 1.79301 5.62327 96 146 136
0.497721 1.71658 5.34997 113 152 137
0.19369 1.79527 5.3387 93 155 131
-1.18305 1.80444 5.20596 99 158 144
-0.0730143 1.88489 5.35125 72 104 99
0.287072 1.93016 5.41289 103 165 141
-0.117626 1.91974 5.34595 90 141 133
-0.721658 1.91888 5.28567 81 157 116
-0.0797541 1.96314 5.36877 131 207 196
-0.914985 1.9288 5.26531 91 145 132
-0.280378 1.99927 5.3284 88 137 121
0.647276 2.05748 5.48816 138 202 190
0.556023 2.07642 5.48143 92 142 132
-0.0786525 2.05454 5.40657 101 152 144
-0.0910887 2.05727 5.40522 114 165 157
-0.777966 2.05622 5.34527 102 155 146
-0.290011 2.08352 5.38338 76 131 114
-0.523272 -1.72856 4.50426 98 158 147
-0.28279 -1.69513 4.50028 101 157 138
-1.67869 -1.6611 4.41273 74 118 81
1.49201 -1.64172 4.3713 144 214 174
-0.144712 -1.69248 4.53185 98 153 136
-1.77433 -1.60879 4.38359 109 179 138
-0.289269 -1.66199 4.53311 91 160 140
-1.27069 -1.62022 4.44922 84 137 110
0.639 -1.66876 4.60633 104 159 142
-1.97259 -1.57766 4.37487 125 201 159
-1.57942 -1.60304 4.42818 95 161 132
-1.6519 -1.58181 4.40814 59 117 89
-0.375712 -1.59913 4.51657 93 138 121
-0.39825 -1.59429 4.51107 86 121 101
-1.98198 -1.53619 4.37109 89 158 121
-2.4514 -1.53252 4.39245 87 129 111
-1.50226 -1.54713 4.43968 132 186 169
-1.02755 -1.53744 4.47865 111 174 154
-1.72675 -1.48958 4.3942 105 198 159
-2.43178 -1.47286 4.40597 82 138 115
-1.40505 -1.48765 4.44091 84 125 110
-1.57646 -1.47855 4.44235 102 160 132
-1.69401 -1.44607 4.39563 52 101 63
-2.46002 -1.42232 4.37767 78 135 114
-1.61426 -1.43264 4.43967 74 132 97
-1.021 -1.43641 4.49082 97 154 139
-0.322165 -1.44067 4.53164 96 127 112
-0.75921 -1.42695 4.49135 109 172 152
-1.80529 -1.3772 4.3974 132 223 174
0.243834 -1.42801 4.58394 96 150 133
-1.9964 -1.36683 4.42283 109 161 131
-1.86721 -1.34292 4.38867 162 235 189
-0.147653 -1.37315 4.56165 67 95 75
-0.0494302 -1.37101 4.58045 86 137 117
-1.8218 -1.31194 4.43714 92 155 111
-1.04463 -1.32333 4.48538 87 152 137
-1.83188 -1.30071 4.42433 160 242 193
-1.63773 -1.29457 4.43376 83 103 80
0.788789 -1.33384 4.5722 68 104 98
-1.87178 -1.28678 4.41913 80 143 103
-1.57035 -1.29434 4.44622 80 132 108
-1.64034 -1.25166 4.44271 81 129 103
-1.86155 -1.24047 4.41393 73 122 90
-1.70006 -1.22947 4.44326 67 106 85
-1.87052 -1.22128 4.4243 72 129 96
-1.93943 -1.20249 4.42667 76 126 96
-1.77248 -1.20611 4.44295 171 243 200
0.561711 -1.25803 4.63619 98 165 150
-2.20075 -1.18925 4.41094 91 164 126
-1.25154 -1.21003 4.4845 100 158 133
0.210425 -1.24709 4.61206 72 124 114
-1.95812 -1.17108 4.41495 95 156 120
-0.106054 -1.21718 4.58935 114 158 152
-2.0278 -1.16737 4.42499 103 162 131
-0.626819 -1.20052 4.52821 92 139 113
-1.65011 -1.17216 4.45055 82 144 108
0.0350247 -1.20907 4.58951 82 150 125
0.902307 -1.19942 4.56698 75 149 121
-0.0694344 -1.20135 4.57881 160 229 216
-1.9133 -1.16133 4.42628 61 110 88
-1.94679 -1.1318 4.44058 88 133 106
-0.56301 -1.15001 4.53481 170 237 208
-2.52084 -1.10196 4.42225 83 133 123
-2.13265 -1.10293 4.43291 102 144 119
-1.86386 -1.08514 4.44723 95 156 120
0.862427 -1.11718 4.56885 81 137 126
-0.840809 -1.08792 4.52262 97 153 140
-0.3344 -1.09156 4.55759 95 147 130
0.367334 -1.11214 4.64064 105 148 139
0.506821 -1.11667 4.67625 93 155 139
-0.771924 -1.06325 4.5221 94 129 115
0.73146 -1.0808 4.59702 143 210 181
-0.551566 -1.06147 4.53845 100 169 156
0.694699 -1.06672 4.59469 53 97 90
1.27892 -0.995046 4.41963 53 99 77
0.042593 -1.04067 4.62446 107 169 157
-0.346774 -1.02334 4.56568 109 175 150
-0.321458 -1.00485 4.55666 95 137 120
1.95489 -1.03726 4.77969 81 103 98
0.554182 -1.00037 4.65336 90 130 112
-2.29241 -0.938965 4.43875 112 172 142
1.0366 -0.943964 4.50054 75 121 92
2.55308 -1.02051 4.88764 93 145 127
-0.147486 -0.960116 4.61478 89 155 136
-0.712544 -0.944968 4.5724 100 153 139
1.10885 -0.932269 4.51749 24 59 39
0.699395 -0.931044 4.61235 82 138 119
-0.823613 -0.908508 4.54069 94 137 126
-0.448321 -0.913435 4.56913 101 161 131
1.89559 -0.934002 4.7475 82 107 81
-0.722508 -0.886482 4.55638 165 242 198
-0.629326 -0.890686 4.57347 81 119 97
0.586941 -0.912204 4.69586 68 149 110
0.0696523 -0.870274 4.65122 164 222 211
1.07737 -0.826839 4.48282 111 166 147
-0.761855 -0.823431 4.55577 35 85 51
1.05852 -0.789729 4.45666 74 130 111
0.991965 -0.796321 4.54036 126 195 182
1.21924 -0.756992 4.43278 122 210 164
1.21616 -0.753502 4.44054 152 230 189
-0.678091 -0.770491 4.58322 71 120 88
-0.433395 -0.766869 4.58706 70 110 85
2.12574 -0.813734 4.91164 109 163 158
-2.49052 -0.719651 4.45961 106 164 140
2.62653 -0.790005 4.90133 102 157 140
-0.418154 -0.721781 4.59363 95 147 130
1.28601 -0.694142 4.41199 122 187 165
-0.321587 -0.717054 4.61577 79 120 112
2.14874 -0.765508 4.92055 108 163 154
0.650594 -0.730116 4.72873 123 155 150
-1.94719 -0.690763 4.50282 89 167 144
-0.535268 -0.699306 4.591 78 132 115
-0.378532 -0.693773 4.60806 101 136 126
-1.70379 -0.653365 4.5322 113 180 151
1.00259 -0.669951 4.6281 150 234 209
-0.350631 -0.662381 4.6068 153 213 203
0.73081 -0.65865 4.74563 119 161 154
-0.973698 -0.627348 4.56207 68 115 93
-0.606278 -0.617645 4.60435 55 104 66
0.750422 -0.640749 4.75796 109 163 156
-2.14473 -0.595308 4.49518 134 216 181
-0.298477 -0.573391 4.64633 88 146 117
-0.809675 -0.561845 4.59134 94 159 134
0.201809 -0.571045 4.7092 83 149 114
-2.13422 -0.520863 4.51376 83 137 114
-2.22876 -0.51111 4.55536 63 109 87
0.234628 -0.518924 4.71549 100 156 137
2.43074 -0.540961 4.94476 107 149 132
-2.16241 -0.456529 4.52024 115 156 135
0.232941 -0.451668 4.72402 117 182 161
-0.513635 -0.402672 4.63531 150 213 193
-1.99389 -0.385407 4.55075 73 151 120
0.84451 -0.392509 4.82524 128 161 154
0.0214199 -0.382173 4.70913 118 187 172
-2.18376 -0.355551 4.53699 143 191 179
-0.533012 -0.325641 4.66221 80 146 127
-0.491785 -0.299324 4.65512 96 153 132
0.485145 -0.302104 4.78833 82 128 115
2.22583 -0.310222 5.00575 109 168 160
-0.821849 -0.268088 4.6409 90 155 133
0.793769 -0.268172 4.85759 83 126 115
-0.612911 -0.24427 4.67356 188 238 228
-0.0142933 -0.19941 4.73143 203 244 239
-0.781243 -0.193364 4.66034 114 175 155
-0.0136353 -0.176944 4.74587 89 176 156
1.37174 -0.153508 4.96194 129 189 165
1.39023 -0.146555 4.94037 69 90 75
1.34758 -0.139298 4.92966 97 126 111
1.55587 -0.13786 4.94615 133 171 165
-1.55186 -0.122466 4.61501 68 122 105
0.555965 -0.0935516 4.82567 131 179 173
0.472696 -0.0793444 4.81989 94 160 148
1.50273 -0.058408 4.98626 145 199 200
-0.533826 -0.0292285 4.71981 63 99 85
-0.849498 0.0315431 4.70633 113 167 150
-1.91299 0.0362932 4.62102 103 147 140
1.21824 0.0589748 4.80477 167 246 219
0.0145033 0.0656509 4.81087 105 160 133
1.48453 0.072012 4.97931 135 194 179
-2.44847 0.0768532 4.58378 200 233 226
-2.08663 0.132088 4.62929 254 254 254
-0.897224 0.175173 4.72152 94 169 141
-0.496646 0.206928 4.75768 77 139 123
-0.0250601 0.207255 4.81277 71 131 113
2.1439 0.234086 5.10424 101 142 137
2.1041 0.287813 5.12016 76 83 80
-2.16857 0.280881 4.66785 95 162 130
2.52094 0.315201 5.18611 90 146 125
-1.21094 0.293125 4.74543 106 177 160
-1.3743 0.331438 4.7249 66 130 111
-2.43678 0.34329 4.66452 118 173 158
0.890787 0.424883 5.02827 104 163 159
-0.814914 0.422002 4.79581 85 143 125
-2.41509 0.420635 4.68447 96 146 142
0.301365 0.452343 4.93686 105 156 152
-0.465074 0.458747 4.8399 94 152 141
1.6063 0.508225 5.12111 122 179 170
-0.779911 0.547445 4.83078 97 168 142
-0.87698 0.557061 4.82173 105 167 149
-1.02446 0.589738 4.82208 103 151 139
1.08378 0.633879 5.10517 101 154 145
-0.293521 0.656039 4.92747 165 225 217
-0.480025 0.669007 4.8916 100 150 140
-0.442455 0.689119 4.9061 110 170 162
-0.691065 0.693676 4.87993 88 127 111
-0.324208 0.702008 4.92154 108 144 130
0.127392 0.714685 4.98331 90 160 147
0.94733 0.755876 5.11825 90 157 148
-0.443439 0.728117 4.91196 79 119 108
-0.326536 0.73166 4.92139 95 145 127
-0.355312 0.745279 4.92778 87 142 123
-0.197304 0.758026 4.92928 79 140 120
-0.398276 0.758429 4.9384 73 109 95
-0.329891 0.777753 4.95452 109 166 158
0.150648 0.793164 5.02435 122 166 153
-0.230404 0.797097 4.96541 183 236 223
2.40017 0.866955 5.3416 107 146 138
-0.277324 0.812997 4.95084 202 241 239
-0.501564 0.858218 4.93293 65 93 73
-0.389106 0.859321 4.95003 85 128 107
0.284945 0.87409 5.05778 80 115 105
-0.35924 0.878259 4.95465 197 232 235
-0.645158 0.891675 4.94546 94 153 139
-0.361818 0.895039 4.95423 145 195 185
-0.443867 0.903997 4.93536 136 224 184
-0.327948 0.913511 4.99549 119 202 177
-0.619083 0.928474 4.96388 82 136 93
-0.764473 0.933519 4.93674 93 159 140
-0.574395 0.929937 4.91091 66 106 95
0.113179 0.978849 5.03932 95 153 135
-0.589317 0.962831 4.92871 71 102 75
-0.173088 0.980851 5.01179 139 208 175
-0.958977 0.990803 4.94351 184 230 224
-0.490829 0.992215 4.96708 209 239 244
-0.0709613 1.02085 5.05475 75 130 111
0.012355 1.0331 5.06496 75 129 112
-0.711383 1.02255 4.98925 91 156 110
1.31144 1.078 5.25543 110 161 154
-0.687508 1.0345 4.96841 61 116 91
-0.621656 1.04301 4.96528 90 141 113
-0.319033 1.05823 5.01245 62 120 91
0.832582 1.0917 5.17553 161 225 190
-0.976475 1.05972 4.96987 100 155 138
1.31981 1.13899 5.26522 116 149 142
-0.7437 1.0839 4.97631 77 143 108
-0.65843 1.08585 4.98443 106 168 144
-0.472378 1.08757 4.98882 139 226 198
-1.13968 1.08579 4.96409 79 146 119
0.0559224 1.11834 5.08495 90 145 128
-0.0112037 1.13536 5.09634 119 166 158
-0.922673 1.12081 4.98935 97 151 138
-0.80567 1.13732 4.9929 77 131 108
-0.0523463 1.17863 5.08987 86 127 112
0.417986 1.20848 5.16701 78 142 123
0.831203 1.23331 5.22065 81 118 102
0.837102 1.25146 5.20794 57 90 69
-0.347411 1.22548 5.07081 93 141 123
-0.457096 1.22842 5.07087 83 138 99
-0.302898 1.24343 5.08035 76 133 102
0.869048 1.29599 5.25889 97 132 122
-0.215198 1.27964 5.0989 78 123 96
-0.190437 1.28283 5.11397 144 208 179
-0.648347 1.27555 5.06358 105 129 117
0.48517 1.31427 5.22104 94 133 118
-0.698533 1.28709 5.04509 133 223 180
-0.50651 1.2903 5.0657 107 146 138
-0.225434 1.29497 5.09377 147 215 192
-0.850836 1.28947 5.04312 93 148 133
-0.439819 1.29982 5.08433 77 153 112
-0.479124 1.30046 5.06345 115 161 138
-0.198521 1.30703 5.09193 131 193 153
-0.302951 1.31925 5.10472 77 121 92
-0.271943 1.32302 5.11505 159 222 206
0.085633 1.34063 5.17033 95 145 135
0.0869498 1.34442 5.17179 99 155 142
-0.503565 1.33508 5.10561 76 103 83
0.0180334 1.35394 5.16112 61 117 98
-0.287647 1.36371 5.1189 74 122 98
-0.129776 1.38943 5.17664 72 120 92
0.556459 1.39953 5.23109 123 167 150
-0.28913 1.38197 5.1227 73 99 76
-0.939487 1.38352 5.07906 106 172 161
0.0762936 1.41894 5.1819 125 199 165
0.651237 1.44266 5.27853 122 172 168
0.587245 1.45204 5.26891 86 123 115
-0.0117393 1.43321 5.18802 108 161 148
0.86605 1.48101 5.33583 112 163 155
-0.260664 1.43614 5.15848 85 130 114
1.43219 1.50778 5.39215 105 159 146
-0.251375 1.46573 5.17546 96 154 129
0.725695 1.505 5.3252 100 148 136
0.259279 1.49669 5.23911 105 135 122
0.0385766 1.5067 5.20546 97 147 123
0.617107 1.5486 5.31807 87 145 127
0.0519267 1.53969 5.22851 95 165 129
-0.610636 1.54707 5.14814 105 154 140
-0.133587 1.57136 5.21757 114 156 145
-0.56795 1.57883 5.1937 127 183 172
-0.299667 1.60737 5.2161 94 140 118
0.313381 1.63008 5.29244 98 140 122
0.64964 1.68503 5.361 89 128 120
0.600812 1.69168 5.36399 138 194 181
-0.695475 1.64863 5.20172 82 133 125
-0.671419 1.68433 5.21634 75 138 122
-0.16321 1.70831 5.26637 113 162 142
-1.21651 1.75685 5.18939 116 187 171
0.387185 1.82907 5.37657 93 147 130
-0.603472 1.79502 5.25127 95 150 131
0.298589 1.82818 5.3609 94 137 116
-0.914244 1.92949 5.26653 92 148 135
0.178297 2.00063 5.41793 57 112 97
0.427441 2.03355 5.48583 106 162 157
0.465131 2.04012 5.47842 92 160 153
-0.925865 1.99576 5.28262 90 152 140
0.117393 2.05508 5.43703 101 165 143
1.54813 2.13416 5.64537 97 158 144
-0.269417 2.06685 5.38165 92 139 113
-0.269914 -1.69413 4.53091 103 138 124
-1.64108 -1.6471 4.41994 85 123 95
-2.25013 -1.62916 4.40466 88 146 117
-1.97841 -1.62872 4.41185 107 155 126
-1.61104 -1.61179 4.43871 95 136 105
0.748372 -1.64905 4.5967 103 133 122
-0.689448 -1.60439 4.49485 91 164 124
-1.76975 -1.55837 4.39359 65 104 79
-0.43127 -1.60268 4.52455 97 136 111
0.675506 -1.63782 4.61635 116 167 159
-1.36312 -1.56491 4.4529 87 162 124
-1.7548 -1.51819 4.37025 66 141 97
0.624043 -1.58571 4.60334 159 229 212
0.607329 -1.58309 4.60664 99 143 130
-1.72347 -1.45788 4.37287 111 166 121
0.94117 -1.52073 4.56041 68 123 120
-1.41554 -1.46829 4.45745 69 116 100
-1.69757 -1.44415 4.38617 54 100 58
1.52246 -1.42072 4.30784 45 65 52
-1.613 -1.4432 4.42518 133 215 172
-0.195169 -1.48749 4.56592 86 116 103
-1.71317 -1.41479 4.40293 61 105 74
-1.10946 -1.44069 4.47566 113 149 125
-1.61242 -1.42138 4.44078 61 102 75
-0.428869 -1.42945 4.51952 131 189 164
2.13909 -1.50306 4.77702 110 114 109
-1.70999 -1.37709 4.40708 85 155 115
0.58466 -1.41147 4.62923 116 171 154
-2.22643 -1.33606 4.39234 101 143 118
-2.00181 -1.3417 4.40342 86 135 103
-1.64753 -1.33986 4.42629 102 165 126
-0.321456 -1.3813 4.55342 101 154 140
0.69792 -1.38612 4.57928 76 135 120
-0.400469 -1.35685 4.52521 163 222 201
0.771696 -1.36407 4.54672 162 228 203
-1.7576 -1.31864 4.41774 160 236 205
-1.04508 -1.32365 4.48994 75 138 122
-1.92641 -1.29434 4.411 153 237 202
-1.85416 -1.29413 4.41037 128 210 161
-1.8742 -1.28725 4.4266 92 157 118
-1.63414 -1.29292 4.43424 72 94 75
0.807091 -1.33342 4.56327 140 209 198
-2.28818 -1.27248 4.41829 92 146 123
-1.77129 -1.26516 4.41942 74 121 88
-0.271848 -1.29977 4.53083 99 158 143
-1.63864 -1.25159 4.44186 92 137 118
-0.803803 -1.26487 4.52302 125 177 159
-0.264432 -1.26855 4.54899 175 227 220
-0.098918 -1.27205 4.56221 168 224 211
1.23814 -1.19739 4.32211 106 154 130
-2.3452 -1.20833 4.41957 98 163 141
-1.75246 -1.20804 4.44928 91 135 98
-1.95283 -1.19435 4.41091 157 240 202
-1.91285 -1.1959 4.44365 79 127 99
-0.740512 -1.20629 4.50799 92 131 105
2.88945 -1.31098 4.8885 139 176 168
-1.73368 -1.18237 4.44224 75 126 89
-0.687696 -1.19816 4.52224 65 85 66
-1.6415 -1.17994 4.45711 103 154 120
-1.73797 -1.16155 4.41724 82 148 99
-1.25713 -1.17874 4.48962 87 156 119
-1.81938 -1.13908 4.44978 84 159 108
-0.699105 -1.16013 4.5261 171 226 207
-2.58812 -1.12788 4.4223 88 140 117
-1.94858 -1.13191 4.44438 88 133 106
0.778833 -1.15868 4.58233 85 138 125
-1.74227 -1.12441 4.45639 100 162 126
-0.661424 -1.14156 4.52416 48 94 72
-0.273085 -1.1502 4.58244 102 149 140
0.387799 -1.16401 4.6482 118 167 153
-0.660666 -1.12505 4.52674 135 207 164
-0.646998 -1.13471 4.55305 80 112 95
-1.7964 -1.08415 4.45731 77 160 115
-1.80859 -1.07346 4.44105 151 232 185
-1.79224 -1.06772 4.46126 93 140 108
-0.398441 -1.10365 4.56586 190 235 226
0.732919 -1.08082 4.59965 140 207 178
0.467715 -1.08862 4.66086 91 134 119
0.696309 -1.06683 4.60292 77 121 114
-2.49046 -1.02037 4.42209 76 120 97
0.0432263 -1.04065 4.62377 99 161 149
-0.253089 -1.03072 4.58033 77 128 100
0.70767 -1.03204 4.59964 60 104 97
1.27701 -0.995053 4.4134 55 93 75
-0.0681233 -1.031 4.61429 121 159 147
1.90802 -1.04387 4.74383 135 184 162
2.07818 -1.04703 4.86969 146 205 197
0.628228 -0.983642 4.5959 75 137 119
1.23742 -0.951011 4.44621 88 142 113
1.49063 -0.924565 4.36853 128 192 163
0.551233 -0.946071 4.67412 97 154 116
-0.573204 -0.907202 4.5915 106 136 123
1.06861 -0.895564 4.52486 71 100 75
-0.35495 -0.894622 4.58241 106 151 134
0.854764 -0.882014 4.64938 63 134 114
1.8736 -0.902801 4.77003 79 100 85
-0.60583 -0.857435 4.57522 117 164 156
0.0880366 -0.872677 4.64922 98 154 133
-0.0738253 -0.847863 4.62102 88 145 130
-0.669287 -0.817614 4.5778 178 234 221
-0.444084 -0.815641 4.57495 75 116 84
1.20844 -0.788943 4.42575 35 61 43
1.5768 -0.798543 4.45602 84 111 95
-0.0210508 -0.802667 4.635 83 138 121
0.30374 -0.804551 4.68902 193 227 226
1.21775 -0.756785 4.4376 141 220 179
-0.763723 -0.772699 4.55874 95 152 131
-2.49627 -0.740165 4.46267 91 160 133
-1.73203 -0.741078 4.51396 102 160 135
2.12195 -0.812103 4.90609 105 156 152
0.181818 -0.757352 4.67382 102 158 129
0.712349 -0.728037 4.72746 120 148 148
-0.537199 -0.698816 4.59878 105 167 143
0.250242 -0.718992 4.70986 105 146 141
2.57704 -0.753582 4.91383 76 125 111
1.08822 -0.685665 4.55372 49 98 82
1.07189 -0.646274 4.52892 52 110 92
-0.56659 -0.649921 4.60817 85 136 116
-0.0588153 -0.656513 4.65563 97 157 139
0.341592 -0.6674 4.69543 74 110 80
1.00891 -0.650695 4.61823 79 124 105
0.34551 -0.663483 4.75092 56 120 85
-0.672188 -0.629158 4.58818 98 157 137
-0.663651 -0.612111 4.59479 178 240 222
-1.98165 -0.567258 4.52388 87 149 119
-0.577595 -0.577924 4.6438 117 176 155
-0.816066 -0.563088 4.60871 95 161 136
2.70723 -0.595882 4.95917 118 176 148
-1.70876 -0.542157 4.55775 90 168 137
-0.234305 -0.544036 4.65793 108 177 164
-2.02217 -0.521768 4.54731 128 178 154
-2.16669 -0.485634 4.53513 72 91 66
-2.29077 -0.48096 4.52275 116 157 142
-0.486093 -0.484221 4.61449 88 136 124
-2.15654 -0.457675 4.51193 126 174 150
0.0970777 -0.47556 4.68916 101 161 151
-2.08688 -0.426052 4.52172 230 255 250
-0.38987 -0.444083 4.63251 98 154 135
-2.18119 -0.356165 4.53261 144 196 179
-0.29972 -0.364864 4.68388 184 239 230
-0.269347 -0.358369 4.68634 98 152 135
0.480933 -0.36704 4.78957 114 166 156
2.39725 -0.341623 5.01509 128 182 169
1.40128 -0.311701 4.91222 90 135 119
1.41243 -0.295908 4.89859 87 133 127
1.62428 -0.300404 4.93016 120 196 184
-0.488184 -0.239682 4.68683 87 144 135
0.905977 -0.215145 4.84573 84 127 116
-0.716851 -0.196139 4.65814 104 166 148
1.57599 -0.171162 4.94348 115 145 140
1.63733 -0.164992 4.96528 167 219 212
1.35376 -0.158002 4.94464 91 127 115
1.39048 -0.146422 4.94113 69 90 75
1.62846 -0.141814 4.95816 75 121 108
1.40415 -0.131585 4.94668 126 183 168
1.48 -0.131945 4.95566 67 101 90
1.44987 -0.123373 4.94118 135 188 175
-2.68235 -0.0991803 4.4791 125 163 157
-0.7452 -0.0395606 4.68421 109 165 146
-0.0881191 -0.0112468 4.81106 126 179 170
2.42677 -0.0252034 5.08946 125 179 162
2.54639 -0.00538297 5.13389 83 96 82
-0.788661 0.00226877 4.70622 99 148 134
0.0676243 0.0467977 4.80729 85 145 127
-2.18564 0.0685718 4.63671 86 151 135
2.30374 0.12102 5.13473 172 232 222
-0.894989 0.17278 4.71187 96 165 138
-1.90918 0.192365 4.67657 93 146 133
2.16775 0.211983 5.11717 172 225 212
-1.40996 0.317067 4.73523 94 160 148
2.44711 0.363774 5.20002 130 204 192
2.48907 0.357211 5.2192 84 129 113
0.729553 0.354933 4.95905 103 165 151
0.557035 0.388648 4.96041 102 153 145
-2.31705 0.396518 4.6851 82 140 129
0.302209 0.453493 4.94073 113 167 162
0.774216 0.500044 5.02906 103 163 157
-1.03211 0.495416 4.78804 105 170 148
-0.782223 0.552332 4.84604 93 163 140
-0.747903 0.54536 4.83482 68 121 107
-1.02422 0.591085 4.82611 102 151 137
-0.293163 0.658834 4.93575 161 224 215
-0.317458 0.681995 4.93198 198 235 231
-0.286278 0.674844 4.90612 69 101 84
0.961233 0.72611 5.10672 101 168 153
-1.05884 0.707227 4.86131 100 148 136
-0.490627 0.727158 4.87851 68 91 69
-0.442089 0.767949 4.90365 65 112 80
2.53639 0.833389 5.32103 97 144 135
-0.165339 0.785981 4.96764 83 121 103
-0.2783 0.809417 4.93121 199 238 236
-0.370427 0.830255 4.96373 105 126 123
-0.549037 0.847146 4.92964 76 135 104
-0.339564 0.852494 4.94681 103 132 123
-0.372358 0.858504 4.93441 75 114 106
-0.435113 0.881174 4.94537 62 78 61
-0.0729402 0.892227 5.00281 113 175 153
-0.839094 0.879048 4.91228 108 159 155
-0.558314 0.883367 4.93741 68 144 112
-0.676757 0.916301 4.94374 84 128 111
-0.61259 0.922226 4.94899 98 144 108
-0.507863 0.932677 4.93196 49 102 69
-0.32215 0.938828 4.97799 48 78 43
1.22336 0.986248 5.21019 106 167 163
-0.349755 0.944531 4.95404 50 83 48
-0.530572 0.983437 4.92156 76 118 95
-0.250594 1.01868 5.03026 183 219 227
0.936063 1.06747 5.22183 76 108 103
1.31014 1.07045 5.23321 112 159 156
0.81845 1.06524 5.16492 145 218 192
-0.286028 1.04201 5.02731 74 116 93
-0.924133 1.02953 4.95732 83 135 118
-0.61734 1.03368 4.9723 157 223 194
0.793293 1.07789 5.1835 77 131 101
-0.412967 1.043 4.97948 56 97 82
-1.55167 1.03432 4.90554 116 173 170
0.833723 1.09349 5.17994 146 206 172
0.106675 1.07766 5.09274 184 228 222
0.713101 1.10664 5.18919 77 125 107
0.881675 1.11016 5.18735 118 170 146
0.917449 1.11918 5.22988 75 102 86
-0.286277 1.10012 5.02429 94 125 94
-0.19479 1.12719 5.05867 75 150 106
-0.043581 1.12868 5.07619 87 123 107
-0.463765 1.13704 5.02376 72 119 93
-0.676094 1.14963 5.022 64 82 69
-0.207774 1.17458 5.08045 105 181 140
-0.470615 1.17186 5.02146 92 127 117
-0.698548 1.20396 5.0416 163 217 200
-0.331734 1.20663 5.06626 166 220 213
-0.329679 1.20859 5.07067 153 212 204
-0.456724 1.2236 5.05993 81 128 96
0.78523 1.2547 5.21592 83 131 113
-1.18238 1.26326 5.01531 94 146 136
-0.225203 1.2969 5.09804 147 215 192
-0.400224 1.30006 5.08726 77 130 103
-0.261699 1.30279 5.09031 79 128 108
0.377868 1.32336 5.17506 74 144 114
-0.218819 1.30891 5.08583 72 128 99
0.0871681 1.343 5.16864 99 155 142
-0.336246 1.32775 5.09868 52 101 69
-0.563811 1.35317 5.10561 98 158 140
-0.36773 1.37128 5.10478 61 102 75
-0.323759 1.38477 5.12944 55 84 59
0.449221 1.41009 5.2328 129 165 153
2.13687 1.48962 5.51279 112 165 156
-0.350928 1.39064 5.11152 177 231 224
-0.297408 1.40932 5.14069 72 132 101
0.593745 1.45686 5.28545 68 109 101
0.0770476 1.43346 5.16248 92 151 120
0.626096 1.49115 5.29741 101 159 141
-0.519654 1.46436 5.1327 89 142 115
-0.305244 1.48926 5.17304 76 123 97
0.416379 1.51804 5.25555 111 159 147
0.0529717 1.542 5.24179 83 150 119
-0.218594 1.55902 5.23583 95 162 133
0.662299 1.61839 5.35396 184 233 225
0.316303 1.63752 5.30734 85 133 115
-1.01612 1.59695 5.13315 91 143 125
0.43482 1.65415 5.31507 68 102 85
0.548771 1.66561 5.32689 99 146 137
0.50256 1.71315 5.32863 80 104 94
2.47407 1.84421 5.61239 158 200 193
-1.22007 1.76655 5.20762 86 159 143
-0.603435 1.7956 5.25235 95 150 131
-0.104336 1.82732 5.32521 94 140 128
0.427591 1.90082 5.40952 108 144 138
-0.393012 1.88287 5.30554 95 167 137
-0.238031 1.88104 5.29567 96 148 138
0.0558332 1.95375 5.39436 80 125 108
1.55006 2.13711 5.65067 97 158 144
-1.96859 -1.60696 4.40007 78 129 95
-2.17044 -1.57408 4.38909 85 139 102
-1.90846 -1.57344 4.40123 152 230 193
-1.98347 -1.56221 4.40946 82 136 99
1.46449 -1.54013 4.33243 77 113 83
-1.96493 -1.55947 4.3913 57 107 65
-1.83197 -1.52785 4.37644 162 241 198
1.37484 -1.49968 4.29534 180 235 216
-1.72413 -1.51486 4.40728 61 96 70
-1.84761 -1.49821 4.39345 70 118 92
-0.235584 -1.54663 4.53145 97 131 114
1.67081 -1.46149 4.33609 78 117 96
-2.34618 -1.43911 4.3908 75 109 92
-1.95785 -1.42825 4.40239 79 136 111
1.24905 -1.41072 4.33592 122 148 135
1.69014 -1.41731 4.33524 82 125 98
0.870972 -1.46158 4.53618 75 113 118
1.629 -1.40051 4.33505 111 158 132
2.24702 -1.5322 4.81107 120 142 137
-0.757644 -1.40931 4.49563 97 152 135
-1.98756 -1.35125 4.40845 86 140 105
1.28047 -1.35309 4.39992 26 37 27
1.86694 -1.35595 4.43692 51 55 43
-0.196469 -1.36325 4.55843 169 223 210
2.24609 -1.43886 4.8339 116 168 158
-2.11603 -1.31129 4.42244 97 141 124
2.24949 -1.43992 4.84531 119 168 160
-1.57689 -1.30553 4.45546 93 147 112
0.936775 -1.317 4.51481 106 147 119
1.27649 -1.27313 4.33593 103 151 122
-0.679108 -1.31209 4.49604 106 151 118
1.40614 -1.27631 4.37705 41 52 32
-1.79867 -1.27952 4.42282 150 239 195
0.879591 -1.32033 4.54794 87 123 107
-2.28112 -1.26957 4.41268 103 152 132
-0.275683 -1.30912 4.56074 108 167 152
-0.165079 -1.30263 4.57723 112 181 160
0.878093 -1.30029 4.55036 74 112 100
2.13568 -1.34058 4.7876 111 138 134
0.859662 -1.25885 4.58452 62 92 79
-0.794329 -1.2406 4.52079 129 182 155
1.2272 -1.16925 4.30205 84 124 106
-2.19849 -1.19225 4.41599 99 166 134
-0.685963 -1.19815 4.5227 65 89 71
0.655071 -1.21577 4.57532 72 122 104
-1.90804 -1.16889 4.46347 142 222 179
-1.64923 -1.18175 4.46294 94 138 107
-1.88035 -1.14355 4.43639 52 88 58
-2.115 -1.13869 4.44325 107 152 126
0.408773 -1.19295 4.65083 124 170 157
-0.719779 -1.14132 4.51413 108 157 135
0.926235 -1.13528 4.58043 110 158 130
0.421382 -1.10975 4.65602 110 163 149
-2.58127 -1.0419 4.41949 78 117 101
1.2705 -1.0407 4.39364 79 123 92
2.5898 -1.14419 4.88053 119 172 145
-1.39565 -1.02976 4.48989 114 187 147
1.53353 -0.985825 4.35844 128 212 164
1.08315 -0.989629 4.53048 60 90 65
1.92702 -1.01609 4.79272 59 75 58
1.11432 -0.939731 4.53214 36 59 45
1.46893 -0.911221 4.36982 62 101 79
0.751084 -0.930072 4.6691 54 100 88
1.07132 -0.875413 4.45799 65 101 84
1.95088 -0.942312 4.80532 147 195 169
-0.487945 -0.89407 4.58344 89 165 124
2.07186 -0.944197 4.87441 68 88 83
1.07078 -0.855406 4.49056 39 58 43
-0.204754 -0.868063 4.60715 185 230 221
0.363047 -0.88536 4.68823 72 129 108
0.249017 -0.858809 4.65631 102 167 128
1.18188 -0.835373 4.50164 221 254 240
0.258635 -0.843006 4.66388 90 154 125
1.04178 -0.812421 4.46625 155 214 206
1.1069 -0.818764 4.51715 59 95 79
-1.30515 -0.782439 4.53344 115 182 143
1.13696 -0.785032 4.47237 159 227 202
2.57264 -0.841664 4.87839 90 139 123
2.89076 -0.816705 4.94342 94 140 128
0.293778 -0.761876 4.68578 102 165 133
0.803729 -0.738336 4.70956 106 157 149
0.243102 -0.717587 4.69572 92 138 126
1.1451 -0.687164 4.47657 70 108 90
0.332534 -0.703576 4.67249 135 179 156
0.336239 -0.665106 4.6748 74 111 79
-0.613546 -0.593804 4.61508 84 143 115
-0.640376 -0.584601 4.61906 189 233 220
0.759763 -0.593264 4.76108 111 161 149
-0.302203 -0.572337 4.66255 96 158 128
-2.22374 -0.508077 4.51718 71 108 88
-0.967492 -0.517685 4.57836 98 167 146
0.835915 -0.545406 4.77777 93 148 121
-2.19714 -0.499951 4.52693 137 197 167
-0.143764 -0.511127 4.6654 79 141 125
-2.28854 -0.482389 4.52527 122 165 152
-2.16687 -0.48545 4.53668 79 95 71
-2.14768 -0.440656 4.54722 102 137 110
-2.06128 -0.430054 4.53641 73 130 99
-2.09261 -0.423543 4.5284 239 254 250
-2.44088 -0.379676 4.55985 113 160 144
-2.41825 -0.384493 4.52402 108 162 149
2.71174 -0.372618 5.01917 99 144 135
-2.52117 -0.315063 4.54213 115 163 151
1.23541 -0.346736 4.87332 109 155 149
1.53474 -0.345646 4.86009 56 82 64
1.63789 -0.350438 4.88739 133 195 183
1.48379 -0.337132 4.84378 116 170 157
-2.27439 -0.242437 4.53078 79 113 103
-2.33283 -0.223821 4.54128 109 173 167
0.778517 -0.234742 4.85272 111 157 144
1.46582 -0.166396 4.9303 125 171 159
1.32529 -0.159108 4.98186 137 200 190
1.27229 -0.149255 4.88713 116 151 137
1.6452 -0.141532 4.9503 60 110 98
1.9865 -0.141006 5.0663 123 195 173
-0.327958 -0.130637 4.70584 113 154 147
1.22188 -0.122664 4.89357 78 97 88
-2.69719 -0.0723337 4.57844 43 59 48
1.24263 -0.0863886 4.83993 153 211 183
-0.695649 -0.0744647 4.69921 79 132 118
2.38645 -0.0298457 5.09385 122 154 143
1.48725 -0.0254877 4.9676 72 91 82
-2.69205 -0.00981824 4.571 76 114 96
2.40603 -0.00993718 5.12705 89 108 93
2.47141 -0.010992 5.13738 60 75 54
2.35074 0.0128364 5.11997 159 223 204
1.49537 0.0963577 5.00502 120 164 151
2.15403 0.214463 5.1078 165 220 205
0.00189664 0.228867 4.84121 114 151 143
2.17207 0.265592 5.15101 67 93 75
2.09796 0.291346 5.11809 58 73 69
2.46138 0.34337 5.16609 86 122 110
2.49258 0.360044 5.23024 82 130 112
2.45692 0.371547 5.22999 133 202 191
2.54389 0.840636 5.35507 119 175 162
-0.0153386 0.815591 5.01489 198 230 229
2.4041 0.924188 5.30346 98 138 136
-0.64089 0.873725 4.93841 100 149 121
-0.690266 0.887388 4.9086 90 133 112
-0.426936 0.910794 4.94419 58 84 60
0.84692 0.95756 5.20636 126 166 154
0.8841 0.957186 5.18772 102 142 131
-0.637393 0.950273 4.95335 95 152 119
-0.252096 1.01656 5.01169 176 210 223
-0.685916 1.03273 4.97283 74 118 101
0.794828 1.08064 5.19035 70 126 97
-0.242166 1.06296 5.02359 75 113 91
-0.319045 1.08299 5.01726 93 139 103
-0.637411 1.09207 4.99546 172 224 201
-0.293347 1.1007 5.03151 61 91 56
-0.618449 1.10879 4.98475 54 105 67
-0.0499013 1.1329 5.09869 81 115 98
-0.597883 1.11294 4.97597 60 111 73
-0.0710759 1.16407 5.08942 65 106 79
-0.534429 1.15227 5.00911 102 168 127
-0.414364 1.16658 5.02173 105 153 125
0.0499297 1.24534 5.14191 81 129 101
-0.395374 1.24158 5.03655 88 143 104
0.838109 1.30928 5.24033 96 148 138
-0.307784 1.2844 5.09644 147 205 194
-0.682158 1.31332 5.13491 52 95 58
-0.16691 1.32349 5.11397 63 85 56
-0.312304 1.3312 5.12557 103 150 117
0.589333 1.36291 5.22652 130 187 172
0.273335 1.39456 5.20011 112 169 148
-0.323453 1.38825 5.13692 53 79 56
2.12881 1.48042 5.49078 103 159 148
-0.100326 1.40738 5.17053 74 117 96
0.507127 1.42828 5.25124 75 99 87
-0.3618 1.44109 5.14591 105 166 138
-0.527075 1.46676 5.15757 96 142 120
-0.411217 1.48301 5.15726 72 102 77
-0.318003 1.55031 5.18346 73 101 78
0.556958 1.60156 5.31362 93 137 120
0.200138 1.59588 5.25686 81 126 110
0.530359 1.69716 5.37945 165 225 214
0.649528 1.68757 5.36343 90 132 121
0.036702 1.72564 5.30547 66 109 82
2.51319 1.8544 5.66164 83 122 107
0.661276 1.78151 5.42601 105 148 133
2.54413 1.88654 5.72532 95 130 120
2.37964 1.9106 5.65258 132 188 177
0.589086 1.8351 5.40643 100 151 124
0.305088 1.83231 5.3696 104 147 126
0.263285 1.8675 5.37064 110 151 123
-0.364734 1.85199 5.30243 78 142 120
-0.36487 1.87554 5.3076 93 148 139
-0.721782 1.90412 5.28257 105 165 131
