ply
format ascii 1.0
element vertex 497
property float x
property float y
property float z
property uchar blue
property uchar green
property uchar red
end_header
-0.526163 -0.837833 2.41593 105 184 145
0.275226 -0.869638 2.75931 158 197 199
0.555725 -0.72355 2.89987 115 112 107
-0.808502 -0.468136 2.03686 105 139 133
-0.522183 -0.0309452 2.32239 172 238 219
0.563556 -0.957558 2.86557 155 217 205
-0.167894 -0.808088 2.58323 135 179 178
0.492728 -0.756452 2.8601 156 166 173
-0.159946 -0.544981 2.60126 172 225 216
0.0819322 -0.454787 2.71977 108 129 130
0.245728 -0.432164 2.80423 108 138 155
0.208944 -0.262809 2.66855 110 148 118
0.0718443 -0.112062 2.72373 92 135 120
-0.522337 -0.0309635 2.32238 172 238 219
0.498087 -1.32268 2.74801 121 123 131
-0.3934 -1.12535 2.4601 112 164 154
0.809966 -1.30971 2.86414 83 152 115
0.670918 -1.26824 2.82721 198 237 221
0.55647 -1.24381 2.7936 113 122 131
0.777519 -1.25757 2.86518 161 200 192
0.873112 -1.15034 2.92984 110 145 125
-0.35358 -0.928074 2.47633 151 208 183
0.17068 -0.992056 2.68632 112 142 131
0.183542 -0.98042 2.69568 185 228 225
0.56415 -0.9575 2.86562 149 211 199
0.573952 -0.940041 2.87522 151 202 195
0.411964 -0.907329 2.80882 125 147 152
-0.185703 -0.813903 2.56356 123 136 138
-0.490824 -0.740863 2.42865 78 121 110
0.134383 -0.790147 2.71018 189 223 236
-0.111277 -0.736904 2.60665 161 214 211
0.0152892 -0.749088 2.66478 108 140 135
0.282254 -0.74638 2.77837 217 234 243
-0.000127211 -0.707011 2.66166 130 188 177
0.396171 -0.74517 2.83054 158 188 189
0.402689 -0.730809 2.83832 171 189 188
0.399779 -0.723739 2.8382 119 134 136
0.17508 -0.695459 2.74461 221 239 246
0.356784 -0.71413 2.81761 130 167 171
0.142939 -0.620212 2.73806 119 143 163
-0.117039 -0.527014 2.62448 130 153 161
0.424393 -0.572602 2.86888 176 195 198
0.185428 -0.535628 2.76722 193 214 222
0.519135 -0.564978 2.91331 129 134 125
0.421194 -0.542988 2.87021 139 157 180
-0.161914 -0.47484 2.60426 87 114 111
0.0378267 -0.488067 2.69636 126 158 164
0.129855 -0.486627 2.74137 117 149 155
0.340162 -0.481323 2.8429 120 141 162
0.541608 -0.468051 2.93138 224 244 249
1.09027 -0.480637 3.012 124 187 155
0.527321 -0.457337 2.91873 144 183 197
0.487847 -0.434543 2.91731 160 191 194
0.128885 -0.365287 2.74198 223 243 248
0.0692206 -0.257253 2.72846 78 119 104
-0.323276 -0.202732 2.4481 125 184 156
-0.0457944 -0.205177 2.66603 41 121 90
-0.504243 -0.0618067 2.32546 82 121 105
0.837811 0.0317481 2.96648 163 210 178
0.657688 0.129155 2.89093 150 212 190
-0.00359851 0.119731 2.69885 169 214 205
0.00212931 0.125236 2.69945 69 90 87
0.6414 -1.33125 2.78013 142 173 152
0.722361 -1.34023 2.82638 100 137 133
0.957315 -1.35884 2.89856 143 153 160
0.865714 -1.31387 2.88164 134 165 162
0.899708 -1.28512 2.90857 106 133 130
0.909099 -1.26603 2.91399 163 197 196
1.13131 -1.25209 2.88257 60 79 60
0.48506 -1.18499 2.77409 230 247 236
0.235166 -1.14698 2.69477 175 202 212
0.443737 -1.18099 2.7694 140 144 149
-0.311482 -1.05614 2.48719 175 218 205
0.875314 -1.2222 2.92174 148 183 173
0.659112 -1.15604 2.85532 219 249 236
1.23098 -1.18345 2.93329 108 139 124
0.719026 -1.15459 2.88425 198 233 207
-0.34046 -0.994329 2.48737 112 127 119
0.873777 -1.14916 2.93785 126 169 142
1.18485 -1.14774 2.92902 114 147 132
-0.413879 -0.942525 2.44897 108 160 150
0.303032 -1.05657 2.74564 123 173 169
0.466992 -1.05952 2.79892 115 127 129
0.263501 -1.00882 2.72729 125 144 151
0.434909 -1.03224 2.79645 129 142 156
0.263727 -1.00884 2.73023 127 149 155
0.516815 -1.04689 2.83766 137 168 169
0.17545 -0.985316 2.69284 165 201 189
-0.310535 -0.866608 2.51251 77 129 106
0.542367 -0.96716 2.85465 91 127 121
-0.301159 -0.83013 2.50904 73 84 68
-0.142937 -0.824783 2.57914 71 107 93
0.193291 -0.861219 2.73554 139 180 175
0.419809 -0.885103 2.81908 119 139 140
-0.161308 -0.807223 2.58005 100 127 117
0.207835 -0.851729 2.74139 151 193 192
-0.322588 -0.778525 2.50464 159 192 195
0.334103 -0.858053 2.78298 193 218 222
-0.0614569 -0.794498 2.62843 108 132 132
0.308796 -0.844662 2.79186 118 131 139
0.461594 -0.798215 2.84923 134 146 140
-0.00176593 -0.707819 2.6619 126 175 159
0.483069 -0.742793 2.85512 151 176 178
0.440699 -0.73149 2.84638 102 112 112
-0.832999 -0.497248 2.04347 104 175 149
-0.274428 -0.612714 2.54315 89 147 129
0.0864965 -0.645347 2.7033 109 144 157
0.684175 -0.674767 2.83286 148 203 188
0.0589741 -0.634625 2.69491 109 136 133
0.701774 -0.670288 2.8512 97 142 123
-0.304306 -0.589157 2.53013 85 149 130
0.676596 -0.644585 2.84876 131 157 143
1.02601 -0.61776 2.93605 81 88 67
-0.177502 -0.520873 2.59455 119 160 153
0.19885 -0.536766 2.78109 107 114 123
0.298106 -0.539669 2.81403 131 160 175
0.421635 -0.544222 2.86785 147 161 183
0.482517 -0.523785 2.90815 137 162 172
0.477439 -0.512796 2.90054 178 210 223
0.208652 -0.478768 2.77857 145 168 183
0.498919 -0.483932 2.92225 114 122 135
0.21385 -0.455924 2.78152 187 205 216
0.176121 -0.446302 2.76629 100 129 136
0.34266 -0.460853 2.84748 124 143 156
0.236635 -0.445229 2.8005 159 185 201
0.635994 -0.471143 2.98161 163 195 190
0.136559 -0.43255 2.75553 111 140 137
0.32544 -0.433402 2.83773 218 237 244
0.157798 -0.389919 2.76018 108 138 133
0.53223 -0.417253 2.94591 157 178 179
0.55181 -0.393946 2.94574 154 170 176
0.470219 -0.385379 2.92175 141 189 165
0.477269 -0.380433 2.92716 91 120 117
0.541514 -0.347603 2.94706 174 199 201
0.55138 -0.343829 2.95567 88 92 103
0.531373 -0.336432 2.95549 112 142 147
0.579792 -0.338674 2.97063 72 83 80
0.0927429 -0.308232 2.73737 99 135 121
0.641389 -0.247009 2.93405 105 151 128
-0.172494 -0.208982 2.49805 106 173 144
0.611595 -0.239435 2.92989 63 64 62
-0.0194771 -0.161315 2.6771 59 95 83
-0.185724 -0.12103 2.55789 100 148 120
-0.185504 -0.116767 2.54969 151 221 185
0.0740202 -0.11196 2.72993 61 106 89
0.101743 -0.114351 2.74163 97 147 113
-0.527988 -0.0634784 2.31592 215 254 246
0.551017 0.0656719 3.0093 135 174 183
0.511905 0.0786207 2.98278 124 166 165
0.750302 0.0827987 2.93753 125 191 162
-0.0321826 0.133182 2.65655 111 156 129
2.45659 -2.49384 -9.21115 96 146 128
0.621196 -1.44045 2.76353 207 224 227
0.0862413 -1.35083 2.61195 144 175 176
0.878898 -1.46136 2.8354 188 215 206
-0.532881 -1.22309 2.39611 138 135 161
-0.562632 -1.20229 2.38594 107 143 137
0.394654 -1.32251 2.72024 146 159 173
0.470937 -1.32572 2.74597 122 130 147
0.496799 -1.31624 2.75846 194 213 218
0.644421 -1.33348 2.79747 168 218 194
0.424823 -1.29285 2.73985 143 137 154
0.7599 -1.34079 2.83008 205 238 224
0.456983 -1.25861 2.75709 116 119 127
0.372975 -1.22118 2.73671 145 167 173
1.376 -1.32369 2.96711 133 173 138
0.259338 -1.17734 2.68853 112 163 165
0.714557 -1.23829 2.85803 105 129 135
0.895139 -1.26541 2.91089 106 134 128
0.867765 -1.24228 2.91353 207 228 229
0.234924 -1.14646 2.69625 182 208 215
0.461847 -1.17949 2.78078 109 110 114
0.816997 -1.22427 2.90407 109 132 124
0.116215 -1.11595 2.64848 108 159 155
1.15059 -1.21504 2.89874 62 93 78
0.67229 -1.1688 2.86257 98 160 146
0.594961 -1.15002 2.83866 143 152 162
0.657383 -1.15598 2.85859 208 241 227
0.811467 -1.17742 2.91226 209 232 234
0.837942 -1.17609 2.91825 200 224 224
0.219434 -1.0826 2.69653 102 134 133
0.73273 -1.15139 2.88451 76 112 88
0.566265 -1.11537 2.83245 145 162 171
-0.539111 -0.944677 2.40609 110 179 159
-0.364549 -0.966752 2.47757 100 124 112
1.20383 -1.14313 2.93398 118 136 123
0.401365 -1.05571 2.78465 148 174 180
-0.516786 -0.902784 2.40681 102 160 136
-0.341593 -0.935883 2.49376 67 79 61
1.27234 -1.09365 2.95848 179 205 175
1.26981 -1.07143 2.95659 64 79 65
0.215392 -0.957217 2.72257 115 168 165
0.39288 -0.979598 2.79002 136 159 167
-0.312322 -0.874872 2.50606 137 204 183
0.542602 -0.967197 2.86035 74 112 106
0.418286 -0.937491 2.8066 137 154 167
0.562541 -0.957346 2.86844 152 214 202
-0.105841 -0.859651 2.59703 94 100 89
0.304177 -0.917664 2.75853 124 143 156
-0.300974 -0.831586 2.512 70 82 62
0.389296 -0.907895 2.80502 150 173 175
-0.561925 -0.763148 2.4041 120 185 163
0.28275 -0.876584 2.76721 87 98 96
0.284737 -0.876202 2.77292 120 134 132
0.048604 -0.827815 2.66446 112 142 143
-0.322211 -0.778574 2.50371 155 186 187
-0.100752 -0.806942 2.60171 140 177 175
0.451847 -0.872956 2.81895 145 169 167
-0.0154473 -0.814041 2.64303 122 173 165
-0.0848089 -0.798223 2.62521 121 151 146
-0.0222408 -0.805842 2.65058 103 149 143
0.0846507 -0.811467 2.68781 137 168 167
0.234068 -0.808216 2.74602 200 218 229
0.214603 -0.798757 2.73477 120 125 134
-0.0281318 -0.738191 2.64031 133 174 169
0.505687 -0.799275 2.86646 108 105 100
-0.336783 -0.690055 2.50113 93 145 128
0.0850451 -0.738997 2.68204 223 234 242
0.157312 -0.749365 2.71588 135 164 171
-0.0295584 -0.721266 2.6448 138 175 173
-0.13111 -0.692659 2.60986 123 182 161
0.343766 -0.74502 2.80517 187 210 218
0.489655 -0.755276 2.85622 169 187 194
0.0718592 -0.710606 2.6961 104 133 130
0.00341172 -0.693602 2.66584 102 130 131
0.345481 -0.73385 2.81218 142 156 168
-0.18385 -0.66574 2.56908 141 165 177
0.29565 -0.698619 2.7817 119 124 149
0.459205 -0.720828 2.85431 70 64 57
0.0479401 -0.674865 2.69048 127 157 158
0.694702 -0.705121 2.83295 60 61 51
0.770023 -0.703794 2.84894 59 54 39
0.405656 -0.691722 2.84865 125 146 161
0.433582 -0.69223 2.86353 157 187 188
-0.218666 -0.614724 2.55604 120 167 158
0.306663 -0.665428 2.80491 107 121 139
0.487008 -0.672849 2.87757 149 176 186
-0.793876 -0.478631 2.06115 131 191 180
0.392366 -0.645889 2.84415 114 118 136
0.729425 -0.641175 2.86744 117 141 123
0.459406 -0.638159 2.87872 155 182 186
-0.0674911 -0.581522 2.64398 155 180 190
0.704472 -0.630761 2.86696 111 137 114
-0.119554 -0.567975 2.61928 132 176 177
0.80276 -0.625625 2.90469 110 149 134
0.433643 -0.606828 2.86748 119 116 125
0.183855 -0.578462 2.76359 201 220 228
0.996851 -0.613163 2.94819 124 141 120
0.517425 -0.565153 2.91392 124 128 123
0.298846 -0.539226 2.8165 112 145 160
0.44376 -0.545861 2.87678 172 207 217
1.03747 -0.5652 2.97096 46 54 37
0.49839 -0.551902 2.91668 154 177 185
-0.131177 -0.475805 2.61149 120 183 163
0.482746 -0.523911 2.90433 113 129 142
0.157002 -0.483458 2.75835 106 122 134
0.209129 -0.477818 2.78365 140 161 176
0.0734653 -0.447948 2.7087 101 131 132
0.572387 -0.478535 2.94853 83 98 94
-0.0688642 -0.399069 2.64399 70 117 91
0.498814 -0.440711 2.91871 87 97 107
0.241122 -0.396065 2.8035 211 239 240
0.240855 -0.396174 2.80309 211 239 240
0.741269 -0.402921 2.93117 142 182 170
0.944591 -0.399675 3.0027 154 216 180
0.553156 -0.379852 2.94662 99 107 106
0.148613 -0.336936 2.76414 114 143 134
0.548368 -0.345942 2.94654 131 141 141
1.0093 -0.365595 3.06574 170 220 188
0.540491 -0.330928 2.95277 163 194 191
0.0428338 -0.28893 2.70758 99 139 127
0.0680376 -0.257077 2.73138 84 124 113
0.654122 -0.259907 2.93513 57 62 53
0.661437 -0.249193 2.93772 119 171 154
0.0451319 -0.20698 2.7242 66 95 79
-0.309176 -0.182843 2.46483 109 166 133
0.0727195 -0.106762 2.74186 83 146 114
0.284091 -0.0797176 2.75433 125 179 162
0.0458916 -0.0706236 2.71457 104 154 142
0.0972193 -0.0651449 2.75318 60 73 51
-0.527953 -0.0436612 2.31419 120 163 160
0.258586 -0.0479574 2.7442 132 169 167
0.100502 -0.0490454 2.74751 152 184 173
0.110063 -0.0386238 2.75832 70 89 72
0.134526 0.00542443 2.7775 158 207 185
0.138766 0.0419254 2.78329 161 198 188
-0.236355 0.0705095 2.54664 82 149 118
0.817877 0.104435 2.97789 168 225 192
0.644848 0.111622 2.88582 66 92 68
-0.00780004 0.108471 2.70034 74 135 107
0.762129 0.128952 2.93537 226 251 237
0.706814 0.144051 2.91576 89 120 87
0.661907 0.222273 2.9465 114 155 134
0.0865481 -1.34805 2.6013 124 157 160
0.619234 -1.43466 2.75989 202 219 222
0.118515 -1.3387 2.61444 136 160 166
0.905552 -1.46937 2.85712 107 135 129
-0.439313 -1.22883 2.41702 162 189 186
0.606706 -1.41365 2.77541 132 146 144
0.881988 -1.40979 2.85756 117 163 157
1.23656 -1.43937 2.91673 89 108 99
0.744552 -1.37718 2.81827 64 63 49
-0.514067 -1.16666 2.42152 127 154 151
0.488222 -1.31667 2.75416 197 219 225
0.681649 -1.33892 2.80127 130 171 156
0.772267 -1.36375 2.84256 158 197 195
0.661675 -1.33445 2.80069 73 103 84
0.4246 -1.29271 2.73853 143 137 154
0.783499 -1.34228 2.84396 105 130 126
0.749799 -1.32035 2.8429 90 129 107
-0.374565 -1.12801 2.46439 114 162 150
0.456593 -1.25726 2.75335 116 119 127
0.464513 -1.25907 2.75705 132 129 138
0.535705 -1.27165 2.78995 155 173 174
-0.587782 -1.0846 2.39673 116 153 151
0.746228 -1.2751 2.83961 76 94 81
0.124618 -1.18027 2.64854 114 139 149
0.740137 -1.26701 2.85538 74 102 83
1.3429 -1.32217 2.95582 43 47 41
0.147808 -1.17965 2.66452 119 155 163
0.732944 -1.24619 2.84361 187 223 217
1.39742 -1.30936 2.98092 153 195 164
1.18251 -1.26543 2.90272 81 95 77
0.194481 -1.15987 2.6691 110 135 137
0.585956 -1.21796 2.81414 165 198 201
0.453797 -1.19276 2.75894 109 114 112
0.13296 -1.14261 2.66198 143 178 188
1.27023 -1.2656 2.93567 175 211 181
0.449223 -1.18202 2.77727 127 138 142
0.445916 -1.1744 2.77236 176 188 192
0.805857 -1.22529 2.91126 126 157 148
0.237904 -1.13219 2.70142 126 136 143
0.296138 -1.13433 2.7247 105 128 130
0.335389 -1.14188 2.73568 143 170 180
0.349319 -1.14112 2.74041 109 144 147
0.47124 -1.15553 2.78587 195 217 223
0.488686 -1.14773 2.795 114 118 123
0.347046 -1.1237 2.73822 112 137 141
1.073 -1.18594 2.89631 70 81 73
-0.370856 -1.0038 2.48349 122 166 153
0.591476 -1.1493 2.83919 154 164 174
0.225142 -1.06651 2.70191 129 170 165
0.418581 -1.0945 2.77838 134 158 158
-0.365936 -0.966686 2.48585 90 117 107
0.863078 -1.14067 2.92503 136 182 169
0.298494 -1.05718 2.74053 145 192 190
-0.366699 -0.945976 2.47389 152 222 192
0.470497 -1.06302 2.80538 103 120 117
1.14807 -1.1072 2.92241 111 129 112
-0.146177 -0.976529 2.57234 169 211 204
1.14123 -1.1065 2.90502 126 152 134
-0.342952 -0.935831 2.49025 76 88 68
1.2476 -1.10202 2.94017 127 157 132
-0.167041 -0.955555 2.56185 161 199 193
-0.294314 -0.927579 2.49796 167 220 211
0.43418 -1.03174 2.79599 146 161 177
-0.427462 -0.889183 2.45657 98 134 112
-0.299035 -0.897746 2.50155 181 237 216
0.398761 -1.0041 2.78686 134 166 171
-0.555138 -0.824017 2.40803 114 166 149
-0.116887 -0.87792 2.59706 144 187 176
0.21586 -0.922926 2.72452 129 147 140
0.298578 -0.923997 2.75347 113 127 133
1.22231 -0.992661 2.96258 65 94 79
-0.108131 -0.853247 2.59544 82 90 80
0.455273 -0.931762 2.82001 120 149 154
0.564498 -0.941373 2.86371 76 113 111
0.500093 -0.933634 2.85311 198 231 234
0.527801 -0.933993 2.86075 77 122 113
-0.323478 -0.813323 2.50695 181 225 202
0.55699 -0.929748 2.8727 147 215 204
0.531172 -0.933635 2.87458 83 125 114
-0.120294 -0.822901 2.58362 147 204 189
0.473144 -0.901457 2.82902 97 115 108
0.490871 -0.910329 2.84174 159 201 194
0.0646113 -0.848715 2.66563 204 236 241
-0.560944 -0.76308 2.40367 100 165 140
-0.325797 -0.793724 2.51243 97 129 112
0.282858 -0.873247 2.76166 97 111 107
0.535572 -0.901934 2.85649 94 149 132
-0.111677 -0.810026 2.58221 110 128 121
0.215132 -0.858555 2.73518 112 147 143
-0.27978 -0.791427 2.53233 164 205 198
0.200002 -0.857799 2.72808 149 197 185
-0.329857 -0.77805 2.50396 178 213 216
-0.308087 -0.783134 2.51877 89 101 89
-0.0990896 -0.806722 2.6022 164 199 195
-0.0353658 -0.816638 2.63123 225 245 250
0.092839 -0.837302 2.69597 119 146 143
0.42179 -0.871918 2.81678 103 112 115
0.802047 -0.87146 2.80716 129 160 139
0.150577 -0.833673 2.70778 102 114 116
0.344528 -0.865337 2.80114 147 175 182
0.767087 -0.869955 2.8128 99 111 89
0.126641 -0.8231 2.69405 133 159 153
0.325301 -0.852718 2.7812 172 204 215
0.424363 -0.866814 2.81829 105 113 112
-0.33881 -0.759925 2.50201 110 152 134
-0.0888112 -0.795938 2.61463 130 155 151
-0.0598671 -0.795544 2.63118 101 130 127
-0.00426696 -0.799966 2.65361 129 168 166
0.404313 -0.832288 2.8086 152 191 205
0.0334756 -0.784843 2.6706 135 171 165
0.374409 -0.815138 2.81306 112 143 136
-0.112993 -0.741018 2.60657 96 148 130
0.734021 -0.792514 2.81363 72 78 53
0.388525 -0.786347 2.80526 121 148 145
1.34716 -0.853899 3.03761 182 224 199
0.283576 -0.768543 2.78763 160 174 186
0.362432 -0.777212 2.79965 89 82 79
0.797775 -0.786915 2.82787 97 116 99
-0.336853 -0.69018 2.50027 91 140 124
0.174371 -0.754562 2.73936 213 231 242
0.343846 -0.769314 2.78281 119 125 132
-0.150147 -0.70622 2.58308 124 145 147
-0.152943 -0.70653 2.58302 149 171 169
0.0562597 -0.723132 2.68538 120 151 150
0.390664 -0.742712 2.81848 144 175 174
-0.192512 -0.665455 2.56983 101 123 128
0.266145 -0.718292 2.77326 98 99 97
0.412463 -0.739284 2.84786 90 97 94
0.679737 -0.731909 2.81634 126 165 144
0.425198 -0.729683 2.84058 150 176 182
-0.169855 -0.656232 2.57535 244 247 251
0.429123 -0.72731 2.86617 160 187 191
0.45585 -0.717932 2.84569 75 69 64
0.294809 -0.69867 2.78203 115 122 147
0.402154 -0.720133 2.85062 151 165 177
0.711252 -0.715821 2.83816 145 185 167
-0.145603 -0.635998 2.59001 211 240 244
-0.117147 -0.6491 2.61531 185 220 216
-0.129927 -0.641995 2.61491 80 159 132
0.417956 -0.686794 2.8457 208 227 234
0.431693 -0.692635 2.86146 178 200 205
0.0518004 -0.637353 2.69213 119 171 154
0.327475 -0.665789 2.81603 144 161 170
0.685781 -0.66856 2.84082 149 205 182
0.399876 -0.616389 2.85144 204 224 235
-0.0557551 -0.56973 2.64907 117 130 132
-0.149379 -0.551917 2.60984 77 93 86
-0.14923 -0.552139 2.60849 74 93 84
-0.0558726 -0.560789 2.65224 150 176 190
-0.121707 -0.528837 2.61797 157 186 193
1.04852 -0.603374 2.94339 68 78 55
0.243809 -0.556555 2.79001 142 168 185
0.443943 -0.575811 2.87198 81 82 80
0.999511 -0.570704 2.96692 158 188 163
0.461447 -0.548004 2.88801 92 105 113
0.151328 -0.494646 2.74785 110 122 134
0.255617 -0.500768 2.79495 113 146 155
0.464711 -0.515516 2.88939 203 237 243
0.153197 -0.487117 2.75523 127 141 147
0.504115 -0.506577 2.92456 173 199 206
0.424082 -0.493465 2.8793 153 169 182
0.928614 -0.49367 2.98614 101 118 105
1.13264 -0.504656 3.03327 63 74 54
0.214048 -0.439291 2.78528 126 143 156
0.535551 -0.468012 2.93468 203 227 233
0.591818 -0.473812 2.96223 165 193 194
0.15987 -0.43229 2.75767 218 239 247
0.214735 -0.437296 2.79534 157 186 193
0.25365 -0.441721 2.80055 125 149 161
0.593998 -0.462863 2.96366 141 163 169
0.494616 -0.444055 2.92643 117 129 135
0.526898 -0.425578 2.9219 151 180 187
0.974438 -0.446122 3.01485 113 158 131
-0.0591563 -0.377181 2.64923 166 237 217
0.570729 -0.415202 2.96794 77 77 71
-0.111765 -0.352582 2.61322 95 140 124
0.534008 -0.389442 2.93342 167 193 199
0.537686 -0.385362 2.95322 169 204 207
0.164682 -0.352791 2.77648 79 120 113
1.04441 -0.393639 3.07051 125 179 150
1.70039 -0.423509 3.35371 108 140 123
0.0478246 -0.3332 2.70914 99 144 125
0.558581 -0.354436 2.95924 74 77 75
0.495303 -0.34596 2.93377 88 97 100
0.533257 -0.330023 2.95315 165 196 193
0.526666 -0.313836 2.95352 90 116 110
0.498356 -0.293162 2.93936 78 106 100
0.65117 -0.248359 2.93191 122 174 157
-0.0082746 -0.205751 2.68172 80 139 125
0.0454773 -0.208482 2.71485 86 107 92
0.662479 -0.195181 2.95739 109 135 122
-0.242197 -0.148677 2.5221 144 201 180
0.0126816 -0.0925001 2.68289 185 240 225
0.0694018 -0.0882705 2.74863 157 222 201
-0.528442 -0.0673819 2.31582 196 243 234
-0.464317 -0.0731216 2.34183 85 126 119
-0.201685 -0.0674501 2.52315 116 164 122
-0.268302 -0.0194623 2.52258 92 136 100
0.0831879 0.0210331 2.75881 102 140 118
0.0840239 0.0190806 2.75331 102 138 116
0.688852 0.127873 2.9092 191 245 222
0.760848 0.148785 2.94114 94 149 116
0.828606 0.1508 2.97718 97 136 104
0.70999 0.216903 2.96839 46 48 36
