ply
format ascii 1.0
element vertex 1058
property float x
property float y
property float z
property uchar blue
property uchar green
property uchar red
end_header
-0.47638 -1.68139 4.08626 92 150 145
-1.72673 -1.47144 3.70147 220 232 226
-0.738381 -1.25818 4.08575 132 183 175
2.05 -1.05792 4.23432 155 214 186
-1.08077 -0.992376 4.10697 87 154 139
-1.42949 -0.913562 4.10556 59 138 99
1.34159 -0.82137 4.1897 195 211 224
-1.6989 -0.751226 4.12734 239 243 231
-1.25857 -0.717857 4.18118 159 225 200
-1.32638 -0.663765 4.17426 174 233 213
1.59032 -0.664451 4.21255 131 162 163
1.81989 -0.584002 4.21733 71 141 111
-1.27953 -0.50095 4.23402 86 148 134
-0.2765 -0.494563 4.22678 218 255 241
-1.62275 -0.463721 4.22442 174 229 212
-1.33619 -0.431445 4.24059 82 139 108
-1.2519 -0.425433 4.24592 74 136 106
-1.362 -0.227711 4.30904 93 137 138
-0.840828 -0.199151 4.29918 98 148 138
1.15756 -0.15509 4.25318 86 131 114
-0.768242 -0.0246721 4.34092 191 233 226
-1.8713 0.0195695 4.41658 84 155 129
-1.42323 0.101266 4.42091 64 130 111
-0.62725 0.190385 4.38517 138 205 176
0.932709 0.319959 4.32234 70 144 120
1.62907 0.384673 4.28718 98 170 148
1.28195 0.490307 4.32171 153 204 197
1.56821 0.590025 4.29655 79 151 131
-2.53674 0.678417 4.76061 77 144 123
1.58776 0.82656 4.31888 76 137 111
1.03872 0.88435 4.40986 162 233 200
-2.16916 1.20279 4.93561 225 241 234
-2.19398 1.31024 4.98605 103 151 163
0.858006 1.46763 4.60685 72 89 78
1.2557 1.4416 4.49993 39 94 69
-1.44928 1.67138 5.07037 84 144 133
0.375647 1.61408 4.7005 138 193 154
-0.413491 -1.60646 4.08372 91 140 132
-0.440037 -1.55172 4.06794 96 157 147
-0.514455 -1.4875 4.07856 87 158 142
-0.874506 -1.46946 4.03908 101 159 135
-0.667409 -1.37741 4.07714 111 152 154
-0.679721 -1.36845 4.08289 113 143 138
-0.840324 -1.34111 4.0614 72 116 103
-0.846872 -1.32452 4.0716 130 180 170
-0.353961 -1.31465 4.13395 93 182 143
-0.726078 -1.29438 4.08054 135 188 175
-0.932248 -1.22612 4.06932 151 201 191
-0.908776 -1.21965 4.07611 120 152 141
0.469792 -1.16017 4.20654 86 180 146
-0.937156 -1.1191 4.09775 131 168 158
-0.873183 -1.11861 4.11068 67 109 92
1.76506 -1.1566 4.24116 255 255 255
1.52399 -1.14798 4.23926 136 154 161
1.38631 -1.1433 4.23447 226 251 247
1.78956 -1.14193 4.23669 101 131 120
1.80402 -1.13638 4.23453 120 151 148
-0.165097 -1.09873 4.16255 89 160 143
-2.06981 -1.02491 4.03747 206 244 214
-1.0832 -0.970668 4.11698 84 137 140
1.38763 -0.973727 4.22048 157 165 195
-1.04832 -0.940953 4.12062 158 232 190
0.427766 -0.964258 4.22412 78 150 128
-0.0339158 -0.93003 4.19639 190 237 229
1.31548 -0.843363 4.21074 216 229 243
-0.62175 -0.825491 4.16612 64 134 117
1.33657 -0.823053 4.18396 216 237 245
1.30321 -0.78699 4.20301 120 147 181
1.45848 -0.701823 4.1928 147 167 185
1.34778 -0.674715 4.19804 82 97 123
1.30204 -0.678531 4.23771 244 253 255
-1.32762 -0.663496 4.17754 183 239 216
-1.06585 -0.61162 4.20012 135 155 150
1.41987 -0.594755 4.21385 251 254 255
-1.10374 -0.510974 4.22063 146 206 200
1.23301 -0.509457 4.22856 250 255 254
-1.06873 -0.506505 4.22328 99 158 154
1.39617 -0.473204 4.22291 232 255 255
-1.07128 -0.43633 4.24755 71 139 116
-1.33619 -0.431445 4.24058 82 139 108
1.28889 -0.397022 4.22761 112 176 164
-1.12551 -0.38782 4.263 89 141 131
-1.11198 -0.372372 4.2568 81 130 114
1.22024 -0.367004 4.23944 71 147 116
1.28424 -0.352493 4.22518 167 239 209
1.45467 -0.343852 4.21408 60 119 91
1.24887 -0.340816 4.22733 251 255 254
1.73226 -0.336745 4.22641 99 166 145
-1.47703 -0.328103 4.26795 83 146 144
1.34391 -0.323009 4.22175 94 162 139
-1.49842 -0.321359 4.27084 79 128 138
-0.436284 -0.312765 4.26308 94 160 141
1.35081 -0.297699 4.22533 143 230 192
-2.1005 -0.285399 4.2971 80 137 134
-1.20626 -0.271126 4.30056 204 246 235
-0.567796 -0.267206 4.27502 170 217 209
-1.3187 -0.212939 4.31455 99 155 142
1.72933 -0.19797 4.21701 83 127 98
-1.38881 -0.18707 4.33085 76 143 128
-1.35367 -0.166779 4.32823 245 255 247
-1.99205 -0.16387 4.35715 180 239 219
1.20072 -0.143579 4.23487 71 141 105
1.52054 -0.0610482 4.23872 76 146 116
-0.857882 -0.0256127 4.35012 84 140 111
1.18236 0.0151213 4.25174 202 253 226
1.18226 0.0159055 4.25487 207 252 226
1.23839 0.0477628 4.26829 63 129 94
-1.76316 0.143593 4.46564 72 132 108
1.05986 0.148049 4.29219 74 141 126
-0.941162 0.21515 4.42395 94 151 130
-0.787483 0.361418 4.4589 98 156 132
0.981326 0.398882 4.33639 95 164 149
-2.54653 0.479489 4.68103 75 146 120
-1.21024 0.46789 4.5395 81 158 144
1.36699 0.654193 4.31595 78 153 115
-2.62574 0.95259 4.91228 178 234 215
0.0191201 0.910601 4.53231 75 153 130
1.42681 0.913982 4.35393 166 217 197
1.49066 0.930631 4.34646 157 235 198
1.62907 0.931808 4.34082 69 138 105
-1.11663 1.02162 4.73651 201 235 228
-1.89725 1.18083 4.9061 82 124 106
1.84266 1.12263 4.32796 65 106 91
-1.8438 1.30451 4.9506 86 137 133
-2.60426 1.42311 5.12403 92 144 151
1.32088 1.27189 4.45058 169 234 218
1.39615 1.30459 4.44614 154 240 232
1.43123 1.35068 4.46813 91 109 96
-1.06619 1.49611 4.90715 63 136 110
-2.29187 1.58722 5.14473 172 232 214
1.14071 1.40806 4.5216 88 144 115
0.926972 1.46645 4.58373 125 189 159
0.622264 1.52261 4.64556 73 139 114
-1.44809 1.67095 5.06962 77 138 124
0.601747 1.54347 4.65628 64 100 86
1.15206 1.49584 4.51813 72 107 110
0.73981 1.53632 4.61191 167 227 193
0.620686 1.5566 4.64026 86 105 84
0.519835 1.59029 4.67748 167 223 188
0.316459 1.61406 4.71255 133 189 154
0.190499 1.6392 4.75172 78 136 108
-0.479132 1.70099 4.88835 121 192 159
-0.476616 -1.68581 4.08013 94 132 137
-0.75925 -1.61094 4.01778 102 147 131
-0.636005 -1.60561 4.04561 106 125 116
-0.803532 -1.59209 4.03111 119 173 143
-0.698905 -1.56634 4.04157 120 154 143
-0.467548 -1.57046 4.07808 123 187 157
1.91646 -1.65354 4.29918 99 168 148
-1.01786 -1.52964 4.0102 111 148 128
-0.143365 -1.56824 4.14747 95 155 131
-0.846162 -1.5256 4.04512 95 124 108
-0.518317 -1.51926 4.07778 113 172 158
-0.916609 -1.49203 4.02521 91 130 104
-0.412714 -1.50743 4.09103 215 252 248
-0.635966 -1.48413 4.06092 116 137 134
-0.616721 -1.48698 4.06373 118 164 151
-0.426857 -1.49197 4.09693 209 255 247
0.646457 -1.53746 4.21575 92 148 125
-0.907282 -1.44975 4.04391 95 126 105
-0.816451 -1.42504 4.05124 118 172 143
-0.919444 -1.41371 4.05091 94 144 110
-0.545059 -1.40564 4.08742 164 227 218
-0.82823 -1.38229 4.05541 91 118 98
-0.656925 -1.38001 4.07343 101 138 136
-0.665417 -1.37928 4.08099 111 158 155
-0.919081 -1.36159 4.05777 106 155 147
-0.785497 -1.3574 4.05737 125 173 167
-0.657395 -1.36449 4.07939 126 167 162
-0.840328 -1.34103 4.06047 72 116 103
-0.906107 -1.3339 4.05885 123 185 169
-0.885024 -1.33269 4.06327 121 141 136
-0.842161 -1.32347 4.06253 139 194 185
-0.763348 -1.32646 4.07437 104 163 143
-0.739057 -1.29438 4.08569 75 92 88
-0.726171 -1.2945 4.08203 144 194 182
0.166286 -1.32393 4.1908 103 155 145
-0.907604 -1.2766 4.06499 123 187 175
-0.861864 -1.27787 4.07565 78 132 115
-0.918174 -1.25972 4.06243 136 183 180
-0.740152 -1.25826 4.08906 134 187 174
-0.769936 -1.25556 4.0994 141 183 182
-0.654875 -1.24811 4.09674 184 234 232
-0.825363 -1.23887 4.0775 92 141 133
-0.698306 -1.24296 4.10449 145 198 188
-0.908199 -1.22042 4.0713 126 163 153
-0.704751 -1.22662 4.10138 78 139 129
-0.802854 -1.21569 4.08912 151 228 214
-0.964848 -1.21512 4.08305 146 199 196
-0.808777 -1.20684 4.09262 96 147 139
-1.97665 -1.17337 3.98163 76 135 121
-0.899282 -1.19509 4.07948 135 179 166
-0.950653 -1.19312 4.07718 124 195 169
-0.845369 -1.17062 4.09786 121 201 164
-0.835925 -1.16703 4.10262 87 148 122
1.48593 -1.19773 4.22144 118 138 133
1.48191 -1.18415 4.22131 165 203 191
-0.966262 -1.13736 4.0873 130 195 196
-0.854614 -1.13869 4.10426 70 92 90
-0.917835 -1.12275 4.09268 146 203 194
-0.874878 -1.11866 4.11388 64 103 87
1.85746 -1.15727 4.25043 184 220 206
1.78736 -1.15234 4.24347 131 141 151
0.40734 -1.13122 4.2019 204 241 237
1.80357 -1.13635 4.2339 114 141 138
1.77154 -1.13376 4.23045 177 233 220
1.93535 -1.13714 4.24114 236 251 247
-1.01446 -1.09389 4.10123 80 122 111
-0.993559 -1.08693 4.09499 93 145 151
1.8082 -1.10838 4.23148 153 228 200
1.48103 -1.10033 4.22995 162 179 200
-0.687014 -1.04677 4.12997 181 229 223
0.185172 -1.06103 4.19518 98 168 145
1.86128 -1.05535 4.1906 110 139 136
2.1397 -1.06903 4.25025 90 146 133
1.74158 -1.05118 4.19373 92 156 127
1.49228 -1.04909 4.22867 128 135 155
1.49381 -1.04916 4.2283 145 148 169
1.29216 -1.0422 4.23074 241 255 255
0.14617 -1.0341 4.2 103 170 149
1.83158 -1.02966 4.18947 117 172 153
1.35206 -1.02613 4.21791 152 159 198
1.36353 -0.996578 4.19647 131 144 182
1.81621 -0.993096 4.18893 94 175 148
2.10283 -1.00638 4.24286 93 152 138
-1.68873 -0.961885 4.07002 80 148 125
1.24025 -0.997398 4.23317 245 254 255
-1.58651 -0.959795 4.08329 65 118 104
-1.75709 -0.947895 4.07223 82 152 152
-1.31214 -0.948093 4.09997 181 233 246
1.28162 -0.971929 4.21748 86 93 126
1.46388 -0.967962 4.20882 206 230 230
1.83642 -0.96406 4.19146 137 220 182
0.427368 -0.964255 4.22302 78 150 128
0.691706 -0.958663 4.22787 89 158 145
1.38262 -0.916294 4.20031 198 202 213
1.38563 -0.905664 4.19636 232 241 245
1.3519 -0.871035 4.18539 201 210 219
-1.27225 -0.844199 4.14257 80 146 127
1.30833 -0.852079 4.21305 132 152 177
1.31673 -0.844002 4.20879 251 254 255
1.64176 -0.829738 4.18254 179 225 212
-0.621805 -0.825435 4.16766 64 134 117
-0.798652 -0.817098 4.15203 83 166 128
1.33794 -0.82287 4.18833 221 238 247
-1.16153 -0.804352 4.15507 94 150 139
2.07 -0.79379 4.19796 182 221 213
1.77135 -0.791625 4.20787 154 139 147
1.59478 -0.771514 4.20034 128 140 158
1.39177 -0.760609 4.20259 149 169 194
1.79284 -0.755205 4.20917 212 230 231
1.55476 -0.750265 4.19832 129 132 137
-0.237965 -0.74096 4.20223 93 159 147
-1.61867 -0.729766 4.15122 79 135 112
1.72156 -0.725648 4.1675 109 115 122
-0.748109 -0.724397 4.17497 81 160 127
-1.32551 -0.720191 4.17387 88 158 141
1.51716 -0.724205 4.19464 83 116 95
1.60115 -0.713889 4.17857 215 248 241
1.49341 -0.715438 4.20161 101 151 139
1.5103 -0.716309 4.19721 83 119 113
1.58227 -0.708614 4.18237 208 232 230
-1.18915 -0.693689 4.18218 49 111 87
1.45799 -0.696338 4.21423 255 255 255
1.34272 -0.684773 4.19043 144 171 198
1.8606 -0.682814 4.21117 220 241 238
1.34895 -0.674089 4.19721 91 112 140
1.58161 -0.666944 4.1992 135 175 173
1.63012 -0.66976 4.21109 121 147 134
1.36651 -0.653173 4.19575 111 132 163
1.40084 -0.65283 4.21031 138 163 197
1.58331 -0.640483 4.20213 117 133 150
-1.23577 -0.632258 4.20102 144 221 187
1.10973 -0.635231 4.2288 209 244 240
1.07918 -0.632818 4.23467 68 108 97
1.4642 -0.616691 4.21197 236 245 249
1.38299 -0.602428 4.20847 254 254 254
-1.89536 -0.529773 4.21041 74 131 123
-0.943557 -0.526233 4.22742 84 163 136
-1.42855 -0.518391 4.22201 88 152 133
-1.89399 -0.511147 4.21689 76 121 112
0.212257 -0.49918 4.23187 229 252 254
-1.27719 -0.500222 4.23105 89 151 137
-1.20558 -0.490181 4.23086 180 217 225
1.5095 -0.485038 4.22173 123 166 163
0.666463 -0.478831 4.26272 89 167 144
1.3968 -0.472845 4.22571 232 255 255
2.13921 -0.472513 4.22125 251 255 254
-0.811687 -0.469084 4.23931 90 159 138
-1.47341 -0.459686 4.24409 92 152 144
-1.42039 -0.455854 4.23583 180 227 235
1.13365 -0.444232 4.23833 215 248 244
0.681882 -0.440614 4.26697 93 153 145
-1.0715 -0.436129 4.24914 71 139 116
-1.00585 -0.435449 4.24137 94 157 141
-0.949422 -0.42779 4.24697 92 155 135
1.40956 -0.424814 4.23131 205 228 214
-1.51537 -0.412106 4.25291 62 144 122
1.28878 -0.397094 4.22711 112 176 164
0.166923 -0.384708 4.25623 204 242 244
-1.13125 -0.383201 4.25401 181 237 216
0.16526 -0.377676 4.25503 216 249 245
1.21907 -0.367123 4.23839 78 154 123
1.23287 -0.366125 4.22721 85 146 126
0.361271 -0.357577 4.26704 84 134 170
-1.46561 -0.351408 4.26228 90 146 127
1.45326 -0.344089 4.21233 52 116 80
-1.55962 -0.350877 4.28015 94 153 138
1.51878 -0.340653 4.21097 255 254 255
1.34785 -0.335829 4.22561 99 172 146
1.35854 -0.333684 4.21503 94 162 139
1.40373 -0.325653 4.22267 89 150 130
-1.47711 -0.327852 4.2697 85 148 146
1.34475 -0.322644 4.22406 94 162 139
1.44339 -0.318558 4.20563 254 255 251
-0.829053 -0.319655 4.2726 75 138 122
1.44562 -0.316497 4.2179 253 255 255
-0.436527 -0.312002 4.26791 98 162 143
-1.53149 -0.304373 4.27966 128 167 181
-1.57007 -0.300783 4.27616 161 203 210
0.0798112 -0.296564 4.26707 89 159 158
-2.10111 -0.285138 4.29873 82 139 136
-1.02584 -0.283594 4.29017 91 152 126
1.2954 -0.279977 4.23109 98 162 140
1.4274 -0.267018 4.22559 91 149 121
-0.699675 -0.251449 4.27115 67 123 110
-1.28279 -0.242831 4.30879 177 230 216
1.49618 -0.233226 4.21264 74 136 106
1.42034 -0.231736 4.21901 91 156 140
-0.497889 -0.22866 4.28216 83 142 127
1.63935 -0.219408 4.21374 88 158 135
-1.94482 -0.222672 4.32646 86 150 131
1.53526 -0.218172 4.21869 67 142 104
-1.38767 -0.216017 4.30851 70 127 124
1.57713 -0.207518 4.23576 49 114 93
-1.00748 -0.202554 4.30968 84 147 121
1.73116 -0.197303 4.22061 83 134 106
-1.2639 -0.201476 4.31129 87 125 119
1.36288 -0.195715 4.2346 97 159 145
-0.684168 -0.195815 4.29956 93 151 127
-1.40184 -0.192761 4.32161 87 135 129
-1.3879 -0.18754 4.32836 76 143 128
-0.927025 -0.184081 4.31013 90 157 136
-1.18358 -0.180001 4.3173 169 231 217
-1.35375 -0.167553 4.32834 246 255 254
1.37149 -0.163176 4.22819 80 146 134
1.1716 -0.161037 4.24898 254 254 254
-1.99185 -0.164429 4.35826 180 239 219
-0.886669 -0.152933 4.31474 71 128 107
-0.297909 -0.124309 4.2968 195 231 231
-1.41088 -0.124097 4.33678 82 141 133
-0.701673 -0.121727 4.31871 77 136 116
-1.56308 -0.119007 4.34487 100 162 146
-1.21182 -0.0859817 4.35278 87 146 126
1.52181 -0.0602773 4.24221 76 146 116
-1.5133 -0.0640502 4.36203 106 151 142
0.216497 -0.0557363 4.29958 100 162 156
1.52272 -0.0497496 4.23539 107 163 128
-2.22887 -0.0446005 4.40627 80 152 130
-1.04075 -0.0279299 4.35939 247 252 250
1.42826 -0.0266145 4.23888 86 159 133
-0.856494 -0.0251115 4.35007 84 140 111
-0.768573 -0.0257811 4.344 191 233 226
1.44234 -0.00284933 4.24358 103 177 147
2.02863 0.000710168 4.21429 90 146 123
-1.6325 0.0115364 4.40189 63 107 94
-1.743 0.0247445 4.4182 84 140 111
1.05083 0.0508458 4.27745 75 106 99
-0.220945 0.0719024 4.34005 99 172 146
-1.35895 0.0779659 4.41059 169 226 211
-0.218226 0.0878341 4.3482 76 156 133
-2.2937 0.0951468 4.47704 89 131 124
-0.12895 0.0975767 4.3475 78 154 130
-1.42391 0.100921 4.42194 64 130 111
1.51066 0.135417 4.25037 93 166 144
-1.76422 0.144499 4.46926 72 132 108
-1.39856 0.148303 4.43712 190 244 227
0.768964 0.181019 4.32302 99 151 127
-2.27862 0.189165 4.50933 252 254 254
-0.820412 0.1945 4.4145 98 154 141
-1.67516 0.201236 4.47579 59 135 111
0.551615 0.207505 4.33995 96 157 147
-1.36747 0.219734 4.4628 68 131 105
-0.565256 0.223805 4.39476 77 148 138
-1.33007 0.240517 4.46462 67 137 120
-2.10897 0.253612 4.52699 64 128 122
-1.93682 0.26785 4.52146 60 129 114
0.819536 0.28168 4.34265 96 169 159
1.5881 0.278298 4.26617 106 163 148
1.04224 0.289317 4.33067 95 166 140
-2.0632 0.307991 4.55092 70 107 127
1.23322 0.301982 4.29669 99 173 147
-2.47417 0.340092 4.60635 89 148 144
2.12832 0.314186 4.23249 255 254 255
2.13104 0.316356 4.24465 252 254 254
-0.266772 0.333103 4.41632 81 160 133
1.7005 0.331063 4.27292 75 154 121
0.769589 0.342064 4.34899 57 120 104
-1.89229 0.36057 4.55906 71 145 119
1.20407 0.341076 4.30647 102 173 157
1.60304 0.338977 4.27422 101 170 155
-1.54898 0.367361 4.53024 76 140 118
1.50114 0.352098 4.28105 99 161 137
-1.90603 0.385426 4.56986 65 134 113
-1.86192 0.385772 4.56382 71 130 110
1.3646 0.376143 4.3005 241 255 250
-0.74869 0.393249 4.46308 88 160 137
1.00107 0.391634 4.33894 102 166 154
-2.56232 0.46469 4.67809 68 129 109
1.40702 0.442217 4.31259 255 255 255
-2.54462 0.478263 4.6771 75 146 120
1.40914 0.445338 4.32184 252 255 253
1.6473 0.443717 4.26916 155 229 203
-2.29064 0.50173 4.65002 82 146 127
1.22541 0.47202 4.33563 86 151 135
1.27399 0.49318 4.32629 85 127 134
1.50934 0.489176 4.29655 141 203 173
-0.944352 0.535269 4.53115 88 153 137
-1.49028 0.548724 4.59525 86 154 131
1.46064 0.513892 4.27633 98 145 113
1.19614 0.52732 4.32542 92 153 157
0.961108 0.564315 4.37197 83 150 118
-2.23245 0.610757 4.69018 75 126 112
-0.27642 0.587653 4.48059 73 138 122
0.827202 0.573932 4.37842 76 126 102
-2.5562 0.625209 4.74939 63 88 68
-0.803637 0.597893 4.53898 85 146 132
1.44359 0.570155 4.30349 86 130 101
-0.995993 0.607887 4.56732 97 165 148
-2.57929 0.662966 4.76548 79 107 94
1.56435 0.600365 4.29538 83 148 123
-2.5443 0.672908 4.77315 126 194 171
-2.22343 0.694945 4.7319 68 120 103
1.78215 0.63783 4.2703 86 137 103
1.32726 0.659036 4.32357 80 141 105
-0.850112 0.700517 4.57519 64 133 118
1.66513 0.665724 4.29084 150 238 202
0.0821948 0.743808 4.49124 66 134 127
1.10483 0.723777 4.36715 92 161 151
0.583048 0.74189 4.44059 78 121 148
1.06262 0.737188 4.37465 100 157 148
1.47793 0.749994 4.32215 88 139 112
1.86913 0.739993 4.27197 106 160 130
1.41363 0.754157 4.3228 84 157 131
-0.775994 0.815355 4.62123 207 244 242
1.32493 0.7633 4.33114 151 226 194
1.61649 0.761179 4.30189 96 164 129
-2.61417 0.887646 4.8842 85 128 113
1.03829 0.80156 4.38824 93 151 146
-0.71857 0.845679 4.60536 73 152 125
-0.480711 0.856079 4.57846 65 144 123
-1.67127 0.898644 4.76665 74 138 108
-2.6265 0.953357 4.91424 179 234 215
1.36687 0.844494 4.35953 75 119 90
1.10789 0.850703 4.38103 109 166 157
-1.64751 0.936457 4.77614 69 128 113
-0.849303 0.92447 4.65695 89 159 142
-0.298022 0.91638 4.57699 74 148 130
1.57062 0.879602 4.32715 76 137 117
1.04523 0.907756 4.40118 111 150 172
1.45 0.9033 4.34157 206 245 213
1.41349 0.90622 4.34183 66 115 95
1.4501 0.909085 4.33013 80 134 104
-1.21365 0.998107 4.72417 71 108 136
1.94428 0.942114 4.30531 102 164 148
1.40357 0.958532 4.35716 61 110 90
-2.046 1.09998 4.88792 170 227 226
-2.03143 1.09865 4.88415 65 104 96
-1.63722 1.09009 4.84047 89 143 126
-2.00151 1.10079 4.88334 97 137 119
-1.99544 1.12851 4.88817 154 221 200
-1.88218 1.15434 4.87146 251 254 252
-1.43843 1.14922 4.83721 57 112 95
1.3803 1.04664 4.38566 82 156 128
-1.89783 1.18174 4.90814 80 122 104
-2.12262 1.19329 4.92667 158 206 234
-2.0582 1.19605 4.90975 63 97 140
-1.97273 1.2235 4.91618 68 99 100
-1.94588 1.23007 4.91455 55 106 92
-1.91426 1.23413 4.93008 159 209 205
1.65698 1.13119 4.37328 94 152 127
1.69198 1.14237 4.36077 79 161 126
-1.92435 1.30087 4.94838 56 102 89
-1.26978 1.28621 4.86444 72 147 125
1.42533 1.1896 4.42139 66 136 105
-2.12191 1.36516 5.00237 75 116 148
-0.649279 1.29659 4.74854 95 150 155
1.59601 1.20273 4.38676 114 177 145
-2.04538 1.37707 4.99622 180 227 225
-2.60917 1.4271 5.13243 90 141 144
1.60715 1.21945 4.39923 48 91 70
1.59122 1.22559 4.40061 145 228 183
-1.49958 1.39515 4.95535 88 150 132
-2.09139 1.4373 5.04921 98 153 138
-2.12444 1.45049 5.05455 92 145 132
-0.770101 1.38245 4.8056 79 138 140
-0.774279 1.39486 4.83066 84 143 153
1.2944 1.29543 4.48294 253 253 253
1.29766 1.28841 4.45164 254 254 254
1.40883 1.31051 4.45091 61 106 80
-0.504768 1.4381 4.7838 89 164 143
1.40167 1.34995 4.46512 228 247 232
1.43023 1.34832 4.46366 103 123 110
0.52992 1.41407 4.62376 222 255 243
-1.55103 1.53609 5.01587 78 137 122
1.05386 1.39928 4.53869 95 128 121
-0.933042 1.51933 4.9004 206 243 233
1.13699 1.40234 4.51077 128 182 152
1.20043 1.40309 4.51416 116 162 133
1.14264 1.41267 4.53024 99 151 121
1.05153 1.4273 4.5492 153 221 186
1.00129 1.4399 4.57939 135 212 175
1.01326 1.43293 4.56264 50 84 60
-0.918308 1.54804 4.91558 77 143 118
-0.570466 1.52904 4.84025 104 177 155
-0.490211 1.52212 4.81503 90 167 140
0.966187 1.45112 4.57478 68 97 72
1.0852 1.44261 4.54542 140 211 161
0.894769 1.45285 4.58028 132 200 175
1.04443 1.45117 4.55418 50 87 71
1.25865 1.43323 4.49222 120 175 156
0.928069 1.46852 4.58758 121 184 152
0.999591 1.46597 4.57764 66 89 74
1.23295 1.4565 4.52918 96 133 117
0.802422 1.50039 4.6159 70 114 91
0.731834 1.50848 4.62128 75 130 103
1.03974 1.48857 4.56897 182 186 174
0.622698 1.52359 4.64737 73 139 114
0.907776 1.49949 4.57865 40 51 35
0.644238 1.53057 4.63483 58 108 84
0.60092 1.54171 4.65303 62 98 84
0.641875 1.5403 4.64336 146 202 161
0.856294 1.53431 4.62009 74 96 77
-0.736463 1.63323 4.90849 192 237 228
0.635065 1.54787 4.64893 51 91 56
-2.68443 1.77411 5.30874 79 124 137
0.500692 1.55902 4.67012 62 91 75
0.551026 1.55966 4.66428 56 98 63
-1.11493 1.67285 4.99626 64 127 117
0.543687 1.57168 4.67511 130 190 166
0.316847 1.61627 4.71654 133 189 154
0.362105 1.61532 4.71473 209 207 177
0.190372 1.64079 4.75456 74 132 104
-0.475363 -1.68613 4.08169 108 139 148
-0.784701 -1.62082 4.00879 107 157 145
-0.790536 -1.62003 4.02657 120 166 154
-0.762184 -1.61163 4.02685 111 148 132
-0.761484 -1.61072 4.02101 108 147 131
-0.470378 -1.61881 4.06792 119 182 162
-0.526281 -1.62391 4.07984 107 150 129
-0.833129 -1.56129 4.04259 110 159 139
-0.818625 -1.55176 4.03195 128 173 157
-0.69275 -1.55387 4.05514 126 186 178
-0.772337 -1.54599 4.04303 92 121 98
-0.450194 -1.5636 4.08901 138 201 191
-0.806423 -1.54437 4.04225 95 128 93
-0.457807 -1.54386 4.08767 91 131 130
-0.704179 -1.53262 4.05217 154 207 217
-0.341373 -1.53307 4.10765 94 124 111
-0.567721 -1.49931 4.07176 80 99 82
-0.469043 -1.49874 4.07956 110 165 156
-0.0482022 -1.50178 4.15113 94 166 143
-0.884816 -1.46081 4.04098 104 168 138
-0.518035 -1.45635 4.08074 96 139 126
-0.918478 -1.42025 4.0673 112 163 135
-0.796392 -1.35975 4.06992 133 189 178
-0.935252 -1.35168 4.04912 47 61 43
-0.906061 -1.33254 4.03112 116 181 165
-0.856472 -1.33578 4.04116 52 73 64
-0.884214 -1.33699 4.07537 115 137 132
-0.763088 -1.32635 4.07299 104 163 143
-0.858589 -1.31073 4.08833 136 199 189
-0.710344 -1.31313 4.0874 112 155 140
-0.659344 -1.31569 4.09284 82 126 97
-0.798206 -1.29506 4.07434 125 180 171
-0.741396 -1.29427 4.08924 74 93 90
-0.920488 -1.2602 4.07017 133 184 180
-0.744876 -1.2549 4.089 139 198 184
-0.705365 -1.25516 4.08665 140 201 181
-0.693401 -1.25366 4.09981 102 122 117
-0.697969 -1.24284 4.10247 125 181 168
-0.899435 -1.22113 4.073 66 101 87
-0.964694 -1.21506 4.08188 146 199 196
-0.86876 -1.19402 4.07471 132 197 158
-0.722114 -1.19471 4.10205 110 166 145
-0.756157 -1.19315 4.1022 65 104 96
-0.729228 -1.191 4.10019 81 130 108
-0.913021 -1.17774 4.08803 113 160 144
-0.845332 -1.17087 4.10269 127 209 167
1.75014 -1.18703 4.25428 226 244 237
-0.864506 -1.13241 4.09406 154 208 195
-0.939397 -1.13074 4.09171 111 153 142
-0.961179 -1.12496 4.08811 126 158 163
-0.921839 -1.1247 4.10077 151 208 199
-1.973 -1.10294 4.02929 87 128 107
1.69023 -1.16099 4.23398 228 241 233
1.50311 -1.14871 4.24553 120 173 159
1.8341 -1.14735 4.25582 91 137 124
1.54374 -1.13229 4.24261 253 255 255
1.73914 -1.1268 4.23086 120 131 151
-0.967162 -1.08799 4.09072 96 135 127
1.84713 -1.10305 4.20591 108 103 105
1.84553 -1.08831 4.21373 176 219 206
1.71832 -1.05853 4.19281 161 238 194
1.35725 -1.04559 4.20626 253 255 254
1.30724 -1.04653 4.22822 128 154 178
1.36322 -1.04581 4.22063 255 255 255
0.36743 -1.03471 4.20914 98 161 145
1.29262 -1.04222 4.23102 241 255 255
1.31478 -1.03595 4.21658 239 252 255
2.06552 -1.03175 4.24023 68 102 96
1.44679 -1.00116 4.19707 240 252 254
1.44043 -0.990722 4.20215 184 193 206
0.406977 -0.984505 4.21831 77 135 111
1.67141 -0.98168 4.20456 112 168 145
1.28828 -0.979344 4.25419 101 114 146
0.427513 -0.964279 4.22151 91 158 137
1.4401 -0.95123 4.20114 128 138 138
0.377986 -0.940672 4.21393 93 162 142
1.37798 -0.912074 4.20029 184 194 211
1.41754 -0.886848 4.19471 219 242 244
1.72215 -0.885572 4.18678 146 230 182
1.36397 -0.863073 4.16199 254 254 254
1.34256 -0.831147 4.1899 163 171 200
-1.16153 -0.804352 4.15507 94 150 139
1.75176 -0.794766 4.19938 211 222 219
1.28297 -0.788804 4.20285 253 255 255
1.30313 -0.787006 4.20272 120 147 181
-1.70363 -0.756389 4.12507 252 255 253
1.53115 -0.733516 4.20741 133 205 158
1.55225 -0.732494 4.19972 136 207 167
1.83088 -0.734939 4.20074 251 254 252
1.47752 -0.720039 4.17325 123 153 154
1.50706 -0.719397 4.1809 80 110 99
1.74311 -0.716599 4.19028 161 161 177
1.8062 -0.703461 4.22487 254 254 254
1.34866 -0.674241 4.19539 89 101 125
1.59953 -0.670863 4.18254 91 111 106
1.47864 -0.670509 4.20314 149 170 185
1.07489 -0.630554 4.22987 59 100 85
1.57123 -0.626741 4.20397 220 237 246
-1.07467 -0.607597 4.20255 255 254 255
1.76422 -0.60109 4.22031 150 177 187
1.60261 -0.576692 4.19921 142 153 173
1.45173 -0.551269 4.19266 195 168 177
1.99615 -0.554375 4.21684 111 181 158
1.46481 -0.520821 4.20978 159 184 204
-2.08016 -0.470819 4.2262 60 103 122
1.7521 -0.421821 4.22278 102 164 150
-1.34659 -0.41786 4.25184 90 155 133
1.81584 -0.376111 4.20833 111 177 158
-1.53182 -0.375951 4.25971 161 215 216
1.82424 -0.373294 4.22749 107 181 155
-1.55984 -0.351565 4.27763 98 157 142
1.62606 -0.340782 4.22062 99 157 133
1.35847 -0.334084 4.21268 106 171 149
-0.792771 -0.325725 4.27296 104 172 147
1.43963 -0.32686 4.23487 255 255 254
0.654339 -0.323569 4.26801 199 242 239
1.43953 -0.318903 4.20167 255 255 255
-1.29173 -0.318672 4.28261 172 210 212
-1.5707 -0.300895 4.27522 160 202 209
1.19931 -0.297937 4.24033 92 170 139
1.34774 -0.2729 4.22519 89 160 120
1.61358 -0.248836 4.22163 98 151 131
1.39208 -0.24554 4.22358 78 140 118
-1.10277 -0.224912 4.31972 74 134 116
1.36097 -0.195532 4.22981 97 159 145
1.47793 -0.178666 4.22521 89 151 115
-1.31302 -0.176502 4.31987 94 152 141
1.22545 -0.16063 4.23151 160 239 200
1.759 -0.159349 4.21616 99 172 150
1.565 -0.121556 4.22478 81 145 109
1.21576 -0.0764198 4.25439 60 130 113
1.60874 -0.0762235 4.22987 107 175 152
0.216247 -0.0557532 4.29945 100 162 156
1.21568 -0.0421452 4.26145 59 131 108
1.25794 0.0101346 4.25109 60 119 98
1.18289 0.0151664 4.2606 207 252 226
1.24118 0.050147 4.27803 56 138 103
1.04952 0.0524894 4.28397 88 118 107
-0.750135 0.0636413 4.3712 93 153 135
0.966127 0.108217 4.28061 72 95 81
-1.47169 0.127437 4.438 74 130 111
1.83004 0.138725 4.24142 86 159 121
-1.39785 0.148138 4.43657 192 241 225
1.24708 0.154808 4.27429 77 140 120
-2.27856 0.189178 4.5052 251 255 255
-1.70377 0.189622 4.47763 75 143 120
-1.3735 0.195491 4.4511 61 126 110
-1.39006 0.237814 4.46525 84 146 122
-0.498226 0.298872 4.41865 97 181 157
2.10237 0.286416 4.24027 92 154 140
1.23943 0.307266 4.30856 91 166 145
-0.791998 0.358694 4.45617 114 173 142
1.50402 0.354131 4.27278 47 108 82
-1.9043 0.384983 4.56854 68 137 116
1.72275 0.359826 4.28724 255 255 252
-0.394691 0.382448 4.43878 59 142 120
1.28283 0.381759 4.30489 82 150 139
1.73643 0.388517 4.2765 100 154 125
-2.19999 0.430062 4.61224 85 151 140
1.52787 0.40833 4.28194 77 123 104
-2.56483 0.466294 4.67929 71 130 110
-2.58552 0.482993 4.68061 129 189 165
1.36633 0.446175 4.29713 101 157 128
-2.29144 0.502193 4.65144 82 146 127
-2.5978 0.556176 4.72842 56 84 64
-1.49143 0.55002 4.59911 96 165 144
0.948256 0.53186 4.36423 84 154 114
1.52361 0.533629 4.28323 83 139 104
1.44942 0.569614 4.30243 26 63 43
-2.55393 0.639246 4.75035 127 194 167
1.43289 0.596193 4.31328 158 246 193
2.38625 0.632505 4.24046 124 184 154
2.29142 0.642164 4.25137 78 129 115
1.87207 0.648572 4.26612 81 157 123
1.66876 0.657222 4.28875 82 140 115
1.92759 0.671606 4.27301 123 186 160
2.31829 0.691956 4.25974 92 137 128
0.575518 0.737739 4.43022 89 133 162
1.61649 0.761179 4.30189 96 164 129
1.62572 0.809336 4.30602 156 245 206
-1.75591 0.938086 4.79246 76 137 109
1.83871 0.838664 4.27637 104 163 135
1.32169 0.861554 4.35474 72 131 110
-0.332537 0.920844 4.58545 177 224 222
-2.71279 1.01009 4.96395 89 122 107
1.3229 0.884753 4.34428 84 155 112
-0.531249 0.957165 4.62672 92 176 151
1.4459 0.89934 4.33244 226 255 230
-2.75557 1.08208 5.00138 123 153 134
-2.70603 1.07798 4.98818 63 98 72
0.974505 0.984743 4.43776 78 143 121
-1.80869 1.08334 4.85372 58 115 84
-0.633594 1.06636 4.67352 82 164 146
-2.06983 1.12582 4.88297 74 126 102
-2.63814 1.19021 5.02251 87 126 148
2.00259 1.10503 4.32409 140 210 169
1.98651 1.10538 4.32153 169 239 202
-2.18823 1.2803 4.97751 79 97 158
-2.85257 1.32319 5.12286 84 110 140
-2.20295 1.29463 5.00877 70 101 152
1.62563 1.1433 4.37173 89 125 103
1.97697 1.13481 4.3319 130 205 167
-2.06864 1.32396 4.97759 83 132 158
-2.60329 1.35953 5.09031 85 144 129
2.01026 1.15104 4.32161 128 182 145
1.70172 1.17227 4.36733 61 119 91
1.87712 1.16592 4.32721 110 169 141
1.92136 1.17839 4.35204 137 195 170
1.59563 1.20116 4.38369 144 208 179
-2.03925 1.37058 4.98259 186 230 229
-1.62138 1.42712 4.98304 75 138 118
-0.771709 1.38728 4.81534 73 134 138
1.49795 1.27506 4.39866 74 112 90
1.74637 1.27088 4.37509 115 156 119
1.31217 1.31233 4.45926 84 148 113
1.40883 1.31052 4.45091 61 106 80
1.26833 1.34199 4.48214 49 81 57
1.54992 1.31986 4.41906 48 53 44
1.16482 1.38155 4.51778 105 159 130
1.13732 1.40298 4.51199 104 161 130
1.20369 1.40177 4.51615 113 156 129
-2.71874 1.64059 5.24156 255 255 255
1.25333 1.44018 4.50912 141 217 183
-0.626015 1.55871 4.86383 70 142 119
0.973744 1.46621 4.57893 113 174 130
0.993996 1.4617 4.56912 51 82 61
0.826254 1.48498 4.60301 67 91 73
1.2424 1.46329 4.52277 51 58 55
0.855233 1.50097 4.61499 135 196 158
0.906631 1.48294 4.55754 47 68 43
0.687831 1.50913 4.62902 59 95 78
0.873819 1.50367 4.60115 74 95 73
0.876405 1.51221 4.61682 47 57 44
0.697006 1.54296 4.64113 66 75 62
0.583423 1.5687 4.66222 99 159 128
-1.04972 -1.5799 3.99273 74 89 75
-0.714478 -1.58813 4.04434 89 125 101
-1.96253 -1.529 3.88358 121 111 134
-0.442188 -1.59397 4.08449 87 132 99
-0.733999 -1.56109 4.04695 104 138 114
-0.466738 -1.5694 4.08094 129 190 156
1.88357 -1.64932 4.29034 244 255 255
-0.52638 -1.54406 4.06338 110 143 122
-0.885778 -1.51429 4.03321 119 158 143
-0.910741 -1.48778 4.03741 109 169 135
-0.683115 -1.49892 4.06375 131 157 151
-0.565489 -1.4992 4.07023 81 99 82
-0.706647 -1.45994 4.06348 93 115 97
-0.848466 -1.45147 4.06253 115 165 141
-0.599346 -1.45321 4.06942 145 193 165
-0.874886 -1.38955 4.04599 103 139 115
-0.614452 -1.39079 4.09923 92 109 112
-0.825393 -1.36526 4.06809 60 67 60
-0.660053 -1.31619 4.09612 79 120 93
-0.817181 -1.29789 4.07146 69 109 91
-0.797141 -1.29509 4.07412 126 181 172
-0.727958 -1.29437 4.09183 131 173 162
-0.773964 -1.28488 4.06792 149 202 205
-0.905354 -1.28508 4.09395 110 177 162
-0.691887 -1.24979 4.09738 93 116 111
-0.895334 -1.23829 4.0697 146 209 213
-0.880263 -1.23748 4.07624 150 207 209
-0.846173 -1.21697 4.09081 77 131 114
1.82692 -1.24962 4.25164 104 166 144
-0.999372 -1.186 4.06326 71 125 112
-0.842561 -1.2003 4.09136 138 212 186
-0.754784 -1.19675 4.0899 74 110 96
1.01819 -1.23231 4.25481 63 98 88
2.49727 -1.23642 4.29435 77 109 78
-0.834849 -1.14497 4.09518 84 124 119
-0.985084 -1.13414 4.07892 64 101 85
-0.964668 -1.1351 4.08853 160 220 219
1.75429 -1.18474 4.24824 246 255 255
1.63418 -1.17301 4.26305 120 142 160
1.65299 -1.17267 4.25399 118 157 142
1.49951 -1.14915 4.24525 118 165 149
1.7727 -1.13523 4.23269 179 237 226
1.65765 -1.10255 4.19736 112 111 115
1.71934 -1.10175 4.22855 248 254 253
2.14838 -1.09951 4.25438 115 162 140
2.02337 -1.09322 4.25534 96 149 136
1.24864 -1.02795 4.22547 126 142 155
1.8155 -0.999613 4.17455 99 155 136
1.44799 -0.96264 4.19523 211 230 233
1.8645 -0.952821 4.22844 113 180 165
-0.0234977 -0.924562 4.19308 201 228 232
1.35944 -0.918823 4.21689 254 254 254
1.66848 -0.898663 4.18068 95 104 107
1.46678 -0.8339 4.18713 166 186 187
1.54068 -0.822318 4.20245 186 206 217
1.34362 -0.816816 4.19129 118 139 170
1.57776 -0.810748 4.17324 102 116 134
1.75599 -0.792181 4.19939 212 217 215
1.74857 -0.779166 4.19978 123 123 135
1.80803 -0.752236 4.21247 130 129 145
1.42623 -0.717968 4.18088 254 254 254
1.84093 -0.713015 4.20266 166 169 177
1.86499 -0.708727 4.22482 127 127 145
1.75549 -0.682748 4.19097 138 145 160
1.65583 -0.683206 4.21011 255 255 254
1.50503 -0.669714 4.16495 228 241 243
1.84774 -0.651421 4.22395 250 248 248
1.07365 -0.630866 4.22613 75 115 103
-1.14745 -0.613013 4.20487 255 255 255
1.8989 -0.614115 4.2216 94 142 130
1.82623 -0.589618 4.23261 103 153 129
1.42381 -0.565816 4.1858 137 164 201
1.73492 -0.562663 4.19456 160 174 196
1.45621 -0.550341 4.20192 204 194 207
-1.89592 -0.530209 4.21134 80 139 131
-1.20379 -0.487237 4.22414 183 217 223
1.25435 -0.480829 4.22953 251 255 255
1.47724 -0.44862 4.2257 255 255 255
2.01809 -0.445057 4.22193 255 252 253
1.38068 -0.425004 4.21948 128 179 152
1.81116 -0.376731 4.20339 91 163 141
1.461 -0.360505 4.21937 108 152 145
1.51665 -0.34051 4.2192 255 255 252
-1.58257 -0.327661 4.27957 100 149 129
-1.55921 -0.32295 4.26813 255 255 255
1.38718 -0.308962 4.22268 75 131 108
1.21054 -0.299334 4.23573 68 126 98
1.47023 -0.28778 4.22365 79 110 89
-0.704072 -0.252396 4.28149 67 123 110
1.51364 -0.22412 4.23714 121 174 147
1.72895 -0.19671 4.21646 87 134 108
1.17273 -0.159525 4.24862 253 255 255
1.24204 -0.0315574 4.26308 77 139 109
-1.03746 -0.0247296 4.35651 237 237 237
1.25983 0.00963603 4.25257 60 119 98
-0.750314 0.0643671 4.37425 96 151 134
1.02951 0.0648225 4.28574 67 94 78
0.942122 0.127284 4.29194 59 90 69
2.15601 0.138536 4.2329 255 255 254
1.06887 0.151286 4.30393 112 179 164
1.24687 0.155883 4.27448 79 145 126
0.536972 0.175419 4.33754 113 168 171
-2.28169 0.19077 4.51125 255 255 255
-1.77111 0.205338 4.48662 73 128 109
-0.758412 0.244913 4.41999 76 138 116
-0.341373 0.27976 4.41374 78 145 114
1.71186 0.327675 4.29107 91 157 138
1.71626 0.3547 4.27104 253 255 254
1.75144 0.371211 4.27373 255 251 252
1.8663 0.368636 4.26349 97 164 143
1.73711 0.389005 4.27364 78 136 107
-2.58731 0.483836 4.68324 129 189 165
1.29181 0.457404 4.32829 124 180 157
-2.59783 0.576352 4.73411 117 175 150
1.42515 0.560102 4.30821 65 117 99
1.52535 0.562143 4.28857 83 146 107
1.45283 0.583169 4.29369 146 222 180
2.49092 0.573904 4.24576 133 203 180
2.35658 0.610901 4.24864 64 109 83
2.43944 0.615493 4.22857 121 180 142
2.40815 0.622703 4.24422 84 139 114
2.38143 0.625185 4.22812 123 191 160
-0.851426 0.702881 4.58027 85 158 142
1.66678 0.65493 4.28284 83 142 114
-2.57787 0.741548 4.80324 65 93 74
1.92598 0.669728 4.26825 128 190 166
-2.64372 0.823652 4.85044 98 141 120
2.29473 0.72668 4.22761 92 153 127
1.56169 0.74637 4.31691 81 148 117
-2.66122 0.853152 4.85945 57 80 58
1.6994 0.768688 4.28931 91 171 136
-2.61692 0.88844 4.88206 82 123 108
1.82359 0.781937 4.28212 88 155 128
-2.73023 0.931989 4.93351 97 140 127
-2.61801 0.939633 4.93199 102 149 133
-2.71513 0.945514 4.91746 56 67 51
-2.61112 0.947049 4.89569 189 240 220
1.86005 0.858852 4.3235 77 128 101
-2.63312 1.01643 4.92442 79 117 99
-2.68445 1.03211 4.95869 108 145 129
1.51579 0.900271 4.33344 137 216 175
-2.70753 1.0793 4.99137 63 98 72
0.974417 0.988746 4.44876 89 160 133
-2.79725 1.16092 5.06593 76 126 116
1.46769 1.0188 4.39848 82 145 106
1.31137 1.02971 4.39818 109 162 153
1.61141 1.16156 4.39007 113 180 153
-1.90676 1.309 4.95154 140 199 191
1.61783 1.16998 4.40721 67 141 113
-0.735139 1.29516 4.77421 61 118 144
1.7594 1.25607 4.39109 47 55 45
1.47756 1.26715 4.42677 43 72 49
1.29346 1.29013 4.45851 255 255 255
1.49942 1.27674 4.40193 67 106 84
-2.19121 1.49012 5.08623 94 136 125
1.28745 1.33196 4.48255 75 114 93
1.55005 1.3179 4.41541 46 51 42
0.415311 1.39985 4.66567 87 132 113
1.31936 1.33501 4.44157 169 243 215
1.41685 1.34534 4.46187 49 69 46
1.71997 1.32952 4.4193 40 47 42
0.532035 1.41819 4.63674 223 255 244
1.12406 1.37959 4.51165 95 149 126
1.19249 1.38558 4.51426 46 76 47
1.33172 1.37777 4.48987 64 99 85
-1.07108 1.5238 4.93906 90 136 117
1.1251 1.40496 4.53729 125 192 160
-2.73015 1.64988 5.25993 255 255 255
1.05765 1.42678 4.54419 144 207 175
0.945822 1.45352 4.58516 158 204 182
1.00382 1.46739 4.61658 139 211 169
1.1367 1.43467 4.5117 63 82 63
0.856088 1.46912 4.60121 71 88 75
0.976092 1.46986 4.58576 108 167 123
0.73789 1.48831 4.6167 99 173 147
0.826759 1.48474 4.60002 67 91 73
0.860509 1.49825 4.61169 131 183 153
2.33862 -1.66664 4.34441 127 177 159
-0.696311 -1.53594 4.03558 142 207 208
-0.697193 -1.53663 4.04069 148 210 216
-1.96286 -1.47668 3.89578 108 99 120
-0.727628 -1.52588 4.05244 117 175 157
-0.538999 -1.48772 4.07988 132 201 180
-0.637153 -1.47945 4.07517 90 119 104
-0.588614 -1.45442 4.03287 118 158 153
-0.818996 -1.42286 4.04421 108 165 140
-0.518601 -1.44398 4.09455 90 127 125
-0.846929 -1.36738 4.06597 114 144 139
-0.823498 -1.37006 4.06232 64 67 58
-0.801985 -1.35653 4.06258 142 198 187
-0.653864 -1.36564 4.12065 110 177 150
-0.765092 -1.34001 4.06189 62 81 62
-0.855974 -1.32094 4.06479 71 92 83
-0.90202 -1.30356 4.04107 81 123 100
-0.890008 -1.30419 4.05615 69 96 76
-0.853687 -1.2979 4.06814 135 198 188
-0.78229 -1.28936 4.08118 156 207 210
-0.847876 -1.24835 4.07221 142 201 203
-0.893077 -1.23866 4.07371 147 204 203
-0.730208 -1.21699 4.08185 150 212 200
-0.762143 -1.20144 4.10576 105 140 130
-0.801595 -1.18375 4.1044 97 136 134
1.49062 -1.20025 4.24808 134 161 152
1.69705 -1.1905 4.26534 117 179 143
1.91453 -1.17566 4.24848 99 151 128
1.86763 -1.14208 4.24451 114 126 128
-0.954174 -1.09554 4.09127 67 108 111
1.63837 -1.11472 4.20638 175 216 201
1.65971 -1.1027 4.20534 132 133 137
1.93276 -1.11633 4.2218 144 180 166
1.36021 -1.04437 4.22505 241 247 246
1.29565 -1.02257 4.23571 238 251 249
1.94741 -0.998385 4.2061 137 173 157
0.421255 -0.973392 4.18285 81 140 109
1.43917 -0.964293 4.18313 206 227 235
1.47678 -0.974656 4.21696 107 112 121
1.38846 -0.932205 4.18425 255 255 255
1.54761 -0.930262 4.17513 226 237 241
1.75136 -0.930419 4.19353 202 225 227
1.52191 -0.918983 4.18962 199 209 216
1.34982 -0.919385 4.18664 241 242 240
1.35398 -0.860669 4.16393 253 255 255
1.7673 -0.864421 4.18643 77 100 95
1.32969 -0.837404 4.21093 253 255 255
1.50481 -0.791028 4.19286 77 75 81
1.70136 -0.797735 4.18981 154 158 159
1.68264 -0.780116 4.17935 125 136 133
1.7853 -0.781213 4.21921 111 111 125
1.41065 -0.728466 4.16327 255 255 255
1.55092 -0.741067 4.18447 131 154 149
1.42347 -0.726395 4.19651 255 255 255
1.84795 -0.709335 4.20295 161 170 179
1.5332 -0.694432 4.2016 114 145 138
1.4528 -0.666561 4.1878 186 210 228
1.49754 -0.668886 4.1726 222 235 237
1.66208 -0.674123 4.23297 241 252 250
1.5499 -0.628438 4.24057 160 164 175
1.60603 -0.607868 4.19145 120 124 143
1.42142 -0.575296 4.2041 170 208 242
1.72927 -0.561454 4.19941 181 204 219
-1.56253 -0.321005 4.28083 255 255 255
1.20647 -0.297573 4.24241 82 149 117
-1.41247 -0.256476 4.29802 124 174 162
1.2322 -0.143514 4.23019 77 112 78
1.194 0.0303016 4.26167 90 180 134
1.0337 0.0744445 4.33046 78 96 89
0.96701 0.106806 4.28934 132 184 161
2.15827 0.312893 4.24357 92 150 122
1.75315 0.364931 4.27669 255 255 255
1.4143 0.444366 4.30845 253 255 255
-2.5302 0.556306 4.71733 76 129 115
-2.57977 0.687612 4.7739 68 83 69
2.35433 0.60976 4.24556 74 116 93
2.37164 0.614335 4.22359 118 194 163
2.39165 0.670655 4.24876 144 193 177
1.81271 0.684539 4.29197 91 160 133
-2.61194 0.892292 4.86849 85 119 108
1.31487 0.857884 4.3427 78 131 111
1.84453 0.873875 4.29054 90 161 128
1.45622 1.00097 4.36794 68 130 100
1.99887 1.00534 4.31319 250 254 255
1.99172 1.10557 4.33452 143 217 181
1.98765 1.12265 4.33181 50 72 54
1.62988 1.16125 4.41223 132 190 162
1.92334 1.17277 4.3514 140 202 180
1.90477 1.18297 4.37657 68 105 85
0.40471 1.31778 4.66165 128 187 173
1.47428 1.26231 4.42262 51 77 53
1.75405 1.25514 4.39603 49 60 50
0.412932 1.3319 4.63426 79 123 106
1.28975 1.29123 4.46223 255 255 255
0.40542 1.36177 4.64395 123 185 163
1.36114 1.31347 4.45327 71 124 97
1.49161 1.30424 4.39168 139 223 199
0.40411 1.39998 4.66462 94 133 112
1.32 1.35567 4.48884 144 210 185
1.63405 1.33113 4.41971 74 104 85
1.33719 1.35251 4.42836 46 79 64
1.19343 1.38934 4.52134 49 74 46
1.22217 1.38932 4.51319 121 183 159
